<svg version="1.1" viewBox="0.0 0.0 960.0 540.0" fill="none" stroke="none" stroke-linecap="square" stroke-miterlimit="10" xmlns:xlink="http://www.w3.org/1999/xlink" xmlns="http://www.w3.org/2000/svg"><clipPath id="p.0"><path d="m0 0l960.0 0l0 540.0l-960.0 0l0 -540.0z" clip-rule="nonzero"/></clipPath><g clip-path="url(#p.0)"><path fill="#ffffff" d="m0 0l960.0 0l0 540.0l-960.0 0z" fill-rule="evenodd"/><path fill="#cccccc" d="m464.4252 196.16273l15.574799 -15.574814l15.574799 15.574814l-7.787384 0l0 42.94487l-15.574829 0l0 -42.94487z" fill-rule="evenodd"/><path fill="#000000" fill-opacity="0.0" d="m325.5879 239.10132l308.8189 0l0 61.795288l-308.8189 0z" fill-rule="evenodd"/><path stroke="#666666" stroke-width="1.0" stroke-linejoin="round" stroke-linecap="butt" d="m325.5879 239.10132l308.8189 0l0 61.795288l-308.8189 0z" fill-rule="evenodd"/><path fill="#000000" d="m458.6713 267.70334q0.859375 -1.828125 2.515625 -2.828125q1.671875 -1.015625 3.984375 -1.015625l0 3.171875l-0.90625 0q-2.453125 0 -4.03125 1.265625q-1.5625 1.265625 -1.5625 4.171875l0 9.25l-2.90625 0l0 -17.5625l2.90625 0l0 3.546875zm24.99115 -3.546875l0 17.5625l-2.90625 0l0 -4.125q-0.671875 2.140625 -2.390625 3.28125q-1.71875 1.125 -3.984375 1.125q-3.046875 0 -4.9375 -1.953125q-1.875 -1.96875 -1.875 -5.65625l0 -10.234375l2.90625 0l0 9.953125q0 2.625 1.34375 4.046875q1.34375 1.421875 3.65625 1.421875q2.390625 0 3.828125 -1.546875q1.453125 -1.5625 1.453125 -4.53125l0 -9.34375l2.90625 0zm13.913025 -0.296875q3.078125 0 4.96875 1.96875q1.890625 1.96875 1.890625 5.6875l0 10.203125l-2.921875 0l0 -9.953125q0 -2.625 -1.34375 -4.03125q-1.34375 -1.40625 -3.640625 -1.40625q-2.40625 0 -3.84375 1.5625q-1.4375 1.546875 -1.4375 4.515625l0 9.3125l-2.90625 0l0 -17.5625l2.90625 0l0 4.15625q0.671875 -2.140625 2.375 -3.296875q1.71875 -1.15625 3.953125 -1.15625z" fill-rule="nonzero"/><path fill="#000000" fill-opacity="0.0" d="m325.5879 118.79265l308.8189 0l0 61.795273l-308.8189 0z" fill-rule="evenodd"/><path stroke="#666666" stroke-width="1.0" stroke-linejoin="round" stroke-linecap="butt" d="m325.5879 118.79265l308.8189 0l0 61.795273l-308.8189 0z" fill-rule="evenodd"/><path fill="#000000" d="m447.185 143.61342q2.96875 0 4.78125 1.5625q1.8125 1.546875 2.1875 4.171875l-2.78125 0q-0.1875 -1.5625 -1.296875 -2.5625q-1.109375 -1.015625 -2.953125 -1.015625q-1.578125 0 -2.453125 0.75q-0.875 0.75 -0.875 2.03125q0 0.953125 0.578125 1.546875q0.59375 0.59375 1.46875 0.90625q0.890625 0.296875 2.421875 0.640625q1.953125 0.453125 3.15625 0.921875q1.203125 0.453125 2.046875 1.484375q0.84375 1.015625 0.84375 2.75q0 2.140625 -1.609375 3.484375q-1.609375 1.34375 -4.296875 1.34375q-3.140625 0 -5.125 -1.5q-1.984375 -1.5 -2.34375 -4.1875l2.828125 0q0.15625 1.59375 1.390625 2.59375q1.234375 0.984375 3.25 0.984375q1.5 0 2.34375 -0.765625q0.84375 -0.765625 0.84375 -2.015625q0 -1.03125 -0.609375 -1.625q-0.59375 -0.609375 -1.5 -0.921875q-0.890625 -0.328125 -2.453125 -0.6875q-1.953125 -0.453125 -3.125 -0.890625q-1.171875 -0.453125 -1.984375 -1.421875q-0.8125 -0.984375 -0.8125 -2.640625q0 -2.21875 1.625 -3.578125q1.640625 -1.359375 4.453125 -1.359375zm19.419037 15.234375l0 2.5625l-2.171875 0q-2.6875 0 -4.015625 -1.28125q-1.328125 -1.28125 -1.328125 -4.28125l0 -9.484375l-2.625 0l0 -2.515625l2.625 0l0 -4.390625l2.9375 0l0 4.390625l4.546875 0l0 2.515625l-4.546875 0l0 9.546875q0 1.6875 0.625 2.3125q0.625 0.625 2.15625 0.625l1.796875 0zm11.51416 -15.234375q2.53125 0 4.53125 1.09375q2.0 1.09375 3.140625 3.140625q1.140625 2.046875 1.140625 4.796875q0 2.75 -1.140625 4.78125q-1.140625 2.03125 -3.140625 3.125q-2.0 1.078125 -4.53125 1.078125q-2.515625 0 -4.515625 -1.078125q-2.0 -1.09375 -3.15625 -3.125q-1.15625 -2.03125 -1.15625 -4.78125q0 -2.75 1.15625 -4.796875q1.15625 -2.046875 3.15625 -3.140625q2.0 -1.09375 4.515625 -1.09375zm0 2.5625q-1.5625 0 -2.890625 0.703125q-1.328125 0.703125 -2.140625 2.171875q-0.8125 1.453125 -0.8125 3.59375q0 2.109375 0.8125 3.5625q0.8125 1.453125 2.140625 2.15625q1.328125 0.703125 2.890625 0.703125q1.578125 0 2.90625 -0.703125q1.328125 -0.703125 2.140625 -2.15625q0.8125 -1.453125 0.8125 -3.5625q0 -2.140625 -0.8125 -3.59375q-0.8125 -1.46875 -2.140625 -2.171875q-1.328125 -0.703125 -2.90625 -0.703125zm15.529144 1.21875q0.859375 -1.828125 2.515625 -2.828125q1.671875 -1.015625 3.984375 -1.015625l0 3.171875l-0.90625 0q-2.453125 0 -4.03125 1.265625q-1.5625 1.265625 -1.5625 4.171875l0 9.25l-2.90625 0l0 -17.5625l2.90625 0l0 3.546875zm25.538025 4.25q0 0.9375 -0.125 1.609375l-14.0625 0q0.109375 3.0 1.71875 4.515625q1.609375 1.5 3.953125 1.5q2.109375 0 3.53125 -1.0625q1.421875 -1.078125 1.75 -2.875l3.109375 0q-0.328125 1.828125 -1.4375 3.265625q-1.09375 1.4375 -2.859375 2.234375q-1.765625 0.796875 -3.96875 0.796875q-2.53125 0 -4.484375 -1.078125q-1.9375 -1.09375 -3.046875 -3.125q-1.109375 -2.03125 -1.109375 -4.78125q0 -2.75 1.109375 -4.796875q1.109375 -2.046875 3.046875 -3.140625q1.953125 -1.09375 4.484375 -1.09375q2.5625 0 4.46875 1.09375q1.90625 1.09375 2.90625 2.921875q1.015625 1.8125 1.015625 4.015625zm-2.953125 0.203125q0.09375 -1.953125 -0.640625 -3.265625q-0.734375 -1.3125 -2.015625 -1.953125q-1.28125 -0.640625 -2.78125 -0.640625q-2.390625 0 -4.03125 1.484375q-1.625 1.484375 -1.765625 4.375l11.234375 0z" fill-rule="nonzero"/><path fill="#000000" fill-opacity="0.0" d="m325.5879 359.41193l308.8189 0l0 61.795288l-308.8189 0z" fill-rule="evenodd"/><path stroke="#666666" stroke-width="1.0" stroke-linejoin="round" stroke-linecap="butt" d="m325.5879 359.41193l308.8189 0l0 61.795288l-308.8189 0z" fill-rule="evenodd"/><path fill="#000000" d="m470.72305 379.46707l0 13.53125q0 3.328125 1.46875 4.921875q1.46875 1.578125 4.0625 1.578125q2.5625 0 4.0 -1.59375q1.4375 -1.609375 1.4375 -4.90625l0 -13.53125l2.90625 0l0 13.53125q0 4.609375 -2.28125 6.9375q-2.28125 2.3125 -6.125 2.3125q-3.8125 0 -6.109375 -2.3125q-2.28125 -2.328125 -2.28125 -6.9375l0 -13.53125l2.921875 0zm21.308289 0l0 22.5625l-2.90625 0l0 -22.5625l2.90625 0z" fill-rule="nonzero"/><path fill="#000000" fill-opacity="0.0" d="m325.5879 390.30957l-25.0 0l0 -120.31497l25.062988 0" fill-rule="evenodd"/><path stroke="#595959" stroke-width="1.0" stroke-linejoin="round" stroke-linecap="butt" d="m325.5879 390.3096l-25.0 0l0 -120.315l21.635895 0" fill-rule="evenodd"/><path fill="#595959" stroke="#595959" stroke-width="1.0" stroke-linecap="butt" d="m322.2238 269.9946l-1.1245728 1.1246033l3.0897522 -1.1246033l-3.0897522 -1.1245728z" fill-rule="evenodd"/><path fill="#000000" fill-opacity="0.0" d="m634.4068 149.69029l25.0 0l0 240.62993l-24.937012 0" fill-rule="evenodd"/><path stroke="#595959" stroke-width="1.0" stroke-linejoin="round" stroke-linecap="butt" d="m634.4068 149.69029l25.0 0l0 240.62993l-21.509949 0" fill-rule="evenodd"/><path fill="#595959" stroke="#595959" stroke-width="1.0" stroke-linecap="butt" d="m637.89685 390.32022l1.1245728 -1.1246033l-3.0897217 1.1246033l3.0897217 1.1245728z" fill-rule="evenodd"/></g></svg>