<svg version="1.1" viewBox="0.0 0.0 960.0 540.0" fill="none" stroke="none" stroke-linecap="square" stroke-miterlimit="10" xmlns:xlink="http://www.w3.org/1999/xlink" xmlns="http://www.w3.org/2000/svg"><clipPath id="g76cad55604_0_280.0"><path d="m0 0l960.0 0l0 540.0l-960.0 0l0 -540.0z" clip-rule="nonzero"/></clipPath><g clip-path="url(#g76cad55604_0_280.0)"><path fill="#ffffff" d="m0 0l960.0 0l0 540.0l-960.0 0z" fill-rule="evenodd"/><path fill="#000000" fill-opacity="0.0" d="m191.99998 429.57916l576.0 0l0 54.4252l-576.0 0z" fill-rule="evenodd"/><path fill="#000000" d="m230.23389 470.8424l0 -27.3125l7.359375 0l0 2.125l-5.015625 0l0 23.09375l5.015625 0l0 2.09375l-7.359375 0zm18.440765 -13.65625q0 3.046875 0.6875 5.28125q0.703125 2.234375 2.09375 4.0625q1.390625 1.828125 3.5 3.671875l-1.296875 1.359375q-2.375 -1.953125 -4.078125 -4.0q-1.6875 -2.03125 -2.59375 -4.53125q-0.890625 -2.515625 -0.890625 -5.84375q0 -3.34375 0.890625 -5.84375q0.90625 -2.515625 2.59375 -4.546875q1.703125 -2.046875 4.078125 -3.984375l1.296875 1.359375q-1.59375 1.40625 -2.78125 2.765625q-1.171875 1.34375 -1.953125 2.84375q-0.765625 1.484375 -1.15625 3.296875q-0.390625 1.8125 -0.390625 4.109375zm22.722015 0q0 -2.296875 -0.390625 -4.109375q-0.375 -1.8125 -1.15625 -3.296875q-0.78125 -1.5 -1.96875 -2.84375q-1.171875 -1.359375 -2.75 -2.765625l1.28125 -1.359375q2.390625 1.9375 4.078125 3.984375q1.6875 2.03125 2.59375 4.546875q0.90625 2.5 0.90625 5.84375q0 3.328125 -0.90625 5.84375q-0.90625 2.5 -2.59375 4.53125q-1.6875 2.046875 -4.078125 4.0l-1.28125 -1.359375q2.09375 -1.84375 3.484375 -3.671875q1.390625 -1.828125 2.078125 -4.0625q0.703125 -2.234375 0.703125 -5.28125zm53.11917 -2.703125l0 2.125l-25.578125 0l0 -2.125l25.578125 0zm0 5.5625l0 2.140625l-25.578125 0l0 -2.140625l25.578125 0zm-4.1875 -10.640625l7.96875 8.921875l-7.96875 8.9375l-1.828125 -1.5625l1.84375 -2.015625q0.328125 -0.40625 0.734375 -0.765625q0.40625 -0.359375 1.0625 -0.734375l1.515625 -2.140625l1.5625 -1.71875l-1.5625 -1.71875l-1.515625 -2.125q-0.65625 -0.375 -1.0625 -0.765625q-0.40625 -0.390625 -0.734375 -0.765625l-1.84375 -2.0l1.828125 -1.546875zm33.084656 21.4375l0 -27.3125l7.359375 0l0 2.125l-5.015625 0l0 23.09375l5.015625 0l0 2.09375l-7.359375 0zm25.440765 -27.890625l0 1.9375q-1.0625 0 -1.9375 0.21875q-0.875 0.203125 -1.359375 0.71875q-0.46875 0.515625 -0.390625 1.40625l0.609375 6.015625q0.140625 1.21875 -0.140625 2.03125q-0.28125 0.8125 -0.9375 1.265625q-0.640625 0.453125 -1.65625 0.640625q1.03125 0.171875 1.6875 0.609375q0.65625 0.4375 0.921875 1.234375q0.265625 0.796875 0.125 2.109375l-0.609375 6.0q-0.078125 0.90625 0.390625 1.421875q0.46875 0.515625 1.34375 0.71875q0.890625 0.203125 1.953125 0.203125l0 1.9375q-1.21875 0 -2.359375 -0.21875q-1.125 -0.203125 -2.0 -0.71875q-0.859375 -0.515625 -1.296875 -1.40625q-0.4375 -0.875 -0.296875 -2.21875l0.59375 -5.578125q0.109375 -1.015625 -0.1875 -1.703125q-0.296875 -0.6875 -1.296875 -1.046875q-0.984375 -0.359375 -2.9375 -0.359375l0 -1.96875q1.953125 0 2.9375 -0.34375q1.0 -0.359375 1.296875 -1.046875q0.296875 -0.6875 0.1875 -1.6875l-0.59375 -5.59375q-0.140625 -1.359375 0.296875 -2.234375q0.4375 -0.890625 1.296875 -1.40625q0.859375 -0.515625 2.0 -0.71875q1.140625 -0.21875 2.359375 -0.21875zm8.722015 0q1.234375 0 2.359375 0.21875q1.125 0.203125 1.984375 0.71875q0.875 0.515625 1.3125 1.40625q0.453125 0.875 0.296875 2.234375l-0.59375 5.59375q-0.109375 1.0 0.265625 1.6875q0.375 0.6875 1.359375 1.046875q1.0 0.34375 2.8125 0.34375l0 1.96875q-1.796875 0 -2.796875 0.359375q-1.0 0.359375 -1.375 1.046875q-0.375 0.6875 -0.265625 1.703125l0.59375 5.578125q0.140625 1.34375 -0.296875 2.21875q-0.4375 0.890625 -1.296875 1.40625q-0.859375 0.515625 -2.0 0.71875q-1.125 0.21875 -2.359375 0.21875l0 -1.9375q1.0625 0 1.9375 -0.203125q0.875 -0.203125 1.359375 -0.71875q0.484375 -0.515625 0.390625 -1.421875l-0.609375 -6.0q-0.140625 -1.3125 0.140625 -2.109375q0.28125 -0.796875 1.0 -1.21875q0.734375 -0.4375 1.921875 -0.59375q-1.140625 -0.1875 -1.875 -0.65625q-0.71875 -0.46875 -1.015625 -1.28125q-0.296875 -0.8125 -0.171875 -2.03125l0.609375 -6.015625q0.09375 -0.890625 -0.390625 -1.40625q-0.484375 -0.515625 -1.359375 -0.71875q-0.859375 -0.21875 -1.9375 -0.21875l0 -1.9375zm25.440765 0.578125l0 27.3125l-7.34375 0l0 -2.078125l5.015625 0l0 -23.109375l-5.015625 0l0 -2.125l7.34375 0zm14.190765 19.09375q1.015625 0 1.6875 0.6875q0.6875 0.6875 0.6875 1.65625q0 0.53125 -0.125 1.078125q-0.125 0.546875 -0.4375 1.234375l-2.375 5.4375l-2.234375 0l1.40625 -5.796875q-0.4375 -0.3125 -0.703125 -0.828125q-0.25 -0.53125 -0.25 -1.125q0 -0.96875 0.671875 -1.65625q0.671875 -0.6875 1.671875 -0.6875zm32.63156 -5.4375q0 3.046875 0.6875 5.28125q0.703125 2.234375 2.09375 4.0625q1.390625 1.828125 3.5 3.671875l-1.296875 1.359375q-2.375 -1.953125 -4.078125 -4.0q-1.6875 -2.03125 -2.59375 -4.53125q-0.890625 -2.515625 -0.890625 -5.84375q0 -3.34375 0.890625 -5.84375q0.90625 -2.515625 2.59375 -4.546875q1.703125 -2.046875 4.078125 -3.984375l1.296875 1.359375q-1.59375 1.40625 -2.78125 2.765625q-1.171875 1.34375 -1.953125 2.84375q-0.765625 1.484375 -1.15625 3.296875q-0.390625 1.8125 -0.390625 4.109375zm22.721985 0q0 -2.296875 -0.390625 -4.109375q-0.375 -1.8125 -1.15625 -3.296875q-0.78125 -1.5 -1.96875 -2.84375q-1.171875 -1.359375 -2.75 -2.765625l1.28125 -1.359375q2.390625 1.9375 4.078125 3.984375q1.6875 2.03125 2.59375 4.546875q0.90625 2.5 0.90625 5.84375q0 3.328125 -0.90625 5.84375q-0.90625 2.5 -2.59375 4.53125q-1.6875 2.046875 -4.078125 4.0l-1.28125 -1.359375q2.09375 -1.84375 3.484375 -3.671875q1.390625 -1.828125 2.078125 -4.0625q0.703125 -2.234375 0.703125 -5.28125zm53.1192 -2.703125l0 2.125l-25.578125 0l0 -2.125l25.578125 0zm0 5.5625l0 2.140625l-25.578125 0l0 -2.140625l25.578125 0zm-4.1875 -10.640625l7.96875 8.921875l-7.96875 8.9375l-1.828125 -1.5625l1.84375 -2.015625q0.328125 -0.40625 0.734375 -0.765625q0.40625 -0.359375 1.0625 -0.734375l1.515625 -2.140625l1.5625 -1.71875l-1.5625 -1.71875l-1.515625 -2.125q-0.65625 -0.375 -1.0625 -0.765625q-0.40625 -0.390625 -0.734375 -0.765625l-1.84375 -2.0l1.828125 -1.546875zm33.084656 21.4375l0 -27.3125l7.359375 0l0 2.125l-5.015625 0l0 23.09375l5.015625 0l0 2.09375l-7.359375 0zm25.440735 -27.890625l0 1.9375q-1.0625 0 -1.9375 0.21875q-0.875 0.203125 -1.359375 0.71875q-0.46875 0.515625 -0.390625 1.40625l0.609375 6.015625q0.140625 1.21875 -0.140625 2.03125q-0.28125 0.8125 -0.9375 1.265625q-0.640625 0.453125 -1.65625 0.640625q1.03125 0.171875 1.6875 0.609375q0.65625 0.4375 0.921875 1.234375q0.265625 0.796875 0.125 2.109375l-0.609375 6.0q-0.078125 0.90625 0.390625 1.421875q0.46875 0.515625 1.34375 0.71875q0.890625 0.203125 1.953125 0.203125l0 1.9375q-1.21875 0 -2.359375 -0.21875q-1.125 -0.203125 -2.0 -0.71875q-0.859375 -0.515625 -1.296875 -1.40625q-0.4375 -0.875 -0.296875 -2.21875l0.59375 -5.578125q0.109375 -1.015625 -0.1875 -1.703125q-0.296875 -0.6875 -1.296875 -1.046875q-0.984375 -0.359375 -2.9375 -0.359375l0 -1.96875q1.953125 0 2.9375 -0.34375q1.0 -0.359375 1.296875 -1.046875q0.296875 -0.6875 0.1875 -1.6875l-0.59375 -5.59375q-0.140625 -1.359375 0.296875 -2.234375q0.4375 -0.890625 1.296875 -1.40625q0.859375 -0.515625 2.0 -0.71875q1.140625 -0.21875 2.359375 -0.21875zm8.722046 0q1.234375 0 2.359375 0.21875q1.125 0.203125 1.984375 0.71875q0.875 0.515625 1.3125 1.40625q0.453125 0.875 0.296875 2.234375l-0.59375 5.59375q-0.109375 1.0 0.265625 1.6875q0.375 0.6875 1.359375 1.046875q1.0 0.34375 2.8125 0.34375l0 1.96875q-1.796875 0 -2.796875 0.359375q-1.0 0.359375 -1.375 1.046875q-0.375 0.6875 -0.265625 1.703125l0.59375 5.578125q0.140625 1.34375 -0.296875 2.21875q-0.4375 0.890625 -1.296875 1.40625q-0.859375 0.515625 -2.0 0.71875q-1.125 0.21875 -2.359375 0.21875l0 -1.9375q1.0625 0 1.9375 -0.203125q0.875 -0.203125 1.359375 -0.71875q0.484375 -0.515625 0.390625 -1.421875l-0.609375 -6.0q-0.140625 -1.3125 0.140625 -2.109375q0.28125 -0.796875 1.0 -1.21875q0.734375 -0.4375 1.921875 -0.59375q-1.140625 -0.1875 -1.875 -0.65625q-0.71875 -0.46875 -1.015625 -1.28125q-0.296875 -0.8125 -0.171875 -2.03125l0.609375 -6.015625q0.09375 -0.890625 -0.390625 -1.40625q-0.484375 -0.515625 -1.359375 -0.71875q-0.859375 -0.21875 -1.9375 -0.21875l0 -1.9375zm25.440735 0.578125l0 27.3125l-7.34375 0l0 -2.078125l5.015625 0l0 -23.109375l-5.015625 0l0 -2.125l7.34375 0zm14.190796 19.09375q1.015625 0 1.6875 0.6875q0.6875 0.6875 0.6875 1.65625q0 0.53125 -0.125 1.078125q-0.125 0.546875 -0.4375 1.234375l-2.375 5.4375l-2.234375 0l1.40625 -5.796875q-0.4375 -0.3125 -0.703125 -0.828125q-0.25 -0.53125 -0.25 -1.125q0 -0.96875 0.671875 -1.65625q0.671875 -0.6875 1.671875 -0.6875zm49.79431 2.5625q0 -0.71875 0.34375 -1.296875q0.328125 -0.578125 0.90625 -0.921875q0.578125 -0.34375 1.3125 -0.34375q0.75 0 1.34375 0.34375q0.578125 0.34375 0.921875 0.921875q0.328125 0.578125 0.328125 1.296875q0 0.71875 -0.328125 1.3125q-0.34375 0.59375 -0.921875 0.953125q-0.59375 0.34375 -1.34375 0.34375q-0.734375 0 -1.3125 -0.34375q-0.578125 -0.359375 -0.90625 -0.953125q-0.34375 -0.59375 -0.34375 -1.3125zm12.0 0q0 -0.71875 0.328125 -1.296875q0.34375 -0.578125 0.921875 -0.921875q0.578125 -0.34375 1.3125 -0.34375q0.75 0 1.328125 0.34375q0.59375 0.34375 0.921875 0.921875q0.34375 0.578125 0.34375 1.296875q0 0.71875 -0.34375 1.3125q-0.328125 0.59375 -0.921875 0.953125q-0.578125 0.34375 -1.328125 0.34375q-0.734375 0 -1.3125 -0.34375q-0.578125 -0.359375 -0.921875 -0.953125q-0.328125 -0.59375 -0.328125 -1.3125zm-23.0 0q0 -0.71875 0.34375 -1.296875q0.328125 -0.578125 0.90625 -0.921875q0.578125 -0.34375 1.3125 -0.34375q0.75 0 1.34375 0.34375q0.578125 0.34375 0.921875 0.921875q0.328125 0.578125 0.328125 1.296875q0 0.71875 -0.328125 1.3125q-0.34375 0.59375 -0.921875 0.953125q-0.59375 0.34375 -1.34375 0.34375q-0.734375 0 -1.3125 -0.34375q-0.578125 -0.359375 -0.90625 -0.953125q-0.34375 -0.59375 -0.34375 -1.3125zm52.596985 -21.65625l0 27.3125l-7.34375 0l0 -2.078125l5.015625 0l0 -23.109375l-5.015625 0l0 -2.125l7.34375 0z" fill-rule="nonzero"/><path fill="#000000" fill-opacity="0.0" d="m191.99998 130.71129l576.0 0l0 54.4252l-576.0 0z" fill-rule="evenodd"/><path fill="#000000" d="m398.2493 158.31825q0 3.046875 0.6875 5.28125q0.703125 2.234375 2.09375 4.0625q1.390625 1.828125 3.5 3.671875l-1.296875 1.359375q-2.375 -1.953125 -4.078125 -4.0q-1.6875 -2.03125 -2.59375 -4.53125q-0.890625 -2.515625 -0.890625 -5.84375q0 -3.34375 0.890625 -5.84375q0.90625 -2.515625 2.59375 -4.546875q1.703125 -2.046875 4.078125 -3.984375l1.296875 1.359375q-1.59375 1.40625 -2.78125 2.765625q-1.171875 1.34375 -1.953125 2.84375q-0.765625 1.484375 -1.15625 3.296875q-0.390625 1.8125 -0.390625 4.109375zm22.722015 0q0 -2.296875 -0.390625 -4.109375q-0.375 -1.8125 -1.15625 -3.296875q-0.78125 -1.5 -1.96875 -2.84375q-1.171875 -1.359375 -2.75 -2.765625l1.28125 -1.359375q2.390625 1.9375 4.078125 3.984375q1.6875 2.03125 2.59375 4.546875q0.90625 2.5 0.90625 5.84375q0 3.328125 -0.90625 5.84375q-0.90625 2.5 -2.59375 4.53125q-1.6875 2.046875 -4.078125 4.0l-1.28125 -1.359375q2.09375 -1.84375 3.484375 -3.671875q1.390625 -1.828125 2.078125 -4.0625q0.703125 -2.234375 0.703125 -5.28125zm53.11917 -2.703125l0 2.125l-25.578125 0l0 -2.125l25.578125 0zm0 5.5625l0 2.140625l-25.578125 0l0 -2.140625l25.578125 0zm-4.1875 -10.640625l7.96875 8.921875l-7.96875 8.9375l-1.828125 -1.5625l1.84375 -2.015625q0.328125 -0.40625 0.734375 -0.765625q0.40625 -0.359375 1.0625 -0.734375l1.515625 -2.140625l1.5625 -1.71875l-1.5625 -1.71875l-1.515625 -2.125q-0.65625 -0.375 -1.0625 -0.765625q-0.40625 -0.390625 -0.734375 -0.765625l-1.84375 -2.0l1.828125 -1.546875zm33.928406 7.78125q0 3.046875 0.6875 5.28125q0.703125 2.234375 2.09375 4.0625q1.390625 1.828125 3.5 3.671875l-1.296875 1.359375q-2.375 -1.953125 -4.078125 -4.0q-1.6875 -2.03125 -2.59375 -4.53125q-0.890625 -2.515625 -0.890625 -5.84375q0 -3.34375 0.890625 -5.84375q0.90625 -2.515625 2.59375 -4.546875q1.703125 -2.046875 4.078125 -3.984375l1.296875 1.359375q-1.59375 1.40625 -2.78125 2.765625q-1.171875 1.34375 -1.953125 2.84375q-0.765625 1.484375 -1.15625 3.296875q-0.390625 1.8125 -0.390625 4.109375zm24.597015 -14.234375l0 1.9375q-1.0625 0 -1.9375 0.21875q-0.875 0.203125 -1.359375 0.71875q-0.46875 0.515625 -0.390625 1.40625l0.609375 6.015625q0.140625 1.21875 -0.140625 2.03125q-0.28125 0.8125 -0.9375 1.265625q-0.640625 0.453125 -1.65625 0.640625q1.03125 0.171875 1.6875 0.609375q0.65625 0.4375 0.921875 1.234375q0.265625 0.796875 0.125 2.109375l-0.609375 6.0q-0.078125 0.90625 0.390625 1.421875q0.46875 0.515625 1.34375 0.71875q0.890625 0.203125 1.953125 0.203125l0 1.9375q-1.21875 0 -2.359375 -0.21875q-1.125 -0.203125 -2.0 -0.71875q-0.859375 -0.515625 -1.296875 -1.40625q-0.4375 -0.875 -0.296875 -2.21875l0.59375 -5.578125q0.109375 -1.015625 -0.1875 -1.703125q-0.296875 -0.6875 -1.296875 -1.046875q-0.984375 -0.359375 -2.9375 -0.359375l0 -1.96875q1.953125 0 2.9375 -0.34375q1.0 -0.359375 1.296875 -1.046875q0.296875 -0.6875 0.1875 -1.6875l-0.59375 -5.59375q-0.140625 -1.359375 0.296875 -2.234375q0.4375 -0.890625 1.296875 -1.40625q0.859375 -0.515625 2.0 -0.71875q1.140625 -0.21875 2.359375 -0.21875zm8.721985 0q1.234375 0 2.359375 0.21875q1.125 0.203125 1.984375 0.71875q0.875 0.515625 1.3125 1.40625q0.453125 0.875 0.296875 2.234375l-0.59375 5.59375q-0.109375 1.0 0.265625 1.6875q0.375 0.6875 1.359375 1.046875q1.0 0.34375 2.8125 0.34375l0 1.96875q-1.796875 0 -2.796875 0.359375q-1.0 0.359375 -1.375 1.046875q-0.375 0.6875 -0.265625 1.703125l0.59375 5.578125q0.140625 1.34375 -0.296875 2.21875q-0.4375 0.890625 -1.296875 1.40625q-0.859375 0.515625 -2.0 0.71875q-1.125 0.21875 -2.359375 0.21875l0 -1.9375q1.0625 0 1.9375 -0.203125q0.875 -0.203125 1.359375 -0.71875q0.484375 -0.515625 0.390625 -1.421875l-0.609375 -6.0q-0.140625 -1.3125 0.140625 -2.109375q0.28125 -0.796875 1.0 -1.21875q0.734375 -0.4375 1.921875 -0.59375q-1.140625 -0.1875 -1.875 -0.65625q-0.71875 -0.46875 -1.015625 -1.28125q-0.296875 -0.8125 -0.171875 -2.03125l0.609375 -6.015625q0.09375 -0.890625 -0.390625 -1.40625q-0.484375 -0.515625 -1.359375 -0.71875q-0.859375 -0.21875 -1.9375 -0.21875l0 -1.9375zm24.597046 14.234375q0 -2.296875 -0.390625 -4.109375q-0.375 -1.8125 -1.15625 -3.296875q-0.78125 -1.5 -1.96875 -2.84375q-1.171875 -1.359375 -2.75 -2.765625l1.28125 -1.359375q2.390625 1.9375 4.078125 3.984375q1.6875 2.03125 2.59375 4.546875q0.90625 2.5 0.90625 5.84375q0 3.328125 -0.90625 5.84375q-0.90625 2.5 -2.59375 4.53125q-1.6875 2.046875 -4.078125 4.0l-1.28125 -1.359375q2.09375 -1.84375 3.484375 -3.671875q1.390625 -1.828125 2.078125 -4.0625q0.703125 -2.234375 0.703125 -5.28125z" fill-rule="nonzero"/><path fill="#000000" fill-opacity="0.0" d="m191.99998 205.42825l576.0 0l0 54.4252l-576.0 0z" fill-rule="evenodd"/><path fill="#000000" d="m353.22388 239.92586q0 0.921875 0.3125 1.359375q0.3125 0.421875 0.953125 0.625l-0.59375 1.734375q-1.0 -0.140625 -1.75 -0.640625q-0.75 -0.515625 -1.09375 -1.53125q-0.828125 1.0625 -2.078125 1.625q-1.25 0.546875 -2.75 0.546875q-2.328125 0 -3.65625 -1.296875q-1.328125 -1.3125 -1.328125 -3.46875q0 -2.390625 1.859375 -3.671875q1.859375 -1.28125 5.375 -1.28125l2.28125 0l0 -1.28125q0 -1.671875 -0.984375 -2.359375q-0.96875 -0.703125 -2.703125 -0.703125q-0.765625 0 -1.796875 0.1875q-1.015625 0.171875 -2.21875 0.59375l-0.640625 -1.859375q1.421875 -0.53125 2.65625 -0.75q1.25 -0.21875 2.390625 -0.21875q2.875 0 4.3125 1.34375q1.453125 1.34375 1.453125 3.640625l0 7.40625zm-6.375 1.828125q1.140625 0 2.171875 -0.578125q1.046875 -0.578125 1.734375 -1.59375l0 -3.984375l-2.234375 0q-2.546875 0 -3.59375 0.890625q-1.046875 0.875 -1.046875 2.359375q0 1.4375 0.734375 2.171875q0.734375 0.734375 2.234375 0.734375zm18.17514 -0.15625q1.765625 0 2.796875 -0.65625q1.046875 -0.671875 1.046875 -1.796875q0 -0.703125 -0.265625 -1.203125q-0.25 -0.515625 -1.046875 -0.921875q-0.796875 -0.421875 -2.4375 -0.828125q-1.59375 -0.40625 -2.78125 -0.921875q-1.171875 -0.515625 -1.828125 -1.34375q-0.65625 -0.84375 -0.65625 -2.1875q0 -1.296875 0.734375 -2.234375q0.75 -0.953125 2.0625 -1.453125q1.328125 -0.515625 3.078125 -0.515625q1.859375 0 3.234375 0.5q1.390625 0.484375 2.359375 1.203125l-1.078125 1.671875q-0.890625 -0.609375 -1.953125 -0.984375q-1.046875 -0.390625 -2.53125 -0.390625q-1.828125 0 -2.59375 0.5625q-0.75 0.5625 -0.75 1.453125q0 0.671875 0.359375 1.125q0.375 0.453125 1.265625 0.8125q0.90625 0.359375 2.46875 0.78125q1.515625 0.390625 2.640625 0.953125q1.125 0.5625 1.75 1.46875q0.625 0.90625 0.625 2.34375q0 1.640625 -0.9375 2.65625q-0.9375 1.015625 -2.421875 1.484375q-1.484375 0.46875 -3.140625 0.46875q-2.109375 0 -3.578125 -0.609375q-1.46875 -0.609375 -2.46875 -1.484375l1.40625 -1.625q0.90625 0.75 2.078125 1.21875q1.1875 0.453125 2.5625 0.453125zm25.190765 -13.734375l-5.421875 15.546875q-0.546875 1.5625 -1.375 2.859375q-0.828125 1.3125 -2.15625 2.171875q-1.328125 0.859375 -3.375 1.0625l-0.375 -1.96875q1.59375 -0.265625 2.515625 -0.8125q0.9375 -0.53125 1.46875 -1.390625q0.53125 -0.84375 0.9375 -2.03125l-0.8125 0l-5.40625 -15.4375l2.640625 0l4.4375 13.5625l4.359375 -13.5625l2.5625 0zm4.7532654 15.4375l0 -15.4375l2.09375 0l0.1875 2.140625q0.9375 -1.1875 2.34375 -1.828125q1.421875 -0.640625 2.765625 -0.640625q2.265625 0 3.296875 1.203125q1.03125 1.203125 1.03125 3.34375l0 11.21875l-2.453125 0l0 -9.40625q0 -1.578125 -0.1875 -2.546875q-0.171875 -0.984375 -0.734375 -1.421875q-0.546875 -0.453125 -1.71875 -0.453125q-0.90625 0 -1.71875 0.40625q-0.796875 0.390625 -1.421875 0.984375q-0.609375 0.59375 -1.03125 1.1875l0 11.25l-2.453125 0zm24.565765 -1.78125q1.171875 0 2.171875 -0.375q1.0 -0.390625 1.859375 -0.984375l1.1875 1.609375q-1.0 0.875 -2.421875 1.375q-1.421875 0.5 -2.796875 0.5q-2.296875 0 -3.921875 -0.984375q-1.609375 -1.0 -2.46875 -2.796875q-0.84375 -1.796875 -0.84375 -4.21875q0 -2.3125 0.859375 -4.15625q0.859375 -1.84375 2.46875 -2.890625q1.625 -1.0625 3.9375 -1.0625q1.484375 0 2.78125 0.453125q1.296875 0.4375 2.390625 1.34375l-1.203125 1.640625q-0.984375 -0.6875 -1.984375 -1.03125q-0.984375 -0.359375 -2.015625 -0.359375q-1.984375 0 -3.28125 1.5q-1.28125 1.5 -1.28125 4.5625q0 2.046875 0.59375 3.359375q0.59375 1.296875 1.625 1.90625q1.03125 0.609375 2.34375 0.609375zm31.50653 -8.484375q0 3.046875 0.6875 5.28125q0.703125 2.234375 2.09375 4.0625q1.390625 1.828125 3.5 3.671875l-1.296875 1.359375q-2.375 -1.953125 -4.078125 -4.0q-1.6875 -2.03125 -2.59375 -4.53125q-0.890625 -2.515625 -0.890625 -5.84375q0 -3.34375 0.890625 -5.84375q0.90625 -2.515625 2.59375 -4.546875q1.703125 -2.046875 4.078125 -3.984375l1.296875 1.359375q-1.59375 1.40625 -2.78125 2.765625q-1.171875 1.34375 -1.953125 2.84375q-0.765625 1.484375 -1.15625 3.296875q-0.390625 1.8125 -0.390625 4.109375zm22.722015 0q0 -2.296875 -0.390625 -4.109375q-0.375 -1.8125 -1.15625 -3.296875q-0.78125 -1.5 -1.96875 -2.84375q-1.171875 -1.359375 -2.75 -2.765625l1.28125 -1.359375q2.390625 1.9375 4.078125 3.984375q1.6875 2.03125 2.59375 4.546875q0.90625 2.5 0.90625 5.84375q0 3.328125 -0.90625 5.84375q-0.90625 2.5 -2.59375 4.53125q-1.6875 2.046875 -4.078125 4.0l-1.28125 -1.359375q2.09375 -1.84375 3.484375 -3.671875q1.390625 -1.828125 2.078125 -4.0625q0.703125 -2.234375 0.703125 -5.28125zm53.11917 -2.703125l0 2.125l-25.578125 0l0 -2.125l25.578125 0zm0 5.5625l0 2.140625l-25.578125 0l0 -2.140625l25.578125 0zm-4.1875 -10.640625l7.96875 8.921875l-7.96875 8.9375l-1.828125 -1.5625l1.84375 -2.015625q0.328125 -0.40625 0.734375 -0.765625q0.40625 -0.359375 1.0625 -0.734375l1.515625 -2.140625l1.5625 -1.71875l-1.5625 -1.71875l-1.515625 -2.125q-0.65625 -0.375 -1.0625 -0.765625q-0.40625 -0.390625 -0.734375 -0.765625l-1.84375 -2.0l1.828125 -1.546875zm33.928406 7.78125q0 3.046875 0.6875 5.28125q0.703125 2.234375 2.09375 4.0625q1.390625 1.828125 3.5 3.671875l-1.296875 1.359375q-2.375 -1.953125 -4.078125 -4.0q-1.6875 -2.03125 -2.59375 -4.53125q-0.890625 -2.515625 -0.890625 -5.84375q0 -3.34375 0.890625 -5.84375q0.90625 -2.515625 2.59375 -4.546875q1.703125 -2.046875 4.078125 -3.984375l1.296875 1.359375q-1.59375 1.40625 -2.78125 2.765625q-1.171875 1.34375 -1.953125 2.84375q-0.765625 1.484375 -1.15625 3.296875q-0.390625 1.8125 -0.390625 4.109375zm24.596985 -14.234375l0 1.9375q-1.0625 0 -1.9375 0.21875q-0.875 0.203125 -1.359375 0.71875q-0.46875 0.515625 -0.390625 1.40625l0.609375 6.015625q0.140625 1.21875 -0.140625 2.03125q-0.28125 0.8125 -0.9375 1.265625q-0.640625 0.453125 -1.65625 0.640625q1.03125 0.171875 1.6875 0.609375q0.65625 0.4375 0.921875 1.234375q0.265625 0.796875 0.125 2.109375l-0.609375 6.0q-0.078125 0.90625 0.390625 1.421875q0.46875 0.515625 1.34375 0.71875q0.890625 0.203125 1.953125 0.203125l0 1.9375q-1.21875 0 -2.359375 -0.21875q-1.125 -0.203125 -2.0 -0.71875q-0.859375 -0.515625 -1.296875 -1.40625q-0.4375 -0.875 -0.296875 -2.21875l0.59375 -5.578125q0.109375 -1.015625 -0.1875 -1.703125q-0.296875 -0.6875 -1.296875 -1.046875q-0.984375 -0.359375 -2.9375 -0.359375l0 -1.96875q1.953125 0 2.9375 -0.34375q1.0 -0.359375 1.296875 -1.046875q0.296875 -0.6875 0.1875 -1.6875l-0.59375 -5.59375q-0.140625 -1.359375 0.296875 -2.234375q0.4375 -0.890625 1.296875 -1.40625q0.859375 -0.515625 2.0 -0.71875q1.140625 -0.21875 2.359375 -0.21875zm8.722046 0q1.234375 0 2.359375 0.21875q1.125 0.203125 1.984375 0.71875q0.875 0.515625 1.3125 1.40625q0.453125 0.875 0.296875 2.234375l-0.59375 5.59375q-0.109375 1.0 0.265625 1.6875q0.375 0.6875 1.359375 1.046875q1.0 0.34375 2.8125 0.34375l0 1.96875q-1.796875 0 -2.796875 0.359375q-1.0 0.359375 -1.375 1.046875q-0.375 0.6875 -0.265625 1.703125l0.59375 5.578125q0.140625 1.34375 -0.296875 2.21875q-0.4375 0.890625 -1.296875 1.40625q-0.859375 0.515625 -2.0 0.71875q-1.125 0.21875 -2.359375 0.21875l0 -1.9375q1.0625 0 1.9375 -0.203125q0.875 -0.203125 1.359375 -0.71875q0.484375 -0.515625 0.390625 -1.421875l-0.609375 -6.0q-0.140625 -1.3125 0.140625 -2.109375q0.28125 -0.796875 1.0 -1.21875q0.734375 -0.4375 1.921875 -0.59375q-1.140625 -0.1875 -1.875 -0.65625q-0.71875 -0.46875 -1.015625 -1.28125q-0.296875 -0.8125 -0.171875 -2.03125l0.609375 -6.015625q0.09375 -0.890625 -0.390625 -1.40625q-0.484375 -0.515625 -1.359375 -0.71875q-0.859375 -0.21875 -1.9375 -0.21875l0 -1.9375zm24.596985 14.234375q0 -2.296875 -0.390625 -4.109375q-0.375 -1.8125 -1.15625 -3.296875q-0.78125 -1.5 -1.96875 -2.84375q-1.171875 -1.359375 -2.75 -2.765625l1.28125 -1.359375q2.390625 1.9375 4.078125 3.984375q1.6875 2.03125 2.59375 4.546875q0.90625 2.5 0.90625 5.84375q0 3.328125 -0.90625 5.84375q-0.90625 2.5 -2.59375 4.53125q-1.6875 2.046875 -4.078125 4.0l-1.28125 -1.359375q2.09375 -1.84375 3.484375 -3.671875q1.390625 -1.828125 2.078125 -4.0625q0.703125 -2.234375 0.703125 -5.28125z" fill-rule="nonzero"/><path fill="#000000" fill-opacity="0.0" d="m191.99998 280.14523l576.0 0l0 54.4252l-576.0 0z" fill-rule="evenodd"/><path fill="#000000" d="m371.01 321.40845l0 -27.3125l7.359375 0l0 2.125l-5.015625 0l0 23.09375l5.015625 0l0 2.09375l-7.359375 0zm25.440765 -27.890625l0 1.9375q-1.0625 0 -1.9375 0.21875q-0.875 0.203125 -1.359375 0.71875q-0.46875 0.515625 -0.390625 1.40625l0.609375 6.015625q0.140625 1.21875 -0.140625 2.03125q-0.28125 0.8125 -0.9375 1.265625q-0.640625 0.453125 -1.65625 0.640625q1.03125 0.171875 1.6875 0.609375q0.65625 0.4375 0.921875 1.234375q0.265625 0.796875 0.125 2.109375l-0.609375 6.0q-0.078125 0.90625 0.390625 1.421875q0.46875 0.515625 1.34375 0.71875q0.890625 0.203125 1.953125 0.203125l0 1.9375q-1.21875 0 -2.359375 -0.21875q-1.125 -0.203125 -2.0 -0.71875q-0.859375 -0.515625 -1.296875 -1.40625q-0.4375 -0.875 -0.296875 -2.21875l0.59375 -5.578125q0.109375 -1.015625 -0.1875 -1.703125q-0.296875 -0.6875 -1.296875 -1.046875q-0.984375 -0.359375 -2.9375 -0.359375l0 -1.96875q1.953125 0 2.9375 -0.34375q1.0 -0.359375 1.296875 -1.046875q0.296875 -0.6875 0.1875 -1.6875l-0.59375 -5.59375q-0.140625 -1.359375 0.296875 -2.234375q0.4375 -0.890625 1.296875 -1.40625q0.859375 -0.515625 2.0 -0.71875q1.140625 -0.21875 2.359375 -0.21875zm8.722015 0q1.234375 0 2.359375 0.21875q1.125 0.203125 1.984375 0.71875q0.875 0.515625 1.3125 1.40625q0.453125 0.875 0.296875 2.234375l-0.59375 5.59375q-0.109375 1.0 0.265625 1.6875q0.375 0.6875 1.359375 1.046875q1.0 0.34375 2.8125 0.34375l0 1.96875q-1.796875 0 -2.796875 0.359375q-1.0 0.359375 -1.375 1.046875q-0.375 0.6875 -0.265625 1.703125l0.59375 5.578125q0.140625 1.34375 -0.296875 2.21875q-0.4375 0.890625 -1.296875 1.40625q-0.859375 0.515625 -2.0 0.71875q-1.125 0.21875 -2.359375 0.21875l0 -1.9375q1.0625 0 1.9375 -0.203125q0.875 -0.203125 1.359375 -0.71875q0.484375 -0.515625 0.390625 -1.421875l-0.609375 -6.0q-0.140625 -1.3125 0.140625 -2.109375q0.28125 -0.796875 1.0 -1.21875q0.734375 -0.4375 1.921875 -0.59375q-1.140625 -0.1875 -1.875 -0.65625q-0.71875 -0.46875 -1.015625 -1.28125q-0.296875 -0.8125 -0.171875 -2.03125l0.609375 -6.015625q0.09375 -0.890625 -0.390625 -1.40625q-0.484375 -0.515625 -1.359375 -0.71875q-0.859375 -0.21875 -1.9375 -0.21875l0 -1.9375zm22.034515 19.671875q1.015625 0 1.6875 0.6875q0.6875 0.6875 0.6875 1.65625q0 0.53125 -0.125 1.078125q-0.125 0.546875 -0.4375 1.234375l-2.375 5.4375l-2.234375 0l1.40625 -5.796875q-0.4375 -0.3125 -0.703125 -0.828125q-0.25 -0.53125 -0.25 -1.125q0 -0.96875 0.671875 -1.65625q0.671875 -0.6875 1.671875 -0.6875zm39.63156 -19.671875l0 1.9375q-1.0625 0 -1.9375 0.21875q-0.875 0.203125 -1.359375 0.71875q-0.46875 0.515625 -0.390625 1.40625l0.609375 6.015625q0.140625 1.21875 -0.140625 2.03125q-0.28125 0.8125 -0.9375 1.265625q-0.640625 0.453125 -1.65625 0.640625q1.03125 0.171875 1.6875 0.609375q0.65625 0.4375 0.921875 1.234375q0.265625 0.796875 0.125 2.109375l-0.609375 6.0q-0.078125 0.90625 0.390625 1.421875q0.46875 0.515625 1.34375 0.71875q0.890625 0.203125 1.953125 0.203125l0 1.9375q-1.21875 0 -2.359375 -0.21875q-1.125 -0.203125 -2.0 -0.71875q-0.859375 -0.515625 -1.296875 -1.40625q-0.4375 -0.875 -0.296875 -2.21875l0.59375 -5.578125q0.109375 -1.015625 -0.1875 -1.703125q-0.296875 -0.6875 -1.296875 -1.046875q-0.984375 -0.359375 -2.9375 -0.359375l0 -1.96875q1.953125 0 2.9375 -0.34375q1.0 -0.359375 1.296875 -1.046875q0.296875 -0.6875 0.1875 -1.6875l-0.59375 -5.59375q-0.140625 -1.359375 0.296875 -2.234375q0.4375 -0.890625 1.296875 -1.40625q0.859375 -0.515625 2.0 -0.71875q1.140625 -0.21875 2.359375 -0.21875zm8.721985 0q1.234375 0 2.359375 0.21875q1.125 0.203125 1.984375 0.71875q0.875 0.515625 1.3125 1.40625q0.453125 0.875 0.296875 2.234375l-0.59375 5.59375q-0.109375 1.0 0.265625 1.6875q0.375 0.6875 1.359375 1.046875q1.0 0.34375 2.8125 0.34375l0 1.96875q-1.796875 0 -2.796875 0.359375q-1.0 0.359375 -1.375 1.046875q-0.375 0.6875 -0.265625 1.703125l0.59375 5.578125q0.140625 1.34375 -0.296875 2.21875q-0.4375 0.890625 -1.296875 1.40625q-0.859375 0.515625 -2.0 0.71875q-1.125 0.21875 -2.359375 0.21875l0 -1.9375q1.0625 0 1.9375 -0.203125q0.875 -0.203125 1.359375 -0.71875q0.484375 -0.515625 0.390625 -1.421875l-0.609375 -6.0q-0.140625 -1.3125 0.140625 -2.109375q0.28125 -0.796875 1.0 -1.21875q0.734375 -0.4375 1.921875 -0.59375q-1.140625 -0.1875 -1.875 -0.65625q-0.71875 -0.46875 -1.015625 -1.28125q-0.296875 -0.8125 -0.171875 -2.03125l0.609375 -6.015625q0.09375 -0.890625 -0.390625 -1.40625q-0.484375 -0.515625 -1.359375 -0.71875q-0.859375 -0.21875 -1.9375 -0.21875l0 -1.9375zm22.034546 19.671875q1.015625 0 1.6875 0.6875q0.6875 0.6875 0.6875 1.65625q0 0.53125 -0.125 1.078125q-0.125 0.546875 -0.4375 1.234375l-2.375 5.4375l-2.234375 0l1.40625 -5.796875q-0.4375 -0.3125 -0.703125 -0.828125q-0.25 -0.53125 -0.25 -1.125q0 -0.96875 0.671875 -1.65625q0.671875 -0.6875 1.671875 -0.6875zm49.79431 2.5625q0 -0.71875 0.34375 -1.296875q0.328125 -0.578125 0.90625 -0.921875q0.578125 -0.34375 1.3125 -0.34375q0.75 0 1.34375 0.34375q0.578125 0.34375 0.921875 0.921875q0.328125 0.578125 0.328125 1.296875q0 0.71875 -0.328125 1.3125q-0.34375 0.59375 -0.921875 0.953125q-0.59375 0.34375 -1.34375 0.34375q-0.734375 0 -1.3125 -0.34375q-0.578125 -0.359375 -0.90625 -0.953125q-0.34375 -0.59375 -0.34375 -1.3125zm12.0 0q0 -0.71875 0.328125 -1.296875q0.34375 -0.578125 0.921875 -0.921875q0.578125 -0.34375 1.3125 -0.34375q0.75 0 1.328125 0.34375q0.59375 0.34375 0.921875 0.921875q0.34375 0.578125 0.34375 1.296875q0 0.71875 -0.34375 1.3125q-0.328125 0.59375 -0.921875 0.953125q-0.578125 0.34375 -1.328125 0.34375q-0.734375 0 -1.3125 -0.34375q-0.578125 -0.359375 -0.921875 -0.953125q-0.328125 -0.59375 -0.328125 -1.3125zm-23.0 0q0 -0.71875 0.34375 -1.296875q0.328125 -0.578125 0.90625 -0.921875q0.578125 -0.34375 1.3125 -0.34375q0.75 0 1.34375 0.34375q0.578125 0.34375 0.921875 0.921875q0.328125 0.578125 0.328125 1.296875q0 0.71875 -0.328125 1.3125q-0.34375 0.59375 -0.921875 0.953125q-0.59375 0.34375 -1.34375 0.34375q-0.734375 0 -1.3125 -0.34375q-0.578125 -0.359375 -0.90625 -0.953125q-0.34375 -0.59375 -0.34375 -1.3125zm52.596985 -21.65625l0 27.3125l-7.34375 0l0 -2.078125l5.015625 0l0 -23.109375l-5.015625 0l0 -2.125l7.34375 0z" fill-rule="nonzero"/><path fill="#000000" fill-opacity="0.0" d="m191.99998 354.8622l576.0 0l0 54.4252l-576.0 0z" fill-rule="evenodd"/><path fill="#000000" d="m319.0627 382.46918q0 3.046875 0.6875 5.28125q0.703125 2.234375 2.09375 4.0625q1.390625 1.828125 3.5 3.671875l-1.296875 1.359375q-2.375 -1.953125 -4.078125 -4.0q-1.6875 -2.03125 -2.59375 -4.53125q-0.890625 -2.515625 -0.890625 -5.84375q0 -3.34375 0.890625 -5.84375q0.90625 -2.515625 2.59375 -4.546875q1.703125 -2.046875 4.078125 -3.984375l1.296875 1.359375q-1.59375 1.40625 -2.78125 2.765625q-1.171875 1.34375 -1.953125 2.84375q-0.765625 1.484375 -1.15625 3.296875q-0.390625 1.8125 -0.390625 4.109375zm22.722015 0q0 -2.296875 -0.390625 -4.109375q-0.375 -1.8125 -1.15625 -3.296875q-0.78125 -1.5 -1.96875 -2.84375q-1.171875 -1.359375 -2.75 -2.765625l1.28125 -1.359375q2.390625 1.9375 4.078125 3.984375q1.6875 2.03125 2.59375 4.546875q0.90625 2.5 0.90625 5.84375q0 3.328125 -0.90625 5.84375q-0.90625 2.5 -2.59375 4.53125q-1.6875 2.046875 -4.078125 4.0l-1.28125 -1.359375q2.09375 -1.84375 3.484375 -3.671875q1.390625 -1.828125 2.078125 -4.0625q0.703125 -2.234375 0.703125 -5.28125zm53.11917 -2.703125l0 2.125l-25.578125 0l0 -2.125l25.578125 0zm0 5.5625l0 2.140625l-25.578125 0l0 -2.140625l25.578125 0zm-4.1875 -10.640625l7.96875 8.921875l-7.96875 8.9375l-1.828125 -1.5625l1.84375 -2.015625q0.328125 -0.40625 0.734375 -0.765625q0.40625 -0.359375 1.0625 -0.734375l1.515625 -2.140625l1.5625 -1.71875l-1.5625 -1.71875l-1.515625 -2.125q-0.65625 -0.375 -1.0625 -0.765625q-0.40625 -0.390625 -0.734375 -0.765625l-1.84375 -2.0l1.828125 -1.546875zm33.084656 21.4375l0 -27.3125l7.359375 0l0 2.125l-5.015625 0l0 23.09375l5.015625 0l0 2.09375l-7.359375 0zm25.440765 -27.890625l0 1.9375q-1.0625 0 -1.9375 0.21875q-0.875 0.203125 -1.359375 0.71875q-0.46875 0.515625 -0.390625 1.40625l0.609375 6.015625q0.140625 1.21875 -0.140625 2.03125q-0.28125 0.8125 -0.9375 1.265625q-0.640625 0.453125 -1.65625 0.640625q1.03125 0.171875 1.6875 0.609375q0.65625 0.4375 0.921875 1.234375q0.265625 0.796875 0.125 2.109375l-0.609375 6.0q-0.078125 0.90625 0.390625 1.421875q0.46875 0.515625 1.34375 0.71875q0.890625 0.203125 1.953125 0.203125l0 1.9375q-1.21875 0 -2.359375 -0.21875q-1.125 -0.203125 -2.0 -0.71875q-0.859375 -0.515625 -1.296875 -1.40625q-0.4375 -0.875 -0.296875 -2.21875l0.59375 -5.578125q0.109375 -1.015625 -0.1875 -1.703125q-0.296875 -0.6875 -1.296875 -1.046875q-0.984375 -0.359375 -2.9375 -0.359375l0 -1.96875q1.953125 0 2.9375 -0.34375q1.0 -0.359375 1.296875 -1.046875q0.296875 -0.6875 0.1875 -1.6875l-0.59375 -5.59375q-0.140625 -1.359375 0.296875 -2.234375q0.4375 -0.890625 1.296875 -1.40625q0.859375 -0.515625 2.0 -0.71875q1.140625 -0.21875 2.359375 -0.21875zm8.722046 0q1.234375 0 2.359375 0.21875q1.125 0.203125 1.984375 0.71875q0.875 0.515625 1.3125 1.40625q0.453125 0.875 0.296875 2.234375l-0.59375 5.59375q-0.109375 1.0 0.265625 1.6875q0.375 0.6875 1.359375 1.046875q1.0 0.34375 2.8125 0.34375l0 1.96875q-1.796875 0 -2.796875 0.359375q-1.0 0.359375 -1.375 1.046875q-0.375 0.6875 -0.265625 1.703125l0.59375 5.578125q0.140625 1.34375 -0.296875 2.21875q-0.4375 0.890625 -1.296875 1.40625q-0.859375 0.515625 -2.0 0.71875q-1.125 0.21875 -2.359375 0.21875l0 -1.9375q1.0625 0 1.9375 -0.203125q0.875 -0.203125 1.359375 -0.71875q0.484375 -0.515625 0.390625 -1.421875l-0.609375 -6.0q-0.140625 -1.3125 0.140625 -2.109375q0.28125 -0.796875 1.0 -1.21875q0.734375 -0.4375 1.921875 -0.59375q-1.140625 -0.1875 -1.875 -0.65625q-0.71875 -0.46875 -1.015625 -1.28125q-0.296875 -0.8125 -0.171875 -2.03125l0.609375 -6.015625q0.09375 -0.890625 -0.390625 -1.40625q-0.484375 -0.515625 -1.359375 -0.71875q-0.859375 -0.21875 -1.9375 -0.21875l0 -1.9375zm22.034485 19.671875q1.015625 0 1.6875 0.6875q0.6875 0.6875 0.6875 1.65625q0 0.53125 -0.125 1.078125q-0.125 0.546875 -0.4375 1.234375l-2.375 5.4375l-2.234375 0l1.40625 -5.796875q-0.4375 -0.3125 -0.703125 -0.828125q-0.25 -0.53125 -0.25 -1.125q0 -0.96875 0.671875 -1.65625q0.671875 -0.6875 1.671875 -0.6875zm39.63153 -19.671875l0 1.9375q-1.0625 0 -1.9375 0.21875q-0.875 0.203125 -1.359375 0.71875q-0.46875 0.515625 -0.390625 1.40625l0.609375 6.015625q0.140625 1.21875 -0.140625 2.03125q-0.28125 0.8125 -0.9375 1.265625q-0.640625 0.453125 -1.65625 0.640625q1.03125 0.171875 1.6875 0.609375q0.65625 0.4375 0.921875 1.234375q0.265625 0.796875 0.125 2.109375l-0.609375 6.0q-0.078125 0.90625 0.390625 1.421875q0.46875 0.515625 1.34375 0.71875q0.890625 0.203125 1.953125 0.203125l0 1.9375q-1.21875 0 -2.359375 -0.21875q-1.125 -0.203125 -2.0 -0.71875q-0.859375 -0.515625 -1.296875 -1.40625q-0.4375 -0.875 -0.296875 -2.21875l0.59375 -5.578125q0.109375 -1.015625 -0.1875 -1.703125q-0.296875 -0.6875 -1.296875 -1.046875q-0.984375 -0.359375 -2.9375 -0.359375l0 -1.96875q1.953125 0 2.9375 -0.34375q1.0 -0.359375 1.296875 -1.046875q0.296875 -0.6875 0.1875 -1.6875l-0.59375 -5.59375q-0.140625 -1.359375 0.296875 -2.234375q0.4375 -0.890625 1.296875 -1.40625q0.859375 -0.515625 2.0 -0.71875q1.140625 -0.21875 2.359375 -0.21875zm8.722046 0q1.234375 0 2.359375 0.21875q1.125 0.203125 1.984375 0.71875q0.875 0.515625 1.3125 1.40625q0.453125 0.875 0.296875 2.234375l-0.59375 5.59375q-0.109375 1.0 0.265625 1.6875q0.375 0.6875 1.359375 1.046875q1.0 0.34375 2.8125 0.34375l0 1.96875q-1.796875 0 -2.796875 0.359375q-1.0 0.359375 -1.375 1.046875q-0.375 0.6875 -0.265625 1.703125l0.59375 5.578125q0.140625 1.34375 -0.296875 2.21875q-0.4375 0.890625 -1.296875 1.40625q-0.859375 0.515625 -2.0 0.71875q-1.125 0.21875 -2.359375 0.21875l0 -1.9375q1.0625 0 1.9375 -0.203125q0.875 -0.203125 1.359375 -0.71875q0.484375 -0.515625 0.390625 -1.421875l-0.609375 -6.0q-0.140625 -1.3125 0.140625 -2.109375q0.28125 -0.796875 1.0 -1.21875q0.734375 -0.4375 1.921875 -0.59375q-1.140625 -0.1875 -1.875 -0.65625q-0.71875 -0.46875 -1.015625 -1.28125q-0.296875 -0.8125 -0.171875 -2.03125l0.609375 -6.015625q0.09375 -0.890625 -0.390625 -1.40625q-0.484375 -0.515625 -1.359375 -0.71875q-0.859375 -0.21875 -1.9375 -0.21875l0 -1.9375zm22.034485 19.671875q1.015625 0 1.6875 0.6875q0.6875 0.6875 0.6875 1.65625q0 0.53125 -0.125 1.078125q-0.125 0.546875 -0.4375 1.234375l-2.375 5.4375l-2.234375 0l1.40625 -5.796875q-0.4375 -0.3125 -0.703125 -0.828125q-0.25 -0.53125 -0.25 -1.125q0 -0.96875 0.671875 -1.65625q0.671875 -0.6875 1.671875 -0.6875zm49.79431 2.5625q0 -0.71875 0.34375 -1.296875q0.328125 -0.578125 0.90625 -0.921875q0.578125 -0.34375 1.3125 -0.34375q0.75 0 1.34375 0.34375q0.578125 0.34375 0.921875 0.921875q0.328125 0.578125 0.328125 1.296875q0 0.71875 -0.328125 1.3125q-0.34375 0.59375 -0.921875 0.953125q-0.59375 0.34375 -1.34375 0.34375q-0.734375 0 -1.3125 -0.34375q-0.578125 -0.359375 -0.90625 -0.953125q-0.34375 -0.59375 -0.34375 -1.3125zm12.0 0q0 -0.71875 0.328125 -1.296875q0.34375 -0.578125 0.921875 -0.921875q0.578125 -0.34375 1.3125 -0.34375q0.75 0 1.328125 0.34375q0.59375 0.34375 0.921875 0.921875q0.34375 0.578125 0.34375 1.296875q0 0.71875 -0.34375 1.3125q-0.328125 0.59375 -0.921875 0.953125q-0.578125 0.34375 -1.328125 0.34375q-0.734375 0 -1.3125 -0.34375q-0.578125 -0.359375 -0.921875 -0.953125q-0.328125 -0.59375 -0.328125 -1.3125zm-23.0 0q0 -0.71875 0.34375 -1.296875q0.328125 -0.578125 0.90625 -0.921875q0.578125 -0.34375 1.3125 -0.34375q0.75 0 1.34375 0.34375q0.578125 0.34375 0.921875 0.921875q0.328125 0.578125 0.328125 1.296875q0 0.71875 -0.328125 1.3125q-0.34375 0.59375 -0.921875 0.953125q-0.59375 0.34375 -1.34375 0.34375q-0.734375 0 -1.3125 -0.34375q-0.578125 -0.359375 -0.90625 -0.953125q-0.34375 -0.59375 -0.34375 -1.3125zm52.597046 -21.65625l0 27.3125l-7.34375 0l0 -2.078125l5.015625 0l0 -23.109375l-5.015625 0l0 -2.125l7.34375 0z" fill-rule="nonzero"/><path fill="#000000" fill-opacity="0.0" d="m191.99998 55.99475l576.0 0l0 54.425194l-576.0 0z" fill-rule="evenodd"/><path fill="#000000" d="m475.63736 69.36735l0 1.9375q-1.0625 0 -1.9375 0.21875q-0.875 0.203125 -1.359375 0.71875q-0.46875 0.515625 -0.390625 1.40625l0.609375 6.015625q0.140625 1.21875 -0.140625 2.03125q-0.28125 0.8125 -0.9375 1.265625q-0.640625 0.453125 -1.65625 0.640625q1.03125 0.171875 1.6875 0.609375q0.65625 0.4375 0.921875 1.234375q0.265625 0.796875 0.125 2.109375l-0.609375 6.0q-0.078125 0.90625 0.390625 1.421875q0.46875 0.515625 1.34375 0.71875q0.890625 0.203125 1.953125 0.203125l0 1.9375q-1.21875 0 -2.359375 -0.21875q-1.125 -0.203125 -2.0 -0.71875q-0.859375 -0.515625 -1.296875 -1.40625q-0.4375 -0.875 -0.296875 -2.21875l0.59375 -5.578125q0.109375 -1.015625 -0.1875 -1.703125q-0.296875 -0.6875 -1.296875 -1.046875q-0.984375 -0.359375 -2.9375 -0.359375l0 -1.96875q1.953125 0 2.9375 -0.34375q1.0 -0.359375 1.296875 -1.046875q0.296875 -0.6875 0.1875 -1.6875l-0.59375 -5.59375q-0.140625 -1.359375 0.296875 -2.234375q0.4375 -0.890625 1.296875 -1.40625q0.859375 -0.515625 2.0 -0.71875q1.140625 -0.21875 2.359375 -0.21875zm8.722015 0q1.234375 0 2.359375 0.21875q1.125 0.203125 1.984375 0.71875q0.875 0.515625 1.3125 1.40625q0.453125 0.875 0.296875 2.234375l-0.59375 5.59375q-0.109375 1.0 0.265625 1.6875q0.375 0.6875 1.359375 1.046875q1.0 0.34375 2.8125 0.34375l0 1.96875q-1.796875 0 -2.796875 0.359375q-1.0 0.359375 -1.375 1.046875q-0.375 0.6875 -0.265625 1.703125l0.59375 5.578125q0.140625 1.34375 -0.296875 2.21875q-0.4375 0.890625 -1.296875 1.40625q-0.859375 0.515625 -2.0 0.71875q-1.125 0.21875 -2.359375 0.21875l0 -1.9375q1.0625 0 1.9375 -0.203125q0.875 -0.203125 1.359375 -0.71875q0.484375 -0.515625 0.390625 -1.421875l-0.609375 -6.0q-0.140625 -1.3125 0.140625 -2.109375q0.28125 -0.796875 1.0 -1.21875q0.734375 -0.4375 1.921875 -0.59375q-1.140625 -0.1875 -1.875 -0.65625q-0.71875 -0.46875 -1.015625 -1.28125q-0.296875 -0.8125 -0.171875 -2.03125l0.609375 -6.015625q0.09375 -0.890625 -0.390625 -1.40625q-0.484375 -0.515625 -1.359375 -0.71875q-0.859375 -0.21875 -1.9375 -0.21875l0 -1.9375z" fill-rule="nonzero"/></g></svg>