<svg version="1.1" viewBox="0.0 0.0 960.0 540.0" fill="none" stroke="none" stroke-linecap="square" stroke-miterlimit="10" xmlns:xlink="http://www.w3.org/1999/xlink" xmlns="http://www.w3.org/2000/svg"><clipPath id="g76cad55604_0_261.0"><path d="m0 0l960.0 0l0 540.0l-960.0 0l0 -540.0z" clip-rule="nonzero"/></clipPath><g clip-path="url(#g76cad55604_0_261.0)"><path fill="#ffffff" d="m0 0l960.0 0l0 540.0l-960.0 0z" fill-rule="evenodd"/><path fill="#cccccc" d="m558.90186 253.70456l16.314941 16.314941l-16.314941 16.314972l0 -8.157471l-47.370087 0l0 -16.314972l47.370087 0z" fill-rule="evenodd"/><path fill="#000000" fill-opacity="0.0" d="m276.0069 234.83464l235.18109 0l0 70.3307l-235.18109 0z" fill-rule="evenodd"/><path stroke="#666666" stroke-width="1.0" stroke-linejoin="round" stroke-linecap="butt" d="m276.0069 234.83464l235.18109 0l0 70.3307l-235.18109 0z" fill-rule="evenodd"/><path fill="#000000" d="m318.69867 263.92313q3.359375 0 5.5625 1.796875q2.21875 1.796875 2.734375 4.796875l-3.078125 0q-0.3125 -1.890625 -1.75 -2.953125q-1.421875 -1.078125 -3.53125 -1.078125q-1.53125 0 -2.796875 0.703125q-1.265625 0.703125 -2.03125 2.171875q-0.765625 1.453125 -0.765625 3.59375q0 2.140625 0.765625 3.59375q0.765625 1.453125 2.03125 2.171875q1.265625 0.703125 2.796875 0.703125q2.109375 0 3.53125 -1.09375q1.4375 -1.09375 1.75 -2.984375l3.078125 0q-0.515625 3.046875 -2.734375 4.828125q-2.203125 1.765625 -5.5625 1.765625q-2.53125 0 -4.484375 -1.078125q-1.9375 -1.09375 -3.046875 -3.125q-1.109375 -2.03125 -1.109375 -4.78125q0 -2.75 1.109375 -4.796875q1.109375 -2.046875 3.046875 -3.140625q1.953125 -1.09375 4.484375 -1.09375zm20.05954 0q2.53125 0 4.53125 1.09375q2.0 1.09375 3.140625 3.140625q1.140625 2.046875 1.140625 4.796875q0 2.75 -1.140625 4.78125q-1.140625 2.03125 -3.140625 3.125q-2.0 1.078125 -4.53125 1.078125q-2.515625 0 -4.515625 -1.078125q-2.0 -1.09375 -3.15625 -3.125q-1.15625 -2.03125 -1.15625 -4.78125q0 -2.75 1.15625 -4.796875q1.15625 -2.046875 3.15625 -3.140625q2.0 -1.09375 4.515625 -1.09375zm0 2.5625q-1.5625 0 -2.890625 0.703125q-1.328125 0.703125 -2.140625 2.171875q-0.8125 1.453125 -0.8125 3.59375q0 2.109375 0.8125 3.5625q0.8125 1.453125 2.140625 2.15625q1.328125 0.703125 2.890625 0.703125q1.578125 0 2.90625 -0.703125q1.328125 -0.703125 2.140625 -2.15625q0.8125 -1.453125 0.8125 -3.5625q0 -2.140625 -0.8125 -3.59375q-0.8125 -1.46875 -2.140625 -2.171875q-1.328125 -0.703125 -2.90625 -0.703125zm34.216644 -2.625q3.078125 0 4.9375 1.96875q1.875 1.96875 1.875 5.6875l0 10.203125l-2.90625 0l0 -9.953125q0 -2.59375 -1.265625 -3.96875q-1.265625 -1.375 -3.46875 -1.375q-2.3125 0 -3.703125 1.53125q-1.390625 1.515625 -1.390625 4.453125l0 9.3125l-2.90625 0l0 -9.953125q0 -2.59375 -1.28125 -3.96875q-1.28125 -1.375 -3.453125 -1.375q-2.34375 0 -3.734375 1.53125q-1.390625 1.515625 -1.390625 4.453125l0 9.3125l-2.90625 0l0 -17.5625l2.90625 0l0 4.0q0.640625 -2.078125 2.28125 -3.1875q1.65625 -1.109375 3.796875 -1.109375q2.234375 0 3.875 1.140625q1.65625 1.140625 2.359375 3.34375q0.734375 -2.140625 2.46875 -3.3125q1.734375 -1.171875 3.90625 -1.171875zm32.92807 0q3.078125 0 4.9375 1.96875q1.875 1.96875 1.875 5.6875l0 10.203125l-2.90625 0l0 -9.953125q0 -2.59375 -1.265625 -3.96875q-1.265625 -1.375 -3.46875 -1.375q-2.3125 0 -3.703125 1.53125q-1.390625 1.515625 -1.390625 4.453125l0 9.3125l-2.90625 0l0 -9.953125q0 -2.59375 -1.28125 -3.96875q-1.28125 -1.375 -3.453125 -1.375q-2.34375 0 -3.734375 1.53125q-1.390625 1.515625 -1.390625 4.453125l0 9.3125l-2.90625 0l0 -17.5625l2.90625 0l0 4.0q0.640625 -2.078125 2.28125 -3.1875q1.65625 -1.109375 3.796875 -1.109375q2.234375 0 3.875 1.140625q1.65625 1.140625 2.359375 3.34375q0.734375 -2.140625 2.46875 -3.3125q1.734375 -1.171875 3.90625 -1.171875zm18.52182 0.0625q2.5625 0 4.328125 1.28125q1.78125 1.28125 2.5 3.421875l0 -4.46875l2.90625 0l0 17.5625l-2.90625 0l0 -4.484375q-0.71875 2.140625 -2.5 3.421875q-1.765625 1.28125 -4.328125 1.28125q-2.328125 0 -4.15625 -1.078125q-1.828125 -1.09375 -2.875 -3.125q-1.03125 -2.03125 -1.03125 -4.78125q0 -2.75 1.03125 -4.796875q1.046875 -2.046875 2.875 -3.140625q1.828125 -1.09375 4.15625 -1.09375zm0.84375 2.59375q-2.6875 0 -4.3125 1.71875q-1.609375 1.703125 -1.609375 4.71875q0 3.0 1.609375 4.71875q1.625 1.703125 4.3125 1.703125q1.71875 0 3.078125 -0.796875q1.359375 -0.796875 2.125 -2.25q0.78125 -1.453125 0.78125 -3.375q0 -1.921875 -0.78125 -3.390625q-0.765625 -1.46875 -2.125 -2.25q-1.359375 -0.796875 -3.078125 -0.796875zm22.77118 -2.65625q3.078125 0 4.96875 1.96875q1.890625 1.96875 1.890625 5.6875l0 10.203125l-2.921875 0l0 -9.953125q0 -2.625 -1.34375 -4.03125q-1.34375 -1.40625 -3.640625 -1.40625q-2.40625 0 -3.84375 1.5625q-1.4375 1.546875 -1.4375 4.515625l0 9.3125l-2.90625 0l0 -17.5625l2.90625 0l0 4.15625q0.671875 -2.140625 2.375 -3.296875q1.71875 -1.15625 3.953125 -1.15625zm18.529144 0.0625q2.5625 0 4.328125 1.28125q1.78125 1.28125 2.5 3.421875l0 -10.59375l2.90625 0l0 23.6875l-2.90625 0l0 -4.484375q-0.71875 2.140625 -2.5 3.421875q-1.765625 1.28125 -4.328125 1.28125q-2.328125 0 -4.15625 -1.078125q-1.828125 -1.09375 -2.875 -3.125q-1.03125 -2.03125 -1.03125 -4.78125q0 -2.75 1.03125 -4.796875q1.046875 -2.046875 2.875 -3.140625q1.828125 -1.09375 4.15625 -1.09375zm0.84375 2.59375q-2.6875 0 -4.3125 1.71875q-1.609375 1.703125 -1.609375 4.71875q0 3.0 1.609375 4.71875q1.625 1.703125 4.3125 1.703125q1.71875 0 3.078125 -0.796875q1.359375 -0.796875 2.125 -2.25q0.78125 -1.453125 0.78125 -3.375q0 -1.921875 -0.78125 -3.390625q-0.765625 -1.46875 -2.125 -2.25q-1.359375 -0.796875 -3.078125 -0.796875z" fill-rule="nonzero"/><path fill="#000000" fill-opacity="0.0" d="m575.5672 234.83464l129.51178 0l0 70.3307l-129.51178 0z" fill-rule="evenodd"/><path stroke="#666666" stroke-width="1.0" stroke-linejoin="round" stroke-linecap="butt" d="m575.5672 234.83464l129.51178 0l0 70.3307l-129.51178 0z" fill-rule="evenodd"/><path fill="#000000" d="m607.51074 263.92313q2.96875 0 4.78125 1.5625q1.8125 1.546875 2.1875 4.171875l-2.78125 0q-0.1875 -1.5625 -1.296875 -2.5625q-1.109375 -1.015625 -2.953125 -1.015625q-1.578125 0 -2.453125 0.75q-0.875 0.75 -0.875 2.03125q0 0.953125 0.578125 1.546875q0.59375 0.59375 1.46875 0.90625q0.890625 0.296875 2.421875 0.640625q1.953125 0.453125 3.15625 0.921875q1.203125 0.453125 2.046875 1.484375q0.84375 1.015625 0.84375 2.75q0 2.140625 -1.609375 3.484375q-1.609375 1.34375 -4.296875 1.34375q-3.140625 0 -5.125 -1.5q-1.984375 -1.5 -2.34375 -4.1875l2.828125 0q0.15625 1.59375 1.390625 2.59375q1.234375 0.984375 3.25 0.984375q1.5 0 2.34375 -0.765625q0.84375 -0.765625 0.84375 -2.015625q0 -1.03125 -0.609375 -1.625q-0.59375 -0.609375 -1.5 -0.921875q-0.890625 -0.328125 -2.453125 -0.6875q-1.953125 -0.453125 -3.125 -0.890625q-1.171875 -0.453125 -1.984375 -1.421875q-0.8125 -0.984375 -0.8125 -2.640625q0 -2.21875 1.625 -3.578125q1.640625 -1.359375 4.453125 -1.359375zm19.419067 15.234375l0 2.5625l-2.171875 0q-2.6875 0 -4.015625 -1.28125q-1.328125 -1.28125 -1.328125 -4.28125l0 -9.484375l-2.625 0l0 -2.515625l2.625 0l0 -4.390625l2.9375 0l0 4.390625l4.546875 0l0 2.515625l-4.546875 0l0 9.546875q0 1.6875 0.625 2.3125q0.625 0.625 2.15625 0.625l1.796875 0zm11.514099 -15.234375q2.53125 0 4.53125 1.09375q2.0 1.09375 3.140625 3.140625q1.140625 2.046875 1.140625 4.796875q0 2.75 -1.140625 4.78125q-1.140625 2.03125 -3.140625 3.125q-2.0 1.078125 -4.53125 1.078125q-2.515625 0 -4.515625 -1.078125q-2.0 -1.09375 -3.15625 -3.125q-1.15625 -2.03125 -1.15625 -4.78125q0 -2.75 1.15625 -4.796875q1.15625 -2.046875 3.15625 -3.140625q2.0 -1.09375 4.515625 -1.09375zm0 2.5625q-1.5625 0 -2.890625 0.703125q-1.328125 0.703125 -2.140625 2.171875q-0.8125 1.453125 -0.8125 3.59375q0 2.109375 0.8125 3.5625q0.8125 1.453125 2.140625 2.15625q1.328125 0.703125 2.890625 0.703125q1.578125 0 2.90625 -0.703125q1.328125 -0.703125 2.140625 -2.15625q0.8125 -1.453125 0.8125 -3.5625q0 -2.140625 -0.8125 -3.59375q-0.8125 -1.46875 -2.140625 -2.171875q-1.328125 -0.703125 -2.90625 -0.703125zm15.529175 1.21875q0.859375 -1.828125 2.515625 -2.828125q1.671875 -1.015625 3.984375 -1.015625l0 3.171875l-0.90625 0q-2.453125 0 -4.03125 1.265625q-1.5625 1.265625 -1.5625 4.171875l0 9.25l-2.90625 0l0 -17.5625l2.90625 0l0 3.546875zm25.538025 4.25q0 0.9375 -0.125 1.609375l-14.0625 0q0.109375 3.0 1.71875 4.515625q1.609375 1.5 3.953125 1.5q2.109375 0 3.53125 -1.0625q1.421875 -1.078125 1.75 -2.875l3.109375 0q-0.328125 1.828125 -1.4375 3.265625q-1.09375 1.4375 -2.859375 2.234375q-1.765625 0.796875 -3.96875 0.796875q-2.53125 0 -4.484375 -1.078125q-1.9375 -1.09375 -3.046875 -3.125q-1.109375 -2.03125 -1.109375 -4.78125q0 -2.75 1.109375 -4.796875q1.109375 -2.046875 3.046875 -3.140625q1.953125 -1.09375 4.484375 -1.09375q2.5625 0 4.46875 1.09375q1.90625 1.09375 2.90625 2.921875q1.015625 1.8125 1.015625 4.015625zm-2.953125 0.203125q0.09375 -1.953125 -0.640625 -3.265625q-0.734375 -1.3125 -2.015625 -1.953125q-1.28125 -0.640625 -2.78125 -0.640625q-2.390625 0 -4.03125 1.484375q-1.625 1.484375 -1.765625 4.375l11.234375 0z" fill-rule="nonzero"/><path fill="#cccccc" d="m752.81494 253.70456l16.314941 16.314941l-16.314941 16.314972l0 -8.157471l-47.370056 0l0 -16.314972l47.370056 0z" fill-rule="evenodd"/><path fill="#000000" fill-opacity="0.0" d="m769.4799 234.83464l73.29132 0l0 70.3307l-73.29132 0z" fill-rule="evenodd"/><path stroke="#666666" stroke-width="1.0" stroke-linejoin="round" stroke-linecap="butt" d="m769.4799 234.83464l73.29132 0l0 70.3307l-73.29132 0z" fill-rule="evenodd"/><path fill="#000000" d="m796.85126 259.1575l0 13.53125q0 3.328125 1.46875 4.921875q1.46875 1.578125 4.0625 1.578125q2.5625 0 4.0 -1.59375q1.4375 -1.609375 1.4375 -4.90625l0 -13.53125l2.90625 0l0 13.53125q0 4.609375 -2.28125 6.9375q-2.28125 2.3125 -6.125 2.3125q-3.8125 0 -6.109375 -2.3125q-2.28125 -2.328125 -2.28125 -6.9375l0 -13.53125l2.921875 0zm21.308289 0l0 22.5625l-2.90625 0l0 -22.5625l2.90625 0z" fill-rule="nonzero"/><path fill="#000000" fill-opacity="0.0" d="m117.229614 234.83464l94.39371 0l0 70.3307l-94.39371 0z" fill-rule="evenodd"/><path stroke="#666666" stroke-width="1.0" stroke-linejoin="round" stroke-linecap="butt" d="m117.229614 234.83464l94.39371 0l0 70.3307l-94.39371 0z" fill-rule="evenodd"/><path fill="#000000" d="m143.10042 267.70438q0.859375 -1.828125 2.515625 -2.828125q1.671875 -1.015625 3.984375 -1.015625l0 3.171875l-0.90625 0q-2.453125 0 -4.03125 1.265625q-1.5625 1.265625 -1.5625 4.171875l0 9.25l-2.90625 0l0 -17.5625l2.90625 0l0 3.546875zm24.99115 -3.546875l0 17.5625l-2.90625 0l0 -4.125q-0.671875 2.140625 -2.390625 3.28125q-1.71875 1.125 -3.984375 1.125q-3.046875 0 -4.9375 -1.953125q-1.875 -1.96875 -1.875 -5.65625l0 -10.234375l2.90625 0l0 9.953125q0 2.625 1.34375 4.046875q1.34375 1.421875 3.65625 1.421875q2.390625 0 3.828125 -1.546875q1.453125 -1.5625 1.453125 -4.53125l0 -9.34375l2.90625 0zm13.91304 -0.296875q3.078125 0 4.96875 1.96875q1.890625 1.96875 1.890625 5.6875l0 10.203125l-2.921875 0l0 -9.953125q0 -2.625 -1.34375 -4.03125q-1.34375 -1.40625 -3.640625 -1.40625q-2.40625 0 -3.84375 1.5625q-1.4375 1.546875 -1.4375 4.515625l0 9.3125l-2.90625 0l0 -17.5625l2.90625 0l0 4.15625q0.671875 -2.140625 2.375 -3.296875q1.71875 -1.15625 3.953125 -1.15625z" fill-rule="nonzero"/><path fill="#cccccc" d="m259.38016 253.70456l16.314941 16.314941l-16.314941 16.314972l0 -8.157471l-47.370087 0l0 -16.314972l47.370087 0z" fill-rule="evenodd"/></g></svg>