<svg version="1.1" viewBox="0.0 0.0 960.0 540.0" fill="none" stroke="none" stroke-linecap="square" stroke-miterlimit="10" xmlns:xlink="http://www.w3.org/1999/xlink" xmlns="http://www.w3.org/2000/svg"><clipPath id="g76cad55604_0_188.0"><path d="m0 0l960.0 0l0 540.0l-960.0 0l0 -540.0z" clip-rule="nonzero"/></clipPath><g clip-path="url(#g76cad55604_0_188.0)"><path fill="#ffffff" d="m0 0l960.0 0l0 540.0l-960.0 0z" fill-rule="evenodd"/><path fill="#cccccc" d="m501.17548 192.05511l12.614197 12.6141815l-12.614197 12.614166l0 -6.307083l-29.748016 0l0 -12.6141815l29.748016 0z" fill-rule="evenodd"/><path fill="#000000" fill-opacity="0.0" d="m238.65881 177.45218l232.53543 0l0 54.425186l-232.53543 0z" fill-rule="evenodd"/><path stroke="#666666" stroke-width="1.0" stroke-linejoin="round" stroke-linecap="butt" d="m238.65881 177.45218l232.53543 0l0 54.425186l-232.53543 0z" fill-rule="evenodd"/><path fill="#000000" d="m280.02774 198.58789q3.359375 0 5.5625 1.796875q2.21875 1.796875 2.734375 4.796875l-3.078125 0q-0.3125 -1.890625 -1.75 -2.953125q-1.421875 -1.078125 -3.53125 -1.078125q-1.53125 0 -2.796875 0.703125q-1.265625 0.703125 -2.03125 2.171875q-0.765625 1.453125 -0.765625 3.59375q0 2.140625 0.765625 3.59375q0.765625 1.453125 2.03125 2.171875q1.265625 0.703125 2.796875 0.703125q2.109375 0 3.53125 -1.09375q1.4375 -1.09375 1.75 -2.984375l3.078125 0q-0.515625 3.046875 -2.734375 4.828125q-2.203125 1.765625 -5.5625 1.765625q-2.53125 0 -4.484375 -1.078125q-1.9375 -1.09375 -3.046875 -3.125q-1.109375 -2.03125 -1.109375 -4.78125q0 -2.75 1.109375 -4.796875q1.109375 -2.046875 3.046875 -3.140625q1.953125 -1.09375 4.484375 -1.09375zm20.05954 0q2.53125 0 4.53125 1.09375q2.0 1.09375 3.140625 3.140625q1.140625 2.046875 1.140625 4.796875q0 2.75 -1.140625 4.78125q-1.140625 2.03125 -3.140625 3.125q-2.0 1.078125 -4.53125 1.078125q-2.515625 0 -4.515625 -1.078125q-2.0 -1.09375 -3.15625 -3.125q-1.15625 -2.03125 -1.15625 -4.78125q0 -2.75 1.15625 -4.796875q1.15625 -2.046875 3.15625 -3.140625q2.0 -1.09375 4.515625 -1.09375zm0 2.5625q-1.5625 0 -2.890625 0.703125q-1.328125 0.703125 -2.140625 2.171875q-0.8125 1.453125 -0.8125 3.59375q0 2.109375 0.8125 3.5625q0.8125 1.453125 2.140625 2.15625q1.328125 0.703125 2.890625 0.703125q1.578125 0 2.90625 -0.703125q1.328125 -0.703125 2.140625 -2.15625q0.8125 -1.453125 0.8125 -3.5625q0 -2.140625 -0.8125 -3.59375q-0.8125 -1.46875 -2.140625 -2.171875q-1.328125 -0.703125 -2.90625 -0.703125zm34.216644 -2.625q3.078125 0 4.9375 1.96875q1.875 1.96875 1.875 5.6875l0 10.203125l-2.90625 0l0 -9.953125q0 -2.59375 -1.265625 -3.96875q-1.265625 -1.375 -3.46875 -1.375q-2.3125 0 -3.703125 1.53125q-1.390625 1.515625 -1.390625 4.453125l0 9.3125l-2.90625 0l0 -9.953125q0 -2.59375 -1.28125 -3.96875q-1.28125 -1.375 -3.453125 -1.375q-2.34375 0 -3.734375 1.53125q-1.390625 1.515625 -1.390625 4.453125l0 9.3125l-2.90625 0l0 -17.5625l2.90625 0l0 4.0q0.640625 -2.078125 2.28125 -3.1875q1.65625 -1.109375 3.796875 -1.109375q2.234375 0 3.875 1.140625q1.65625 1.140625 2.359375 3.34375q0.734375 -2.140625 2.46875 -3.3125q1.734375 -1.171875 3.90625 -1.171875zm32.92807 0q3.078125 0 4.9375 1.96875q1.875 1.96875 1.875 5.6875l0 10.203125l-2.90625 0l0 -9.953125q0 -2.59375 -1.265625 -3.96875q-1.265625 -1.375 -3.46875 -1.375q-2.3125 0 -3.703125 1.53125q-1.390625 1.515625 -1.390625 4.453125l0 9.3125l-2.90625 0l0 -9.953125q0 -2.59375 -1.28125 -3.96875q-1.28125 -1.375 -3.453125 -1.375q-2.34375 0 -3.734375 1.53125q-1.390625 1.515625 -1.390625 4.453125l0 9.3125l-2.90625 0l0 -17.5625l2.90625 0l0 4.0q0.640625 -2.078125 2.28125 -3.1875q1.65625 -1.109375 3.796875 -1.109375q2.234375 0 3.875 1.140625q1.65625 1.140625 2.359375 3.34375q0.734375 -2.140625 2.46875 -3.3125q1.734375 -1.171875 3.90625 -1.171875zm18.52182 0.0625q2.5625 0 4.328125 1.28125q1.78125 1.28125 2.5 3.421875l0 -4.46875l2.90625 0l0 17.5625l-2.90625 0l0 -4.484375q-0.71875 2.140625 -2.5 3.421875q-1.765625 1.28125 -4.328125 1.28125q-2.328125 0 -4.15625 -1.078125q-1.828125 -1.09375 -2.875 -3.125q-1.03125 -2.03125 -1.03125 -4.78125q0 -2.75 1.03125 -4.796875q1.046875 -2.046875 2.875 -3.140625q1.828125 -1.09375 4.15625 -1.09375zm0.84375 2.59375q-2.6875 0 -4.3125 1.71875q-1.609375 1.703125 -1.609375 4.71875q0 3.0 1.609375 4.71875q1.625 1.703125 4.3125 1.703125q1.71875 0 3.078125 -0.796875q1.359375 -0.796875 2.125 -2.25q0.78125 -1.453125 0.78125 -3.375q0 -1.921875 -0.78125 -3.390625q-0.765625 -1.46875 -2.125 -2.25q-1.359375 -0.796875 -3.078125 -0.796875zm22.77118 -2.65625q3.078125 0 4.96875 1.96875q1.890625 1.96875 1.890625 5.6875l0 10.203125l-2.921875 0l0 -9.953125q0 -2.625 -1.34375 -4.03125q-1.34375 -1.40625 -3.640625 -1.40625q-2.40625 0 -3.84375 1.5625q-1.4375 1.546875 -1.4375 4.515625l0 9.3125l-2.90625 0l0 -17.5625l2.90625 0l0 4.15625q0.671875 -2.140625 2.375 -3.296875q1.71875 -1.15625 3.953125 -1.15625zm18.529144 0.0625q2.5625 0 4.328125 1.28125q1.78125 1.28125 2.5 3.421875l0 -10.59375l2.90625 0l0 23.6875l-2.90625 0l0 -4.484375q-0.71875 2.140625 -2.5 3.421875q-1.765625 1.28125 -4.328125 1.28125q-2.328125 0 -4.15625 -1.078125q-1.828125 -1.09375 -2.875 -3.125q-1.03125 -2.03125 -1.03125 -4.78125q0 -2.75 1.03125 -4.796875q1.046875 -2.046875 2.875 -3.140625q1.828125 -1.09375 4.15625 -1.09375zm0.84375 2.59375q-2.6875 0 -4.3125 1.71875q-1.609375 1.703125 -1.609375 4.71875q0 3.0 1.609375 4.71875q1.625 1.703125 4.3125 1.703125q1.71875 0 3.078125 -0.796875q1.359375 -0.796875 2.125 -2.25q0.78125 -1.453125 0.78125 -3.375q0 -1.921875 -0.78125 -3.390625q-0.765625 -1.46875 -2.125 -2.25q-1.359375 -0.796875 -3.078125 -0.796875z" fill-rule="nonzero"/><path fill="#000000" fill-opacity="0.0" d="m238.65881 242.62125l232.53543 0l0 54.4252l-232.53543 0z" fill-rule="evenodd"/><path stroke="#666666" stroke-width="1.0" stroke-linejoin="round" stroke-linecap="butt" d="m238.65881 242.62125l232.53543 0l0 54.4252l-232.53543 0z" fill-rule="evenodd"/><path fill="#000000" d="m280.02774 263.75696q3.359375 0 5.5625 1.796875q2.21875 1.796875 2.734375 4.796875l-3.078125 0q-0.3125 -1.890625 -1.75 -2.953125q-1.421875 -1.078125 -3.53125 -1.078125q-1.53125 0 -2.796875 0.703125q-1.265625 0.703125 -2.03125 2.171875q-0.765625 1.453125 -0.765625 3.59375q0 2.140625 0.765625 3.59375q0.765625 1.453125 2.03125 2.171875q1.265625 0.703125 2.796875 0.703125q2.109375 0 3.53125 -1.09375q1.4375 -1.09375 1.75 -2.984375l3.078125 0q-0.515625 3.046875 -2.734375 4.828125q-2.203125 1.765625 -5.5625 1.765625q-2.53125 0 -4.484375 -1.078125q-1.9375 -1.09375 -3.046875 -3.125q-1.109375 -2.03125 -1.109375 -4.78125q0 -2.75 1.109375 -4.796875q1.109375 -2.046875 3.046875 -3.140625q1.953125 -1.09375 4.484375 -1.09375zm20.05954 0q2.53125 0 4.53125 1.09375q2.0 1.09375 3.140625 3.140625q1.140625 2.046875 1.140625 4.796875q0 2.75 -1.140625 4.78125q-1.140625 2.03125 -3.140625 3.125q-2.0 1.078125 -4.53125 1.078125q-2.515625 0 -4.515625 -1.078125q-2.0 -1.09375 -3.15625 -3.125q-1.15625 -2.03125 -1.15625 -4.78125q0 -2.75 1.15625 -4.796875q1.15625 -2.046875 3.15625 -3.140625q2.0 -1.09375 4.515625 -1.09375zm0 2.5625q-1.5625 0 -2.890625 0.703125q-1.328125 0.703125 -2.140625 2.171875q-0.8125 1.453125 -0.8125 3.59375q0 2.109375 0.8125 3.5625q0.8125 1.453125 2.140625 2.15625q1.328125 0.703125 2.890625 0.703125q1.578125 0 2.90625 -0.703125q1.328125 -0.703125 2.140625 -2.15625q0.8125 -1.453125 0.8125 -3.5625q0 -2.140625 -0.8125 -3.59375q-0.8125 -1.46875 -2.140625 -2.171875q-1.328125 -0.703125 -2.90625 -0.703125zm34.216644 -2.625q3.078125 0 4.9375 1.96875q1.875 1.96875 1.875 5.6875l0 10.203125l-2.90625 0l0 -9.953125q0 -2.59375 -1.265625 -3.96875q-1.265625 -1.375 -3.46875 -1.375q-2.3125 0 -3.703125 1.53125q-1.390625 1.515625 -1.390625 4.453125l0 9.3125l-2.90625 0l0 -9.953125q0 -2.59375 -1.28125 -3.96875q-1.28125 -1.375 -3.453125 -1.375q-2.34375 0 -3.734375 1.53125q-1.390625 1.515625 -1.390625 4.453125l0 9.3125l-2.90625 0l0 -17.5625l2.90625 0l0 4.0q0.640625 -2.078125 2.28125 -3.1875q1.65625 -1.109375 3.796875 -1.109375q2.234375 0 3.875 1.140625q1.65625 1.140625 2.359375 3.34375q0.734375 -2.140625 2.46875 -3.3125q1.734375 -1.171875 3.90625 -1.171875zm32.92807 0q3.078125 0 4.9375 1.96875q1.875 1.96875 1.875 5.6875l0 10.203125l-2.90625 0l0 -9.953125q0 -2.59375 -1.265625 -3.96875q-1.265625 -1.375 -3.46875 -1.375q-2.3125 0 -3.703125 1.53125q-1.390625 1.515625 -1.390625 4.453125l0 9.3125l-2.90625 0l0 -9.953125q0 -2.59375 -1.28125 -3.96875q-1.28125 -1.375 -3.453125 -1.375q-2.34375 0 -3.734375 1.53125q-1.390625 1.515625 -1.390625 4.453125l0 9.3125l-2.90625 0l0 -17.5625l2.90625 0l0 4.0q0.640625 -2.078125 2.28125 -3.1875q1.65625 -1.109375 3.796875 -1.109375q2.234375 0 3.875 1.140625q1.65625 1.140625 2.359375 3.34375q0.734375 -2.140625 2.46875 -3.3125q1.734375 -1.171875 3.90625 -1.171875zm18.52182 0.0625q2.5625 0 4.328125 1.28125q1.78125 1.28125 2.5 3.421875l0 -4.46875l2.90625 0l0 17.5625l-2.90625 0l0 -4.484375q-0.71875 2.140625 -2.5 3.421875q-1.765625 1.28125 -4.328125 1.28125q-2.328125 0 -4.15625 -1.078125q-1.828125 -1.09375 -2.875 -3.125q-1.03125 -2.03125 -1.03125 -4.78125q0 -2.75 1.03125 -4.796875q1.046875 -2.046875 2.875 -3.140625q1.828125 -1.09375 4.15625 -1.09375zm0.84375 2.59375q-2.6875 0 -4.3125 1.71875q-1.609375 1.703125 -1.609375 4.71875q0 3.0 1.609375 4.71875q1.625 1.703125 4.3125 1.703125q1.71875 0 3.078125 -0.796875q1.359375 -0.796875 2.125 -2.25q0.78125 -1.453125 0.78125 -3.375q0 -1.921875 -0.78125 -3.390625q-0.765625 -1.46875 -2.125 -2.25q-1.359375 -0.796875 -3.078125 -0.796875zm22.77118 -2.65625q3.078125 0 4.96875 1.96875q1.890625 1.96875 1.890625 5.6875l0 10.203125l-2.921875 0l0 -9.953125q0 -2.625 -1.34375 -4.03125q-1.34375 -1.40625 -3.640625 -1.40625q-2.40625 0 -3.84375 1.5625q-1.4375 1.546875 -1.4375 4.515625l0 9.3125l-2.90625 0l0 -17.5625l2.90625 0l0 4.15625q0.671875 -2.140625 2.375 -3.296875q1.71875 -1.15625 3.953125 -1.15625zm18.529144 0.0625q2.5625 0 4.328125 1.28125q1.78125 1.28125 2.5 3.421875l0 -10.59375l2.90625 0l0 23.6875l-2.90625 0l0 -4.484375q-0.71875 2.140625 -2.5 3.421875q-1.765625 1.28125 -4.328125 1.28125q-2.328125 0 -4.15625 -1.078125q-1.828125 -1.09375 -2.875 -3.125q-1.03125 -2.03125 -1.03125 -4.78125q0 -2.75 1.03125 -4.796875q1.046875 -2.046875 2.875 -3.140625q1.828125 -1.09375 4.15625 -1.09375zm0.84375 2.59375q-2.6875 0 -4.3125 1.71875q-1.609375 1.703125 -1.609375 4.71875q0 3.0 1.609375 4.71875q1.625 1.703125 4.3125 1.703125q1.71875 0 3.078125 -0.796875q1.359375 -0.796875 2.125 -2.25q0.78125 -1.453125 0.78125 -3.375q0 -1.921875 -0.78125 -3.390625q-0.765625 -1.46875 -2.125 -2.25q-1.359375 -0.796875 -3.078125 -0.796875z" fill-rule="nonzero"/><path fill="#000000" fill-opacity="0.0" d="m238.65881 307.7936l232.53543 0l0 54.42517l-232.53543 0z" fill-rule="evenodd"/><path stroke="#666666" stroke-width="1.0" stroke-linejoin="round" stroke-linecap="butt" d="m238.65881 307.7936l232.53543 0l0 54.42517l-232.53543 0z" fill-rule="evenodd"/><path fill="#000000" d="m280.02774 328.92932q3.359375 0 5.5625 1.796875q2.21875 1.796875 2.734375 4.796875l-3.078125 0q-0.3125 -1.890625 -1.75 -2.953125q-1.421875 -1.078125 -3.53125 -1.078125q-1.53125 0 -2.796875 0.703125q-1.265625 0.703125 -2.03125 2.171875q-0.765625 1.453125 -0.765625 3.59375q0 2.140625 0.765625 3.59375q0.765625 1.453125 2.03125 2.171875q1.265625 0.703125 2.796875 0.703125q2.109375 0 3.53125 -1.09375q1.4375 -1.09375 1.75 -2.984375l3.078125 0q-0.515625 3.046875 -2.734375 4.828125q-2.203125 1.765625 -5.5625 1.765625q-2.53125 0 -4.484375 -1.078125q-1.9375 -1.09375 -3.046875 -3.125q-1.109375 -2.03125 -1.109375 -4.78125q0 -2.75 1.109375 -4.796875q1.109375 -2.046875 3.046875 -3.140625q1.953125 -1.09375 4.484375 -1.09375zm20.05954 0q2.53125 0 4.53125 1.09375q2.0 1.09375 3.140625 3.140625q1.140625 2.046875 1.140625 4.796875q0 2.75 -1.140625 4.78125q-1.140625 2.03125 -3.140625 3.125q-2.0 1.078125 -4.53125 1.078125q-2.515625 0 -4.515625 -1.078125q-2.0 -1.09375 -3.15625 -3.125q-1.15625 -2.03125 -1.15625 -4.78125q0 -2.75 1.15625 -4.796875q1.15625 -2.046875 3.15625 -3.140625q2.0 -1.09375 4.515625 -1.09375zm0 2.5625q-1.5625 0 -2.890625 0.703125q-1.328125 0.703125 -2.140625 2.171875q-0.8125 1.453125 -0.8125 3.59375q0 2.109375 0.8125 3.5625q0.8125 1.453125 2.140625 2.15625q1.328125 0.703125 2.890625 0.703125q1.578125 0 2.90625 -0.703125q1.328125 -0.703125 2.140625 -2.15625q0.8125 -1.453125 0.8125 -3.5625q0 -2.140625 -0.8125 -3.59375q-0.8125 -1.46875 -2.140625 -2.171875q-1.328125 -0.703125 -2.90625 -0.703125zm34.216644 -2.625q3.078125 0 4.9375 1.96875q1.875 1.96875 1.875 5.6875l0 10.203125l-2.90625 0l0 -9.953125q0 -2.59375 -1.265625 -3.96875q-1.265625 -1.375 -3.46875 -1.375q-2.3125 0 -3.703125 1.53125q-1.390625 1.515625 -1.390625 4.453125l0 9.3125l-2.90625 0l0 -9.953125q0 -2.59375 -1.28125 -3.96875q-1.28125 -1.375 -3.453125 -1.375q-2.34375 0 -3.734375 1.53125q-1.390625 1.515625 -1.390625 4.453125l0 9.3125l-2.90625 0l0 -17.5625l2.90625 0l0 4.0q0.640625 -2.078125 2.28125 -3.1875q1.65625 -1.109375 3.796875 -1.109375q2.234375 0 3.875 1.140625q1.65625 1.140625 2.359375 3.34375q0.734375 -2.140625 2.46875 -3.3125q1.734375 -1.171875 3.90625 -1.171875zm32.92807 0q3.078125 0 4.9375 1.96875q1.875 1.96875 1.875 5.6875l0 10.203125l-2.90625 0l0 -9.953125q0 -2.59375 -1.265625 -3.96875q-1.265625 -1.375 -3.46875 -1.375q-2.3125 0 -3.703125 1.53125q-1.390625 1.515625 -1.390625 4.453125l0 9.3125l-2.90625 0l0 -9.953125q0 -2.59375 -1.28125 -3.96875q-1.28125 -1.375 -3.453125 -1.375q-2.34375 0 -3.734375 1.53125q-1.390625 1.515625 -1.390625 4.453125l0 9.3125l-2.90625 0l0 -17.5625l2.90625 0l0 4.0q0.640625 -2.078125 2.28125 -3.1875q1.65625 -1.109375 3.796875 -1.109375q2.234375 0 3.875 1.140625q1.65625 1.140625 2.359375 3.34375q0.734375 -2.140625 2.46875 -3.3125q1.734375 -1.171875 3.90625 -1.171875zm18.52182 0.0625q2.5625 0 4.328125 1.28125q1.78125 1.28125 2.5 3.421875l0 -4.46875l2.90625 0l0 17.5625l-2.90625 0l0 -4.484375q-0.71875 2.140625 -2.5 3.421875q-1.765625 1.28125 -4.328125 1.28125q-2.328125 0 -4.15625 -1.078125q-1.828125 -1.09375 -2.875 -3.125q-1.03125 -2.03125 -1.03125 -4.78125q0 -2.75 1.03125 -4.796875q1.046875 -2.046875 2.875 -3.140625q1.828125 -1.09375 4.15625 -1.09375zm0.84375 2.59375q-2.6875 0 -4.3125 1.71875q-1.609375 1.703125 -1.609375 4.71875q0 3.0 1.609375 4.71875q1.625 1.703125 4.3125 1.703125q1.71875 0 3.078125 -0.796875q1.359375 -0.796875 2.125 -2.25q0.78125 -1.453125 0.78125 -3.375q0 -1.921875 -0.78125 -3.390625q-0.765625 -1.46875 -2.125 -2.25q-1.359375 -0.796875 -3.078125 -0.796875zm22.77118 -2.65625q3.078125 0 4.96875 1.96875q1.890625 1.96875 1.890625 5.6875l0 10.203125l-2.921875 0l0 -9.953125q0 -2.625 -1.34375 -4.03125q-1.34375 -1.40625 -3.640625 -1.40625q-2.40625 0 -3.84375 1.5625q-1.4375 1.546875 -1.4375 4.515625l0 9.3125l-2.90625 0l0 -17.5625l2.90625 0l0 4.15625q0.671875 -2.140625 2.375 -3.296875q1.71875 -1.15625 3.953125 -1.15625zm18.529144 0.0625q2.5625 0 4.328125 1.28125q1.78125 1.28125 2.5 3.421875l0 -10.59375l2.90625 0l0 23.6875l-2.90625 0l0 -4.484375q-0.71875 2.140625 -2.5 3.421875q-1.765625 1.28125 -4.328125 1.28125q-2.328125 0 -4.15625 -1.078125q-1.828125 -1.09375 -2.875 -3.125q-1.03125 -2.03125 -1.03125 -4.78125q0 -2.75 1.03125 -4.796875q1.046875 -2.046875 2.875 -3.140625q1.828125 -1.09375 4.15625 -1.09375zm0.84375 2.59375q-2.6875 0 -4.3125 1.71875q-1.609375 1.703125 -1.609375 4.71875q0 3.0 1.609375 4.71875q1.625 1.703125 4.3125 1.703125q1.71875 0 3.078125 -0.796875q1.359375 -0.796875 2.125 -2.25q0.78125 -1.453125 0.78125 -3.375q0 -1.921875 -0.78125 -3.390625q-0.765625 -1.46875 -2.125 -2.25q-1.359375 -0.796875 -3.078125 -0.796875z" fill-rule="nonzero"/><path fill="#000000" fill-opacity="0.0" d="m249.08453 362.0406l0 10.60437l-57.081985 0.34072876l1.4510193 -205.63885l55.630966 -0.33462524l0 9.7465515l-11.245392 0.29203796l0.17274475 55.242615l11.262665 -0.22509766l0 9.7465515l-11.081284 0.22509766l0.18138123 54.968857l10.709885 -0.17034912l0 9.7465515l-10.709885 0.30419922l0 55.108765z" fill-rule="evenodd"/><path stroke="#666666" stroke-width="1.0" stroke-linejoin="round" stroke-linecap="butt" d="m249.08453 362.0406l0 10.60437l-57.081985 0.34072876l1.4510193 -205.63885l55.630966 -0.33462524l0 9.7465515l-11.245392 0.29203796l0.17274475 55.242615l11.262665 -0.22509766l0 9.7465515l-11.081284 0.22509766l0.18138123 54.968857l10.709885 -0.17034912l0 9.7465515l-10.709885 0.30419922l0 55.108765z" fill-rule="evenodd"/><path fill="#000000" fill-opacity="0.0" d="m193.09079 372.03342l0 -204.34645l42.803146 0l0 204.34645z" fill-rule="evenodd"/><path fill="#000000" d="m223.64987 292.0855l2.5625 0l0 2.171875q0 2.6875 -1.28125 4.015625q-1.28125 1.328125 -4.28125 1.328125l-9.484375 0l0 2.625l-2.515625 0l0 -2.625l-4.390625 0l0 -2.9375l4.390625 0l0 -4.546875l2.515625 0l0 4.546875l9.546875 0q1.6875 0 2.3125 -0.625q0.625 -0.625 0.625 -2.15625l0 -1.796875zm-15.234375 -10.748535q0 -2.5625 1.28125 -4.328125q1.28125 -1.78125 3.421875 -2.5l-4.46875 0l0 -2.90625l17.5625 0l0 2.90625l-4.484375 0q2.140625 0.71875 3.421875 2.5q1.28125 1.765625 1.28125 4.328125q0 2.328125 -1.078125 4.15625q-1.09375 1.828125 -3.125 2.875q-2.03125 1.03125 -4.78125 1.03125q-2.75 0 -4.796875 -1.03125q-2.046875 -1.046875 -3.140625 -2.875q-1.09375 -1.828125 -1.09375 -4.15625zm2.59375 -0.84375q0 2.6875 1.71875 4.3125q1.703125 1.609375 4.71875 1.609375q3.0 0 4.71875 -1.609375q1.703125 -1.625 1.703125 -4.3125q0 -1.71875 -0.796875 -3.078125q-0.796875 -1.359375 -2.25 -2.125q-1.453125 -0.78125 -3.375 -0.78125q-1.921875 0 -3.390625 0.78125q-1.46875 0.765625 -2.25 2.125q-0.796875 1.359375 -0.796875 3.078125zm-2.59375 -19.036774q0 -2.96875 1.5625 -4.78125q1.546875 -1.8125 4.171875 -2.1875l0 2.78125q-1.5625 0.1875 -2.5625 1.296875q-1.015625 1.109375 -1.015625 2.953125q0 1.578125 0.75 2.453125q0.75 0.875 2.03125 0.875q0.953125 0 1.546875 -0.578125q0.59375 -0.59375 0.90625 -1.46875q0.296875 -0.890625 0.640625 -2.421875q0.453125 -1.953125 0.921875 -3.15625q0.453125 -1.203125 1.484375 -2.046875q1.015625 -0.84375 2.75 -0.84375q2.140625 0 3.484375 1.609375q1.34375 1.609375 1.34375 4.296875q0 3.140625 -1.5 5.125q-1.5 1.984375 -4.1875 2.34375l0 -2.828125q1.59375 -0.15625 2.59375 -1.390625q0.984375 -1.234375 0.984375 -3.25q0 -1.5 -0.765625 -2.34375q-0.765625 -0.84375 -2.015625 -0.84375q-1.03125 0 -1.625 0.609375q-0.609375 0.59375 -0.921875 1.5q-0.328125 0.890625 -0.6875 2.453125q-0.453125 1.953125 -0.890625 3.125q-0.453125 1.171875 -1.421875 1.984375q-0.984375 0.8125 -2.640625 0.8125q-2.21875 0 -3.578125 -1.625q-1.359375 -1.640625 -1.359375 -4.453125zm17.796875 -20.669037l-7.90625 6.71875l7.90625 0l0 2.90625l-23.6875 0l0 -2.90625l13.765625 0l-7.640625 -6.625l0 -3.546875l8.734375 7.875l8.828125 -8.0625l0 3.640625z" fill-rule="nonzero"/><path fill="#000000" fill-opacity="0.0" d="m514.0236 177.45145l108.09448 0l0 54.4252l-108.09448 0z" fill-rule="evenodd"/><path stroke="#666666" stroke-width="1.0" stroke-linejoin="round" stroke-linecap="butt" d="m514.0236 177.45145l108.09448 0l0 54.4252l-108.09448 0z" fill-rule="evenodd"/><path fill="#000000" d="m535.25854 198.58717q2.96875 0 4.78125 1.5625q1.8125 1.546875 2.1875 4.171875l-2.78125 0q-0.1875 -1.5625 -1.296875 -2.5625q-1.109375 -1.015625 -2.953125 -1.015625q-1.578125 0 -2.453125 0.75q-0.875 0.75 -0.875 2.03125q0 0.953125 0.578125 1.546875q0.59375 0.59375 1.46875 0.90625q0.890625 0.296875 2.421875 0.640625q1.953125 0.453125 3.15625 0.921875q1.203125 0.453125 2.046875 1.484375q0.84375 1.015625 0.84375 2.75q0 2.140625 -1.609375 3.484375q-1.609375 1.34375 -4.296875 1.34375q-3.140625 0 -5.125 -1.5q-1.984375 -1.5 -2.34375 -4.1875l2.828125 0q0.15625 1.59375 1.390625 2.59375q1.234375 0.984375 3.25 0.984375q1.5 0 2.34375 -0.765625q0.84375 -0.765625 0.84375 -2.015625q0 -1.03125 -0.609375 -1.625q-0.59375 -0.609375 -1.5 -0.921875q-0.890625 -0.328125 -2.453125 -0.6875q-1.953125 -0.453125 -3.125 -0.890625q-1.171875 -0.453125 -1.984375 -1.421875q-0.8125 -0.984375 -0.8125 -2.640625q0 -2.21875 1.625 -3.578125q1.640625 -1.359375 4.453125 -1.359375zm19.419006 15.234375l0 2.5625l-2.171875 0q-2.6875 0 -4.015625 -1.28125q-1.328125 -1.28125 -1.328125 -4.28125l0 -9.484375l-2.625 0l0 -2.515625l2.625 0l0 -4.390625l2.9375 0l0 4.390625l4.546875 0l0 2.515625l-4.546875 0l0 9.546875q0 1.6875 0.625 2.3125q0.625 0.625 2.15625 0.625l1.796875 0zm11.51416 -15.234375q2.53125 0 4.53125 1.09375q2.0 1.09375 3.140625 3.140625q1.140625 2.046875 1.140625 4.796875q0 2.75 -1.140625 4.78125q-1.140625 2.03125 -3.140625 3.125q-2.0 1.078125 -4.53125 1.078125q-2.515625 0 -4.515625 -1.078125q-2.0 -1.09375 -3.15625 -3.125q-1.15625 -2.03125 -1.15625 -4.78125q0 -2.75 1.15625 -4.796875q1.15625 -2.046875 3.15625 -3.140625q2.0 -1.09375 4.515625 -1.09375zm0 2.5625q-1.5625 0 -2.890625 0.703125q-1.328125 0.703125 -2.140625 2.171875q-0.8125 1.453125 -0.8125 3.59375q0 2.109375 0.8125 3.5625q0.8125 1.453125 2.140625 2.15625q1.328125 0.703125 2.890625 0.703125q1.578125 0 2.90625 -0.703125q1.328125 -0.703125 2.140625 -2.15625q0.8125 -1.453125 0.8125 -3.5625q0 -2.140625 -0.8125 -3.59375q-0.8125 -1.46875 -2.140625 -2.171875q-1.328125 -0.703125 -2.90625 -0.703125zm15.529175 1.21875q0.859375 -1.828125 2.515625 -2.828125q1.671875 -1.015625 3.984375 -1.015625l0 3.171875l-0.90625 0q-2.453125 0 -4.03125 1.265625q-1.5625 1.265625 -1.5625 4.171875l0 9.25l-2.90625 0l0 -17.5625l2.90625 0l0 3.546875zm25.538025 4.25q0 0.9375 -0.125 1.609375l-14.0625 0q0.109375 3.0 1.71875 4.515625q1.609375 1.5 3.953125 1.5q2.109375 0 3.53125 -1.0625q1.421875 -1.078125 1.75 -2.875l3.109375 0q-0.328125 1.828125 -1.4375 3.265625q-1.09375 1.4375 -2.859375 2.234375q-1.765625 0.796875 -3.96875 0.796875q-2.53125 0 -4.484375 -1.078125q-1.9375 -1.09375 -3.046875 -3.125q-1.109375 -2.03125 -1.109375 -4.78125q0 -2.75 1.109375 -4.796875q1.109375 -2.046875 3.046875 -3.140625q1.953125 -1.09375 4.484375 -1.09375q2.5625 0 4.46875 1.09375q1.90625 1.09375 2.90625 2.921875q1.015625 1.8125 1.015625 4.015625zm-2.953125 0.203125q0.09375 -1.953125 -0.640625 -3.265625q-0.734375 -1.3125 -2.015625 -1.953125q-1.28125 -0.640625 -2.78125 -0.640625q-2.390625 0 -4.03125 1.484375q-1.625 1.484375 -1.765625 4.375l11.234375 0z" fill-rule="nonzero"/><path fill="#000000" fill-opacity="0.0" d="m514.0236 242.62204l128.78741 0l0 54.4252l-128.78741 0z" fill-rule="evenodd"/><path stroke="#666666" stroke-width="1.0" stroke-linejoin="round" stroke-linecap="butt" d="m514.0236 242.62204l128.78741 0l0 54.4252l-128.78741 0z" fill-rule="evenodd"/><path fill="#000000" d="m552.29205 260.40588q1.015625 0 1.84375 0.1875q0.828125 0.171875 1.578125 0.484375l-0.65625 1.5q-0.609375 -0.265625 -1.296875 -0.390625q-0.671875 -0.125 -1.40625 -0.125q-1.328125 0 -2.0 0.515625q-0.65625 0.515625 -0.65625 1.578125l0 2.5625l4.28125 0l-0.203125 1.59375l-4.078125 0l0 10.0625l-2.015625 0l0 -10.0625l-3.015625 0l0 -1.59375l3.015625 0l0 -2.515625q0 -1.171875 0.609375 -2.015625q0.609375 -0.859375 1.640625 -1.3125q1.046875 -0.46875 2.359375 -0.46875zm8.5251465 12.359375q0.0625 1.46875 0.5625 2.40625q0.5 0.921875 1.328125 1.359375q0.828125 0.4375 1.796875 0.4375q0.96875 0 1.75 -0.28125q0.796875 -0.296875 1.625 -0.859375l0.953125 1.328125q-0.890625 0.703125 -2.03125 1.109375q-1.125 0.390625 -2.3125 0.390625q-1.84375 0 -3.140625 -0.828125q-1.296875 -0.828125 -1.96875 -2.3125q-0.671875 -1.484375 -0.671875 -3.4375q0 -1.921875 0.671875 -3.40625q0.6875 -1.5 1.921875 -2.34375q1.234375 -0.859375 2.921875 -0.859375q1.59375 0 2.734375 0.75q1.15625 0.75 1.78125 2.140625q0.625 1.390625 0.625 3.3125q0 0.3125 -0.015625 0.609375q-0.015625 0.28125 -0.046875 0.484375l-8.484375 0zm3.421875 -5.640625q-1.390625 0 -2.34375 1.0q-0.9375 1.0 -1.0625 3.09375l6.578125 0q-0.03125 -2.03125 -0.890625 -3.0625q-0.84375 -1.03125 -2.28125 -1.03125zm19.41571 10.609375q-0.640625 0.4375 -1.5625 0.671875q-0.921875 0.25 -1.8125 0.25q-2.046875 0 -3.15625 -1.0625q-1.09375 -1.078125 -1.09375 -2.765625l0 -7.53125l-2.90625 0l0 -1.5625l2.90625 0l0 -2.859375l2.015625 -0.25l0 3.109375l4.375 0l-0.25 1.5625l-4.125 0l0 7.515625q0 1.046875 0.546875 1.609375q0.5625 0.546875 1.859375 0.546875q0.71875 0 1.3125 -0.15625q0.59375 -0.171875 1.125 -0.4375l0.765625 1.359375zm10.087585 -0.828125q0.953125 0 1.765625 -0.3125q0.828125 -0.3125 1.515625 -0.78125l0.984375 1.3125q-0.828125 0.703125 -2.0 1.125q-1.15625 0.40625 -2.265625 0.40625q-1.890625 0 -3.21875 -0.8125q-1.3125 -0.8125 -2.015625 -2.28125q-0.6875 -1.46875 -0.6875 -3.453125q0 -1.890625 0.6875 -3.390625q0.703125 -1.515625 2.03125 -2.375q1.328125 -0.875 3.21875 -0.875q1.21875 0 2.28125 0.375q1.0625 0.359375 1.953125 1.09375l-0.984375 1.34375q-0.8125 -0.5625 -1.625 -0.84375q-0.796875 -0.28125 -1.640625 -0.28125q-1.640625 0 -2.703125 1.234375q-1.046875 1.21875 -1.046875 3.71875q0 1.6875 0.484375 2.75q0.5 1.0625 1.34375 1.5625q0.84375 0.484375 1.921875 0.484375zm10.69696 -16.453125l0 7.015625q0.75 -1.0 1.828125 -1.5q1.09375 -0.5 2.203125 -0.5q1.859375 0 2.703125 0.984375q0.859375 0.984375 0.859375 2.734375l0 9.1875l-2.015625 0l0 -9.125q0 -1.140625 -0.53125 -1.65625q-0.53125 -0.53125 -1.65625 -0.53125q-0.71875 0 -1.375 0.328125q-0.640625 0.3125 -1.15625 0.796875q-0.515625 0.484375 -0.859375 0.984375l0 9.203125l-2.015625 0l0 -17.703125l2.015625 -0.21875z" fill-rule="nonzero"/><path fill="#000000" fill-opacity="0.0" d="m514.0236 307.79266l128.78741 0l0 54.4252l-128.78741 0z" fill-rule="evenodd"/><path stroke="#666666" stroke-width="1.0" stroke-linejoin="round" stroke-linecap="butt" d="m514.0236 307.79266l128.78741 0l0 54.4252l-128.78741 0z" fill-rule="evenodd"/><path fill="#000000" d="m535.2357 330.63904q1.796875 0 3.0 0.8125q1.203125 0.8125 1.8125 2.296875q0.609375 1.46875 0.609375 3.46875q0 1.9375 -0.625 3.421875q-0.625 1.484375 -1.84375 2.34375q-1.203125 0.84375 -2.96875 0.84375q-1.78125 0 -3.0 -0.8125q-1.203125 -0.828125 -1.828125 -2.296875q-0.609375 -1.484375 -0.609375 -3.46875q0 -1.953125 0.625 -3.4375q0.625 -1.5 1.84375 -2.328125q1.21875 -0.84375 2.984375 -0.84375zm0 1.65625q-1.625 0 -2.46875 1.203125q-0.828125 1.203125 -0.828125 3.75q0 2.5 0.8125 3.71875q0.828125 1.203125 2.46875 1.203125q1.625 0 2.4375 -1.203125q0.828125 -1.21875 0.828125 -3.75q0 -2.515625 -0.8125 -3.71875q-0.8125 -1.203125 -2.4375 -1.203125zm9.587585 11.25l0 -12.640625l1.71875 0l0.15625 1.75q0.765625 -0.96875 1.921875 -1.484375q1.171875 -0.53125 2.25 -0.53125q1.859375 0 2.703125 0.984375q0.859375 0.984375 0.859375 2.734375l0 9.1875l-2.015625 0l0 -7.6875q0 -1.296875 -0.15625 -2.09375q-0.140625 -0.796875 -0.59375 -1.15625q-0.453125 -0.375 -1.40625 -0.375q-0.75 0 -1.40625 0.328125q-0.65625 0.3125 -1.171875 0.796875q-0.5 0.484375 -0.84375 0.984375l0 9.203125l-2.015625 0zm20.118896 -1.46875q0.953125 0 1.765625 -0.3125q0.828125 -0.3125 1.515625 -0.78125l0.984375 1.3125q-0.828125 0.703125 -2.0 1.125q-1.15625 0.40625 -2.265625 0.40625q-1.890625 0 -3.21875 -0.8125q-1.3125 -0.8125 -2.015625 -2.28125q-0.6875 -1.46875 -0.6875 -3.453125q0 -1.890625 0.6875 -3.390625q0.703125 -1.515625 2.03125 -2.375q1.328125 -0.875 3.21875 -0.875q1.21875 0 2.28125 0.375q1.0625 0.359375 1.953125 1.09375l-0.984375 1.34375q-0.8125 -0.5625 -1.625 -0.84375q-0.796875 -0.28125 -1.640625 -0.28125q-1.640625 0 -2.703125 1.234375q-1.046875 1.21875 -1.046875 3.71875q0 1.6875 0.484375 2.75q0.5 1.0625 1.34375 1.5625q0.84375 0.484375 1.921875 0.484375zm13.60321 -16.25l0 14.59375q0 0.9375 0.578125 1.328125q0.59375 0.390625 1.515625 0.390625q0.578125 0 1.09375 -0.109375q0.515625 -0.125 1.03125 -0.328125l0.53125 1.46875q-0.515625 0.25 -1.28125 0.453125q-0.75 0.203125 -1.71875 0.203125q-1.671875 0 -2.71875 -0.921875q-1.046875 -0.9375 -1.046875 -2.59375l0 -12.890625l-3.875 0l0 -1.59375l5.890625 0zm15.88446 5.078125l0 11.046875l3.5625 0l0 1.59375l-9.484375 0l0 -1.59375l3.90625 0l0 -9.453125l-3.78125 0l0 -1.59375l5.796875 0zm-1.609375 -5.90625q0.671875 0 1.0625 0.40625q0.40625 0.40625 0.40625 1.0q0 0.609375 -0.40625 1.03125q-0.390625 0.40625 -1.0625 0.40625q-0.640625 0 -1.046875 -0.40625q-0.40625 -0.421875 -0.40625 -1.03125q0 -0.59375 0.40625 -1.0q0.40625 -0.40625 1.046875 -0.40625zm15.32196 17.078125q0.953125 0 1.765625 -0.3125q0.828125 -0.3125 1.515625 -0.78125l0.984375 1.3125q-0.828125 0.703125 -2.0 1.125q-1.15625 0.40625 -2.265625 0.40625q-1.890625 0 -3.21875 -0.8125q-1.3125 -0.8125 -2.015625 -2.28125q-0.6875 -1.46875 -0.6875 -3.453125q0 -1.890625 0.6875 -3.390625q0.703125 -1.515625 2.03125 -2.375q1.328125 -0.875 3.21875 -0.875q1.21875 0 2.28125 0.375q1.0625 0.359375 1.953125 1.09375l-0.984375 1.34375q-0.8125 -0.5625 -1.625 -0.84375q-0.796875 -0.28125 -1.640625 -0.28125q-1.640625 0 -2.703125 1.234375q-1.046875 1.21875 -1.046875 3.71875q0 1.6875 0.484375 2.75q0.5 1.0625 1.34375 1.5625q0.84375 0.484375 1.921875 0.484375zm19.275146 -11.171875l-5.6875 5.6875l6.34375 6.953125l-2.65625 0l-6.21875 -6.90625l5.59375 -5.734375l2.625 0zm-8.4375 -5.328125l0 17.96875l-2.015625 0l0 -17.71875l2.015625 -0.25z" fill-rule="nonzero"/><path fill="#cccccc" d="m470.9865 335.01038l12.614166 -12.614166l0 6.307068l17.13385 0l0 -6.307068l12.614166 12.614166l-12.614166 12.614166l0 -6.3070984l-17.13385 0l0 6.3070984z" fill-rule="evenodd"/><path fill="#cccccc" d="m470.9865 269.8342l12.614166 -12.614197l0 6.3070984l17.13385 0l0 -6.3070984l12.614166 12.614197l-12.614166 12.614166l0 -6.3070984l-17.13385 0l0 6.3070984z" fill-rule="evenodd"/><path fill="#cccccc" d="m652.09937 192.05511l12.614197 12.6141815l-12.614197 12.614166l0 -6.307083l-29.748047 0l0 -12.6141815l29.748047 0z" fill-rule="evenodd"/><path fill="#000000" fill-opacity="0.0" d="m664.7139 177.45145l103.27557 0l0 54.4252l-103.27557 0z" fill-rule="evenodd"/><path stroke="#666666" stroke-width="1.0" stroke-linejoin="round" stroke-linecap="butt" d="m664.7139 177.45145l103.27557 0l0 54.4252l-103.27557 0z" fill-rule="evenodd"/><path fill="#000000" d="m707.07745 193.82155l0 13.53125q0 3.328125 1.46875 4.921875q1.46875 1.578125 4.0625 1.578125q2.5625 0 4.0 -1.59375q1.4375 -1.609375 1.4375 -4.90625l0 -13.53125l2.90625 0l0 13.53125q0 4.609375 -2.28125 6.9375q-2.28125 2.3125 -6.125 2.3125q-3.8125 0 -6.109375 -2.3125q-2.28125 -2.328125 -2.28125 -6.9375l0 -13.53125l2.921875 0zm21.308289 0l0 22.5625l-2.90625 0l0 -22.5625l2.90625 0z" fill-rule="nonzero"/></g></svg>