<svg version="1.1" viewBox="0.0 0.0 960.0 540.0" fill="none" stroke="none" stroke-linecap="square" stroke-miterlimit="10" xmlns:xlink="http://www.w3.org/1999/xlink" xmlns="http://www.w3.org/2000/svg"><clipPath id="g76cad55604_0_229.0"><path d="m0 0l960.0 0l0 540.0l-960.0 0l0 -540.0z" clip-rule="nonzero"/></clipPath><g clip-path="url(#g76cad55604_0_229.0)"><path fill="#ffffff" d="m0 0l960.0 0l0 540.0l-960.0 0z" fill-rule="evenodd"/><path fill="#cccccc" d="m323.16797 126.41601l10.330719 -10.330704l10.330719 10.330704l-5.1653748 0l0 89.54331l-10.330688 0l0 -89.54331z" fill-rule="evenodd"/><path fill="#cccccc" d="m482.29398 126.41601l10.330688 -10.330704l10.330719 10.330704l-5.165344 0l0 26.299217l-10.330719 0l0 -26.299217z" fill-rule="evenodd"/><path fill="#000000" fill-opacity="0.0" d="m415.02362 309.95456l0 -162.01573l20.661407 0l0 162.01573z" fill-rule="evenodd"/><path fill="#000000" d="m429.09183 238.1992l1.0625 0l0 0.90625q0 1.125 -0.53125 1.6875q-0.53125 0.546875 -1.78125 0.546875l-3.953125 0l0 1.09375l-1.046875 0l0 -1.09375l-1.828125 0l0 -1.234375l1.828125 0l0 -1.890625l1.046875 0l0 1.890625l3.96875 0q0.703125 0 0.96875 -0.25q0.265625 -0.265625 0.265625 -0.90625l0 -0.75zm-6.34375 -4.4713745q0 -1.0625 0.53125 -1.796875q0.53125 -0.75 1.421875 -1.046875l-1.859375 0l0 -1.21875l7.3125 0l0 1.21875l-1.859375 0q0.890625 0.296875 1.421875 1.046875q0.53125 0.734375 0.53125 1.796875q0 0.96875 -0.453125 1.734375q-0.453125 0.75 -1.296875 1.1875q-0.84375 0.4375 -2.0 0.4375q-1.140625 0 -1.984375 -0.4375q-0.859375 -0.4375 -1.3125 -1.1875q-0.453125 -0.765625 -0.453125 -1.734375zm1.078125 -0.34375q0 1.109375 0.71875 1.78125q0.703125 0.671875 1.953125 0.671875q1.25 0 1.96875 -0.671875q0.71875 -0.671875 0.71875 -1.78125q0 -0.71875 -0.328125 -1.28125q-0.34375 -0.578125 -0.953125 -0.890625q-0.609375 -0.328125 -1.40625 -0.328125q-0.796875 0 -1.40625 0.328125q-0.609375 0.3125 -0.9375 0.890625q-0.328125 0.5625 -0.328125 1.28125zm-1.078125 -7.936249q0 -1.234375 0.640625 -1.984375q0.640625 -0.765625 1.734375 -0.921875l0 1.15625q-0.640625 0.078125 -1.0625 0.546875q-0.421875 0.453125 -0.421875 1.234375q0 0.65625 0.3125 1.015625q0.3125 0.359375 0.84375 0.359375q0.40625 0 0.65625 -0.234375q0.234375 -0.25 0.359375 -0.609375q0.125 -0.375 0.28125 -1.015625q0.1875 -0.8125 0.390625 -1.3125q0.1875 -0.5 0.609375 -0.84375q0.421875 -0.359375 1.140625 -0.359375q0.890625 0 1.453125 0.671875q0.5625 0.671875 0.5625 1.796875q0 1.296875 -0.625 2.125q-0.625 0.828125 -1.75 0.96875l0 -1.171875q0.671875 -0.0625 1.09375 -0.578125q0.40625 -0.515625 0.40625 -1.34375q0 -0.625 -0.3125 -0.984375q-0.328125 -0.359375 -0.859375 -0.359375q-0.421875 0 -0.671875 0.265625q-0.25 0.25 -0.375 0.625q-0.140625 0.359375 -0.296875 1.015625q-0.1875 0.8125 -0.375 1.3125q-0.1875 0.484375 -0.59375 0.828125q-0.40625 0.328125 -1.09375 0.328125q-0.921875 0 -1.484375 -0.671875q-0.5625 -0.6875 -0.5625 -1.859375zm7.40625 -8.60936l-3.296875 2.796875l3.296875 0l0 1.21875l-9.859375 0l0 -1.21875l5.734375 0l-3.1875 -2.75l0 -1.484375l3.640625 3.28125l3.671875 -3.359375l0 1.515625z" fill-rule="nonzero"/><path fill="#000000" fill-opacity="0.0" d="m414.62204 147.31233l0 163.00264l26.81366 0l0 -5.1732483l-4.979004 0l0 -26.62204l5.362213 0l0 -4.40683l-5.362213 0l0 -26.624664l5.1705933 0l0 -4.979004l-5.1705933 0l0 -27.199478l4.787384 0l0 -4.7873993l-4.5957947 0l0 -26.433075l4.979004 0l0 -4.5957947l-5.5538025 0l0 -27.007874l5.362213 0l0 -4.790024z" fill-rule="evenodd"/><path stroke="#666666" stroke-width="1.0" stroke-linejoin="round" stroke-linecap="butt" d="m414.62204 147.31233l0 163.00264l26.81366 0l0 -5.1732483l-4.979004 0l0 -26.62204l5.362213 0l0 -4.40683l-5.362213 0l0 -26.624664l5.1705933 0l0 -4.979004l-5.1705933 0l0 -27.199478l4.787384 0l0 -4.7873993l-4.5957947 0l0 -26.433075l4.979004 0l0 -4.5957947l-5.5538025 0l0 -27.007874l5.362213 0l0 -4.790024z" fill-rule="evenodd"/><path fill="#000000" fill-opacity="0.0" d="m254.32349 303.90796l-26.022156 0l0 61.5419l504.63446 0l0 -61.5419l-23.91156 0l0 5.9799805l-135.7431 0l0 -6.3317566l-23.91156 0l0 6.8677673l-135.03964 -0.1758728l0 -6.3401184l-23.91156 0l0 5.9799805l-136.09488 0.3517456z" fill-rule="evenodd"/><path stroke="#666666" stroke-width="1.0" stroke-linejoin="round" stroke-linecap="butt" d="m254.32349 303.90796l-26.022156 0l0 61.5419l504.63446 0l0 -61.5419l-23.91156 0l0 5.9799805l-135.7431 0l0 -6.3317566l-23.91156 0l0 6.8677673l-135.03964 -0.1758728l0 -6.3401184l-23.91156 0l0 5.9799805l-136.09488 0.3517456z" fill-rule="evenodd"/><path fill="#000000" fill-opacity="0.0" d="m227.64043 305.20737l504.78735 0l0 60.188965l-504.78735 0z" fill-rule="evenodd"/><path fill="#000000" d="m458.70807 330.91174q0.859375 -1.828125 2.515625 -2.828125q1.671875 -1.015625 3.984375 -1.015625l0 3.171875l-0.90625 0q-2.453125 0 -4.03125 1.265625q-1.5625 1.265625 -1.5625 4.171875l0 9.25l-2.90625 0l0 -17.5625l2.90625 0l0 3.546875zm24.99115 -3.546875l0 17.5625l-2.90625 0l0 -4.125q-0.671875 2.140625 -2.390625 3.28125q-1.71875 1.125 -3.984375 1.125q-3.046875 0 -4.9375 -1.953125q-1.875 -1.96875 -1.875 -5.65625l0 -10.234375l2.90625 0l0 9.953125q0 2.625 1.34375 4.046875q1.34375 1.421875 3.65625 1.421875q2.390625 0 3.828125 -1.546875q1.453125 -1.5625 1.453125 -4.53125l0 -9.34375l2.90625 0zm13.913055 -0.296875q3.078125 0 4.96875 1.96875q1.890625 1.96875 1.890625 5.6875l0 10.203125l-2.921875 0l0 -9.953125q0 -2.625 -1.34375 -4.03125q-1.34375 -1.40625 -3.640625 -1.40625q-2.40625 0 -3.84375 1.5625q-1.4375 1.546875 -1.4375 4.515625l0 9.3125l-2.90625 0l0 -17.5625l2.90625 0l0 4.15625q0.671875 -2.140625 2.375 -3.296875q1.71875 -1.15625 3.953125 -1.15625z" fill-rule="nonzero"/><path fill="#000000" fill-opacity="0.0" d="m227.60619 54.288853l504.7874 0l0 61.795277l-504.7874 0z" fill-rule="evenodd"/><path stroke="#666666" stroke-width="1.0" stroke-linejoin="round" stroke-linecap="butt" d="m227.60619 54.288853l504.7874 0l0 61.795277l-504.7874 0z" fill-rule="evenodd"/><path fill="#000000" d="m447.18756 79.10961q2.96875 0 4.78125 1.5625q1.8125 1.546875 2.1875 4.171875l-2.78125 0q-0.1875 -1.5625 -1.296875 -2.5625q-1.109375 -1.015625 -2.953125 -1.015625q-1.578125 0 -2.453125 0.75q-0.875 0.75 -0.875 2.03125q0 0.953125 0.578125 1.546875q0.59375 0.59375 1.46875 0.90625q0.890625 0.296875 2.421875 0.640625q1.953125 0.453125 3.15625 0.921875q1.203125 0.453125 2.046875 1.484375q0.84375 1.015625 0.84375 2.75q0 2.140625 -1.609375 3.484375q-1.609375 1.34375 -4.296875 1.34375q-3.140625 0 -5.125 -1.5q-1.984375 -1.5 -2.34375 -4.1875l2.828125 0q0.15625 1.59375 1.390625 2.59375q1.234375 0.984375 3.25 0.984375q1.5 0 2.34375 -0.765625q0.84375 -0.765625 0.84375 -2.015625q0 -1.03125 -0.609375 -1.625q-0.59375 -0.609375 -1.5 -0.921875q-0.890625 -0.328125 -2.453125 -0.6875q-1.953125 -0.453125 -3.125 -0.890625q-1.171875 -0.453125 -1.984375 -1.421875q-0.8125 -0.984375 -0.8125 -2.640625q0 -2.21875 1.625 -3.578125q1.640625 -1.359375 4.453125 -1.359375zm19.419037 15.234375l0 2.5625l-2.171875 0q-2.6875 0 -4.015625 -1.28125q-1.328125 -1.28125 -1.328125 -4.28125l0 -9.484375l-2.625 0l0 -2.515625l2.625 0l0 -4.390625l2.9375 0l0 4.390625l4.546875 0l0 2.515625l-4.546875 0l0 9.546875q0 1.6875 0.625 2.3125q0.625 0.625 2.15625 0.625l1.796875 0zm11.51416 -15.234375q2.53125 0 4.53125 1.09375q2.0 1.09375 3.140625 3.140625q1.140625 2.046875 1.140625 4.796875q0 2.75 -1.140625 4.78125q-1.140625 2.03125 -3.140625 3.125q-2.0 1.078125 -4.53125 1.078125q-2.515625 0 -4.515625 -1.078125q-2.0 -1.09375 -3.15625 -3.125q-1.15625 -2.03125 -1.15625 -4.78125q0 -2.75 1.15625 -4.796875q1.15625 -2.046875 3.15625 -3.140625q2.0 -1.09375 4.515625 -1.09375zm0 2.5625q-1.5625 0 -2.890625 0.703125q-1.328125 0.703125 -2.140625 2.171875q-0.8125 1.453125 -0.8125 3.59375q0 2.109375 0.8125 3.5625q0.8125 1.453125 2.140625 2.15625q1.328125 0.703125 2.890625 0.703125q1.578125 0 2.90625 -0.703125q1.328125 -0.703125 2.140625 -2.15625q0.8125 -1.453125 0.8125 -3.5625q0 -2.140625 -0.8125 -3.59375q-0.8125 -1.46875 -2.140625 -2.171875q-1.328125 -0.703125 -2.90625 -0.703125zm15.529144 1.21875q0.859375 -1.828125 2.515625 -2.828125q1.671875 -1.015625 3.984375 -1.015625l0 3.171875l-0.90625 0q-2.453125 0 -4.03125 1.265625q-1.5625 1.265625 -1.5625 4.171875l0 9.25l-2.90625 0l0 -17.5625l2.90625 0l0 3.546875zm25.538025 4.25q0 0.9375 -0.125 1.609375l-14.0625 0q0.109375 3.0 1.71875 4.515625q1.609375 1.5 3.953125 1.5q2.109375 0 3.53125 -1.0625q1.421875 -1.078125 1.75 -2.875l3.109375 0q-0.328125 1.828125 -1.4375 3.265625q-1.09375 1.4375 -2.859375 2.234375q-1.765625 0.796875 -3.96875 0.796875q-2.53125 0 -4.484375 -1.078125q-1.9375 -1.09375 -3.046875 -3.125q-1.109375 -2.03125 -1.109375 -4.78125q0 -2.75 1.109375 -4.796875q1.109375 -2.046875 3.046875 -3.140625q1.953125 -1.09375 4.484375 -1.09375q2.5625 0 4.46875 1.09375q1.90625 1.09375 2.90625 2.921875q1.015625 1.8125 1.015625 4.015625zm-2.953125 0.203125q0.09375 -1.953125 -0.640625 -3.265625q-0.734375 -1.3125 -2.015625 -1.953125q-1.28125 -0.640625 -2.78125 -0.640625q-2.390625 0 -4.03125 1.484375q-1.625 1.484375 -1.765625 4.375l11.234375 0z" fill-rule="nonzero"/><path fill="#000000" fill-opacity="0.0" d="m227.60619 423.91547l504.7874 0l0 61.795258l-504.7874 0z" fill-rule="evenodd"/><path stroke="#666666" stroke-width="1.0" stroke-linejoin="round" stroke-linecap="butt" d="m227.60619 423.91547l504.7874 0l0 61.795258l-504.7874 0z" fill-rule="evenodd"/><path fill="#000000" d="m470.72562 443.9706l0 13.53125q0 3.328125 1.46875 4.921875q1.46875 1.578125 4.0625 1.578125q2.5625 0 4.0 -1.59375q1.4375 -1.609375 1.4375 -4.90625l0 -13.53125l2.9062805 0l0 13.53125q0 4.609375 -2.2812805 6.9375q-2.28125 2.3125 -6.125 2.3125q-3.8125 0 -6.109375 -2.3125q-2.28125 -2.328125 -2.28125 -6.9375l0 -13.53125l2.921875 0zm21.30832 0l0 22.5625l-2.90625 0l0 -22.5625l2.90625 0z" fill-rule="nonzero"/><path fill="#000000" fill-opacity="0.0" d="m227.60619 454.8131l-25.0 0l0 -119.49606l25.063004 0" fill-rule="evenodd"/><path stroke="#595959" stroke-width="1.0" stroke-linejoin="round" stroke-linecap="butt" d="m227.6062 454.8131l-25.0 0l0 -119.49609l21.63591 0" fill-rule="evenodd"/><path fill="#595959" stroke="#595959" stroke-width="1.0" stroke-linecap="butt" d="m224.2421 335.31702l-1.1245728 1.1246033l3.0897675 -1.1246033l-3.0897675 -1.1245728z" fill-rule="evenodd"/><path fill="#000000" fill-opacity="0.0" d="m277.12054 215.6158l112.75592 0l0 26.393692l-112.75592 0z" fill-rule="evenodd"/><path stroke="#666666" stroke-width="1.0" stroke-linejoin="round" stroke-linecap="butt" d="m277.12054 215.6158l112.75592 0l0 26.393692l-112.75592 0z" fill-rule="evenodd"/><path fill="#000000" d="m302.31122 226.20639q1.390625 0 2.3125 0.75q0.921875 0.734375 1.125 1.984375l-1.265625 0q-0.140625 -0.78125 -0.734375 -1.21875q-0.59375 -0.453125 -1.46875 -0.453125q-0.640625 0 -1.171875 0.296875q-0.515625 0.296875 -0.84375 0.90625q-0.3125 0.59375 -0.3125 1.484375q0 0.890625 0.3125 1.5q0.328125 0.609375 0.84375 0.90625q0.53125 0.296875 1.171875 0.296875q0.875 0 1.46875 -0.453125q0.59375 -0.453125 0.734375 -1.25l1.265625 0q-0.203125 1.265625 -1.125 2.015625q-0.921875 0.734375 -2.3125 0.734375q-1.0625 0 -1.875 -0.453125q-0.8125 -0.453125 -1.28125 -1.296875q-0.453125 -0.84375 -0.453125 -2.0q0 -1.140625 0.453125 -1.984375q0.46875 -0.859375 1.28125 -1.3125q0.8125 -0.453125 1.875 -0.453125zm8.354858 0q1.046875 0 1.875 0.453125q0.84375 0.453125 1.3125 1.3125q0.46875 0.84375 0.46875 1.984375q0 1.15625 -0.46875 2.0q-0.46875 0.84375 -1.3125 1.296875q-0.828125 0.453125 -1.875 0.453125q-1.0625 0 -1.890625 -0.453125q-0.828125 -0.453125 -1.3125 -1.296875q-0.484375 -0.84375 -0.484375 -2.0q0 -1.140625 0.484375 -1.984375q0.484375 -0.859375 1.3125 -1.3125q0.828125 -0.453125 1.890625 -0.453125zm0 1.0625q-0.65625 0 -1.21875 0.296875q-0.546875 0.296875 -0.890625 0.90625q-0.328125 0.59375 -0.328125 1.484375q0 0.890625 0.328125 1.5q0.34375 0.59375 0.890625 0.890625q0.5625 0.296875 1.21875 0.296875q0.640625 0 1.1875 -0.296875q0.5625 -0.296875 0.90625 -0.890625q0.34375 -0.609375 0.34375 -1.5q0 -0.890625 -0.34375 -1.484375q-0.34375 -0.609375 -0.90625 -0.90625q-0.546875 -0.296875 -1.1875 -0.296875zm14.241821 -1.09375q1.28125 0 2.0625 0.828125q0.78125 0.8125 0.78125 2.359375l0 4.25l-1.21875 0l0 -4.140625q0 -1.078125 -0.53125 -1.65625q-0.515625 -0.578125 -1.4375 -0.578125q-0.96875 0 -1.546875 0.640625q-0.578125 0.625 -0.578125 1.859375l0 3.875l-1.203125 0l0 -4.140625q0 -1.078125 -0.546875 -1.65625q-0.53125 -0.578125 -1.4375 -0.578125q-0.96875 0 -1.546875 0.640625q-0.578125 0.625 -0.578125 1.859375l0 3.875l-1.21875 0l0 -7.3125l1.21875 0l0 1.65625q0.265625 -0.859375 0.953125 -1.3125q0.6875 -0.46875 1.578125 -0.46875q0.9375 0 1.625 0.484375q0.6875 0.46875 0.96875 1.375q0.3125 -0.890625 1.03125 -1.375q0.71875 -0.484375 1.625 -0.484375zm13.7146 0q1.28125 0 2.0625 0.828125q0.78125 0.8125 0.78125 2.359375l0 4.25l-1.21875 0l0 -4.140625q0 -1.078125 -0.53125 -1.65625q-0.515625 -0.578125 -1.4375 -0.578125q-0.96875 0 -1.546875 0.640625q-0.578125 0.625 -0.578125 1.859375l0 3.875l-1.203125 0l0 -4.140625q0 -1.078125 -0.546875 -1.65625q-0.53125 -0.578125 -1.4375 -0.578125q-0.96875 0 -1.546875 0.640625q-0.578125 0.625 -0.578125 1.859375l0 3.875l-1.21875 0l0 -7.3125l1.21875 0l0 1.65625q0.265625 -0.859375 0.953125 -1.3125q0.6875 -0.46875 1.578125 -0.46875q0.9375 0 1.625 0.484375q0.6875 0.46875 0.96875 1.375q0.3125 -0.890625 1.03125 -1.375q0.71875 -0.484375 1.625 -0.484375zm7.714569 0.03125q1.0625 0 1.796875 0.53125q0.75 0.53125 1.046875 1.421875l0 -1.859375l1.21875 0l0 7.3125l-1.21875 0l0 -1.859375q-0.296875 0.890625 -1.046875 1.421875q-0.734375 0.53125 -1.796875 0.53125q-0.96875 0 -1.734375 -0.453125q-0.75 -0.453125 -1.1875 -1.296875q-0.4375 -0.84375 -0.4375 -2.0q0 -1.140625 0.4375 -1.984375q0.4375 -0.859375 1.1875 -1.3125q0.765625 -0.453125 1.734375 -0.453125zm0.34375 1.078125q-1.109375 0 -1.78125 0.71875q-0.671875 0.703125 -0.671875 1.953125q0 1.25 0.671875 1.96875q0.671875 0.71875 1.78125 0.71875q0.71875 0 1.28125 -0.328125q0.578125 -0.34375 0.890625 -0.953125q0.328125 -0.609375 0.328125 -1.40625q0 -0.796875 -0.328125 -1.40625q-0.3125 -0.609375 -0.890625 -0.9375q-0.5625 -0.328125 -1.28125 -0.328125zm9.498749 -1.109375q1.28125 0 2.0625 0.828125q0.78125 0.8125 0.78125 2.359375l0 4.25l-1.203125 0l0 -4.140625q0 -1.09375 -0.5625 -1.671875q-0.5625 -0.59375 -1.515625 -0.59375q-1.0 0 -1.609375 0.640625q-0.59375 0.640625 -0.59375 1.890625l0 3.875l-1.21875 0l0 -7.3125l1.21875 0l0 1.734375q0.28125 -0.90625 0.984375 -1.375q0.71875 -0.484375 1.65625 -0.484375zm7.7105713 0.03125q1.0625 0 1.796875 0.53125q0.75 0.53125 1.046875 1.421875l0 -4.40625l1.21875 0l0 9.859375l-1.21875 0l0 -1.859375q-0.296875 0.890625 -1.046875 1.421875q-0.734375 0.53125 -1.796875 0.53125q-0.96875 0 -1.734375 -0.453125q-0.75 -0.453125 -1.1875 -1.296875q-0.4375 -0.84375 -0.4375 -2.0q0 -1.140625 0.4375 -1.984375q0.4375 -0.859375 1.1875 -1.3125q0.765625 -0.453125 1.734375 -0.453125zm0.34375 1.078125q-1.109375 0 -1.78125 0.71875q-0.671875 0.703125 -0.671875 1.953125q0 1.25 0.671875 1.96875q0.671875 0.71875 1.78125 0.71875q0.71875 0 1.28125 -0.328125q0.578125 -0.34375 0.890625 -0.953125q0.328125 -0.609375 0.328125 -1.40625q0 -0.796875 -0.328125 -1.40625q-0.3125 -0.609375 -0.890625 -0.9375q-0.5625 -0.328125 -1.28125 -0.328125z" fill-rule="nonzero"/><path fill="#000000" fill-opacity="0.0" d="m277.12054 247.2137l112.75592 0l0 26.393723l-112.75592 0z" fill-rule="evenodd"/><path stroke="#666666" stroke-width="1.0" stroke-linejoin="round" stroke-linecap="butt" d="m277.12054 247.2137l112.75592 0l0 26.393723l-112.75592 0z" fill-rule="evenodd"/><path fill="#000000" d="m302.31122 257.8043q1.390625 0 2.3125 0.75q0.921875 0.734375 1.125 1.984375l-1.265625 0q-0.140625 -0.78125 -0.734375 -1.21875q-0.59375 -0.453125 -1.46875 -0.453125q-0.640625 0 -1.171875 0.296875q-0.515625 0.296875 -0.84375 0.90625q-0.3125 0.59375 -0.3125 1.484375q0 0.890625 0.3125 1.5q0.328125 0.609375 0.84375 0.90625q0.53125 0.296875 1.171875 0.296875q0.875 0 1.46875 -0.453125q0.59375 -0.453125 0.734375 -1.25l1.265625 0q-0.203125 1.265625 -1.125 2.015625q-0.921875 0.734375 -2.3125 0.734375q-1.0625 0 -1.875 -0.453125q-0.8125 -0.453125 -1.28125 -1.296875q-0.453125 -0.84375 -0.453125 -2.0q0 -1.140625 0.453125 -1.984375q0.46875 -0.859375 1.28125 -1.3125q0.8125 -0.453125 1.875 -0.453125zm8.354858 0q1.046875 0 1.875 0.453125q0.84375 0.453125 1.3125 1.3125q0.46875 0.84375 0.46875 1.984375q0 1.15625 -0.46875 2.0q-0.46875 0.84375 -1.3125 1.296875q-0.828125 0.453125 -1.875 0.453125q-1.0625 0 -1.890625 -0.453125q-0.828125 -0.453125 -1.3125 -1.296875q-0.484375 -0.84375 -0.484375 -2.0q0 -1.140625 0.484375 -1.984375q0.484375 -0.859375 1.3125 -1.3125q0.828125 -0.453125 1.890625 -0.453125zm0 1.0625q-0.65625 0 -1.21875 0.296875q-0.546875 0.296875 -0.890625 0.90625q-0.328125 0.59375 -0.328125 1.484375q0 0.890625 0.328125 1.5q0.34375 0.59375 0.890625 0.890625q0.5625 0.296875 1.21875 0.296875q0.640625 0 1.1875 -0.296875q0.5625 -0.296875 0.90625 -0.890625q0.34375 -0.609375 0.34375 -1.5q0 -0.890625 -0.34375 -1.484375q-0.34375 -0.609375 -0.90625 -0.90625q-0.546875 -0.296875 -1.1875 -0.296875zm14.241821 -1.09375q1.28125 0 2.0625 0.828125q0.78125 0.8125 0.78125 2.359375l0 4.25l-1.21875 0l0 -4.140625q0 -1.078125 -0.53125 -1.65625q-0.515625 -0.578125 -1.4375 -0.578125q-0.96875 0 -1.546875 0.640625q-0.578125 0.625 -0.578125 1.859375l0 3.875l-1.203125 0l0 -4.140625q0 -1.078125 -0.546875 -1.65625q-0.53125 -0.578125 -1.4375 -0.578125q-0.96875 0 -1.546875 0.640625q-0.578125 0.625 -0.578125 1.859375l0 3.875l-1.21875 0l0 -7.3125l1.21875 0l0 1.65625q0.265625 -0.859375 0.953125 -1.3125q0.6875 -0.46875 1.578125 -0.46875q0.9375 0 1.625 0.484375q0.6875 0.46875 0.96875 1.375q0.3125 -0.890625 1.03125 -1.375q0.71875 -0.484375 1.625 -0.484375zm13.7146 0q1.28125 0 2.0625 0.828125q0.78125 0.8125 0.78125 2.359375l0 4.25l-1.21875 0l0 -4.140625q0 -1.078125 -0.53125 -1.65625q-0.515625 -0.578125 -1.4375 -0.578125q-0.96875 0 -1.546875 0.640625q-0.578125 0.625 -0.578125 1.859375l0 3.875l-1.203125 0l0 -4.140625q0 -1.078125 -0.546875 -1.65625q-0.53125 -0.578125 -1.4375 -0.578125q-0.96875 0 -1.546875 0.640625q-0.578125 0.625 -0.578125 1.859375l0 3.875l-1.21875 0l0 -7.3125l1.21875 0l0 1.65625q0.265625 -0.859375 0.953125 -1.3125q0.6875 -0.46875 1.578125 -0.46875q0.9375 0 1.625 0.484375q0.6875 0.46875 0.96875 1.375q0.3125 -0.890625 1.03125 -1.375q0.71875 -0.484375 1.625 -0.484375zm7.714569 0.03125q1.0625 0 1.796875 0.53125q0.75 0.53125 1.046875 1.421875l0 -1.859375l1.21875 0l0 7.3125l-1.21875 0l0 -1.859375q-0.296875 0.890625 -1.046875 1.421875q-0.734375 0.53125 -1.796875 0.53125q-0.96875 0 -1.734375 -0.453125q-0.75 -0.453125 -1.1875 -1.296875q-0.4375 -0.84375 -0.4375 -2.0q0 -1.140625 0.4375 -1.984375q0.4375 -0.859375 1.1875 -1.3125q0.765625 -0.453125 1.734375 -0.453125zm0.34375 1.078125q-1.109375 0 -1.78125 0.71875q-0.671875 0.703125 -0.671875 1.953125q0 1.25 0.671875 1.96875q0.671875 0.71875 1.78125 0.71875q0.71875 0 1.28125 -0.328125q0.578125 -0.34375 0.890625 -0.953125q0.328125 -0.609375 0.328125 -1.40625q0 -0.796875 -0.328125 -1.40625q-0.3125 -0.609375 -0.890625 -0.9375q-0.5625 -0.328125 -1.28125 -0.328125zm9.498749 -1.109375q1.28125 0 2.0625 0.828125q0.78125 0.8125 0.78125 2.359375l0 4.25l-1.203125 0l0 -4.140625q0 -1.09375 -0.5625 -1.671875q-0.5625 -0.59375 -1.515625 -0.59375q-1.0 0 -1.609375 0.640625q-0.59375 0.640625 -0.59375 1.890625l0 3.875l-1.21875 0l0 -7.3125l1.21875 0l0 1.734375q0.28125 -0.90625 0.984375 -1.375q0.71875 -0.484375 1.65625 -0.484375zm7.7105713 0.03125q1.0625 0 1.796875 0.53125q0.75 0.53125 1.046875 1.421875l0 -4.4062347l1.21875 0l0 9.85936l-1.21875 0l0 -1.859375q-0.296875 0.890625 -1.046875 1.421875q-0.734375 0.53125 -1.796875 0.53125q-0.96875 0 -1.734375 -0.453125q-0.75 -0.453125 -1.1875 -1.296875q-0.4375 -0.84375 -0.4375 -2.0q0 -1.140625 0.4375 -1.984375q0.4375 -0.859375 1.1875 -1.3125q0.765625 -0.453125 1.734375 -0.453125zm0.34375 1.078125q-1.109375 0 -1.78125 0.71875q-0.671875 0.703125 -0.671875 1.953125q0 1.25 0.671875 1.96875q0.671875 0.71875 1.78125 0.71875q0.71875 0 1.28125 -0.328125q0.578125 -0.34375 0.890625 -0.953125q0.328125 -0.609375 0.328125 -1.40625q0 -0.796875 -0.328125 -1.40625q-0.3125 -0.609375 -0.890625 -0.9375q-0.5625 -0.328125 -1.28125 -0.328125z" fill-rule="nonzero"/><path fill="#000000" fill-opacity="0.0" d="m277.12054 278.8132l112.75592 0l0 26.393707l-112.75592 0z" fill-rule="evenodd"/><path stroke="#666666" stroke-width="1.0" stroke-linejoin="round" stroke-linecap="butt" d="m277.12054 278.8132l112.75592 0l0 26.393707l-112.75592 0z" fill-rule="evenodd"/><path fill="#000000" d="m302.31122 289.4038q1.390625 0 2.3125 0.75q0.921875 0.734375 1.125 1.984375l-1.265625 0q-0.140625 -0.78125 -0.734375 -1.21875q-0.59375 -0.453125 -1.46875 -0.453125q-0.640625 0 -1.171875 0.296875q-0.515625 0.296875 -0.84375 0.90625q-0.3125 0.59375 -0.3125 1.484375q0 0.890625 0.3125 1.5q0.328125 0.609375 0.84375 0.90625q0.53125 0.296875 1.171875 0.296875q0.875 0 1.46875 -0.453125q0.59375 -0.453125 0.734375 -1.25l1.265625 0q-0.203125 1.265625 -1.125 2.015625q-0.921875 0.734375 -2.3125 0.734375q-1.0625 0 -1.875 -0.453125q-0.8125 -0.453125 -1.28125 -1.296875q-0.453125 -0.84375 -0.453125 -2.0q0 -1.140625 0.453125 -1.984375q0.46875 -0.859375 1.28125 -1.3125q0.8125 -0.453125 1.875 -0.453125zm8.354858 0q1.046875 0 1.875 0.453125q0.84375 0.453125 1.3125 1.3125q0.46875 0.84375 0.46875 1.984375q0 1.15625 -0.46875 2.0q-0.46875 0.84375 -1.3125 1.296875q-0.828125 0.453125 -1.875 0.453125q-1.0625 0 -1.890625 -0.453125q-0.828125 -0.453125 -1.3125 -1.296875q-0.484375 -0.84375 -0.484375 -2.0q0 -1.140625 0.484375 -1.984375q0.484375 -0.859375 1.3125 -1.3125q0.828125 -0.453125 1.890625 -0.453125zm0 1.0625q-0.65625 0 -1.21875 0.296875q-0.546875 0.296875 -0.890625 0.90625q-0.328125 0.59375 -0.328125 1.484375q0 0.890625 0.328125 1.5q0.34375 0.59375 0.890625 0.890625q0.5625 0.296875 1.21875 0.296875q0.640625 0 1.1875 -0.296875q0.5625 -0.296875 0.90625 -0.890625q0.34375 -0.609375 0.34375 -1.5q0 -0.890625 -0.34375 -1.484375q-0.34375 -0.609375 -0.90625 -0.90625q-0.546875 -0.296875 -1.1875 -0.296875zm14.241821 -1.09375q1.28125 0 2.0625 0.828125q0.78125 0.8125 0.78125 2.359375l0 4.25l-1.21875 0l0 -4.140625q0 -1.078125 -0.53125 -1.65625q-0.515625 -0.578125 -1.4375 -0.578125q-0.96875 0 -1.546875 0.640625q-0.578125 0.625 -0.578125 1.859375l0 3.875l-1.203125 0l0 -4.140625q0 -1.078125 -0.546875 -1.65625q-0.53125 -0.578125 -1.4375 -0.578125q-0.96875 0 -1.546875 0.640625q-0.578125 0.625 -0.578125 1.859375l0 3.875l-1.21875 0l0 -7.3125l1.21875 0l0 1.65625q0.265625 -0.859375 0.953125 -1.3125q0.6875 -0.46875 1.578125 -0.46875q0.9375 0 1.625 0.484375q0.6875 0.46875 0.96875 1.375q0.3125 -0.890625 1.03125 -1.375q0.71875 -0.484375 1.625 -0.484375zm13.7146 0q1.28125 0 2.0625 0.828125q0.78125 0.8125 0.78125 2.359375l0 4.25l-1.21875 0l0 -4.140625q0 -1.078125 -0.53125 -1.65625q-0.515625 -0.578125 -1.4375 -0.578125q-0.96875 0 -1.546875 0.640625q-0.578125 0.625 -0.578125 1.859375l0 3.875l-1.203125 0l0 -4.140625q0 -1.078125 -0.546875 -1.65625q-0.53125 -0.578125 -1.4375 -0.578125q-0.96875 0 -1.546875 0.640625q-0.578125 0.625 -0.578125 1.859375l0 3.875l-1.21875 0l0 -7.3125l1.21875 0l0 1.65625q0.265625 -0.859375 0.953125 -1.3125q0.6875 -0.46875 1.578125 -0.46875q0.9375 0 1.625 0.484375q0.6875 0.46875 0.96875 1.375q0.3125 -0.890625 1.03125 -1.375q0.71875 -0.484375 1.625 -0.484375zm7.714569 0.03125q1.0625 0 1.796875 0.53125q0.75 0.53125 1.046875 1.421875l0 -1.859375l1.21875 0l0 7.3125l-1.21875 0l0 -1.859375q-0.296875 0.890625 -1.046875 1.421875q-0.734375 0.53125 -1.796875 0.53125q-0.96875 0 -1.734375 -0.453125q-0.75 -0.453125 -1.1875 -1.296875q-0.4375 -0.84375 -0.4375 -2.0q0 -1.140625 0.4375 -1.984375q0.4375 -0.859375 1.1875 -1.3125q0.765625 -0.453125 1.734375 -0.453125zm0.34375 1.078125q-1.109375 0 -1.78125 0.71875q-0.671875 0.703125 -0.671875 1.953125q0 1.25 0.671875 1.96875q0.671875 0.71875 1.78125 0.71875q0.71875 0 1.28125 -0.328125q0.578125 -0.34375 0.890625 -0.953125q0.328125 -0.609375 0.328125 -1.40625q0 -0.796875 -0.328125 -1.40625q-0.3125 -0.609375 -0.890625 -0.9375q-0.5625 -0.328125 -1.28125 -0.328125zm9.498749 -1.109375q1.28125 0 2.0625 0.828125q0.78125 0.8125 0.78125 2.359375l0 4.25l-1.203125 0l0 -4.140625q0 -1.09375 -0.5625 -1.671875q-0.5625 -0.59375 -1.515625 -0.59375q-1.0 0 -1.609375 0.640625q-0.59375 0.640625 -0.59375 1.890625l0 3.875l-1.21875 0l0 -7.3125l1.21875 0l0 1.734375q0.28125 -0.90625 0.984375 -1.375q0.71875 -0.484375 1.65625 -0.484375zm7.7105713 0.03125q1.0625 0 1.796875 0.53125q0.75 0.53125 1.046875 1.421875l0 -4.40625l1.21875 0l0 9.859375l-1.21875 0l0 -1.859375q-0.296875 0.890625 -1.046875 1.421875q-0.734375 0.53125 -1.796875 0.53125q-0.96875 0 -1.734375 -0.453125q-0.75 -0.453125 -1.1875 -1.296875q-0.4375 -0.84375 -0.4375 -2.0q0 -1.140625 0.4375 -1.984375q0.4375 -0.859375 1.1875 -1.3125q0.765625 -0.453125 1.734375 -0.453125zm0.34375 1.078125q-1.109375 0 -1.78125 0.71875q-0.671875 0.703125 -0.671875 1.953125q0 1.25 0.671875 1.96875q0.671875 0.71875 1.78125 0.71875q0.71875 0 1.28125 -0.328125q0.578125 -0.34375 0.890625 -0.953125q0.328125 -0.609375 0.328125 -1.40625q0 -0.796875 -0.328125 -1.40625q-0.3125 -0.609375 -0.890625 -0.9375q-0.5625 -0.328125 -1.28125 -0.328125z" fill-rule="nonzero"/><path fill="#000000" fill-opacity="0.0" d="m282.17532 305.11487l0 5.1416016l-27.67627 0.16519165l0.703537 -99.70555l26.972733 -0.1622467l0 4.7256927l-5.4523315 0.1415863l0.083740234 26.78482l5.460724 -0.10914612l0 4.7256927l-5.372772 0.10913086l0.08795166 26.65207l5.192688 -0.08258057l0 4.7256775l-5.192688 0.14749146l0 26.71991z" fill-rule="evenodd"/><path stroke="#666666" stroke-width="1.0" stroke-linejoin="round" stroke-linecap="butt" d="m282.17532 305.11487l0 5.1416016l-27.67627 0.16519165l0.703537 -99.70555l26.972733 -0.1622467l0 4.7256927l-5.4523315 0.1415863l0.083740234 26.78482l5.460724 -0.10914612l0 4.7256927l-5.372772 0.10913086l0.08795166 26.65207l5.192688 -0.08258057l0 4.7256775l-5.192688 0.14749146l0 26.71991z" fill-rule="evenodd"/><path fill="#000000" fill-opacity="0.0" d="m255.0267 309.96057l0 -99.086624l20.75589 0l0 99.086624z" fill-rule="evenodd"/><path fill="#000000" d="m269.14215 269.66974l1.0625 0l0 0.90625q0 1.125 -0.53125 1.6875q-0.53125 0.546875 -1.78125 0.546875l-3.953125 0l0 1.09375l-1.046875 0l0 -1.09375l-1.828125 0l0 -1.234375l1.828125 0l0 -1.890625l1.046875 0l0 1.890625l3.96875 0q0.703125 0 0.96875 -0.25q0.265625 -0.265625 0.265625 -0.90625l0 -0.75zm-6.34375 -4.4713745q0 -1.0625 0.53125 -1.796875q0.53125 -0.75 1.421875 -1.046875l-1.859375 0l0 -1.21875l7.3125 0l0 1.21875l-1.859375 0q0.890625 0.296875 1.421875 1.046875q0.53125 0.734375 0.53125 1.796875q0 0.96875 -0.453125 1.734375q-0.453125 0.75 -1.296875 1.1875q-0.84375 0.4375 -2.0 0.4375q-1.140625 0 -1.984375 -0.4375q-0.859375 -0.4375 -1.3125 -1.1875q-0.453125 -0.765625 -0.453125 -1.734375zm1.078125 -0.34375q0 1.109375 0.71875 1.78125q0.703125 0.671875 1.953125 0.671875q1.25 0 1.96875 -0.671875q0.71875 -0.671875 0.71875 -1.78125q0 -0.71875 -0.328125 -1.28125q-0.34375 -0.578125 -0.953125 -0.890625q-0.609375 -0.328125 -1.40625 -0.328125q-0.796875 0 -1.40625 0.328125q-0.609375 0.3125 -0.9375 0.890625q-0.328125 0.5625 -0.328125 1.28125zm-1.078125 -7.936249q0 -1.2343597 0.640625 -1.9843597q0.640625 -0.765625 1.734375 -0.921875l0 1.15625q-0.640625 0.078125 -1.0625 0.546875q-0.421875 0.45310974 -0.421875 1.2343597q0 0.65625 0.3125 1.015625q0.3125 0.359375 0.84375 0.359375q0.40625 0 0.65625 -0.234375q0.234375 -0.25 0.359375 -0.609375q0.125 -0.375 0.28125 -1.015625q0.1875 -0.81248474 0.390625 -1.3124847q0.1875 -0.5 0.609375 -0.84375q0.421875 -0.359375 1.140625 -0.359375q0.890625 0 1.453125 0.671875q0.5625 0.671875 0.5625 1.7968597q0 1.296875 -0.625 2.125q-0.625 0.828125 -1.75 0.96875l0 -1.171875q0.671875 -0.0625 1.09375 -0.578125q0.40625 -0.515625 0.40625 -1.34375q0 -0.62498474 -0.3125 -0.98435974q-0.328125 -0.359375 -0.859375 -0.359375q-0.421875 0 -0.671875 0.265625q-0.25 0.25 -0.375 0.625q-0.140625 0.35935974 -0.296875 1.0156097q-0.1875 0.8125 -0.375 1.3125q-0.1875 0.484375 -0.59375 0.828125q-0.40625 0.328125 -1.09375 0.328125q-0.921875 0 -1.484375 -0.671875q-0.5625 -0.6875 -0.5625 -1.859375zm7.40625 -8.6093445l-3.296875 2.796875l3.296875 0l0 1.21875l-9.859375 0l0 -1.21875l5.734375 0l-3.1875 -2.75l0 -1.484375l3.640625 3.28125l3.671875 -3.359375l0 1.515625z" fill-rule="nonzero"/><path fill="#000000" fill-opacity="0.0" d="m436.59256 278.81052l112.06302 0l0 26.393707l-112.06302 0z" fill-rule="evenodd"/><path stroke="#666666" stroke-width="1.0" stroke-linejoin="round" stroke-linecap="butt" d="m436.59256 278.81052l112.06302 0l0 26.393707l-112.06302 0z" fill-rule="evenodd"/><path fill="#000000" d="m461.4368 289.40112q1.390625 0 2.3125 0.75q0.921875 0.734375 1.125 1.984375l-1.265625 0q-0.140625 -0.78125 -0.734375 -1.21875q-0.59375 -0.453125 -1.46875 -0.453125q-0.640625 0 -1.171875 0.296875q-0.515625 0.296875 -0.84375 0.90625q-0.3125 0.59375 -0.3125 1.484375q0 0.890625 0.3125 1.5q0.328125 0.609375 0.84375 0.90625q0.53125 0.296875 1.171875 0.296875q0.875 0 1.46875 -0.453125q0.59375 -0.453125 0.734375 -1.25l1.265625 0q-0.203125 1.265625 -1.125 2.015625q-0.921875 0.734375 -2.3125 0.734375q-1.0625 0 -1.875 -0.453125q-0.8125 -0.453125 -1.28125 -1.296875q-0.453125 -0.84375 -0.453125 -2.0q0 -1.140625 0.453125 -1.984375q0.46875 -0.859375 1.28125 -1.3125q0.8125 -0.453125 1.875 -0.453125zm8.354858 0q1.046875 0 1.875 0.453125q0.84375 0.453125 1.3125 1.3125q0.46875 0.84375 0.46875 1.984375q0 1.15625 -0.46875 2.0q-0.46875 0.84375 -1.3125 1.296875q-0.828125 0.453125 -1.875 0.453125q-1.0625 0 -1.890625 -0.453125q-0.828125 -0.453125 -1.3125 -1.296875q-0.484375 -0.84375 -0.484375 -2.0q0 -1.140625 0.484375 -1.984375q0.484375 -0.859375 1.3125 -1.3125q0.828125 -0.453125 1.890625 -0.453125zm0 1.0625q-0.65625 0 -1.21875 0.296875q-0.546875 0.296875 -0.890625 0.90625q-0.328125 0.59375 -0.328125 1.484375q0 0.890625 0.328125 1.5q0.34375 0.59375 0.890625 0.890625q0.5625 0.296875 1.21875 0.296875q0.640625 0 1.1875 -0.296875q0.5625 -0.296875 0.90625 -0.890625q0.34375 -0.609375 0.34375 -1.5q0 -0.890625 -0.34375 -1.484375q-0.34375 -0.609375 -0.90625 -0.90625q-0.546875 -0.296875 -1.1875 -0.296875zm14.241821 -1.09375q1.28125 0 2.0625 0.828125q0.78125 0.8125 0.78125 2.359375l0 4.25l-1.21875 0l0 -4.140625q0 -1.078125 -0.53125 -1.65625q-0.515625 -0.578125 -1.4375 -0.578125q-0.96875 0 -1.546875 0.640625q-0.578125 0.625 -0.578125 1.859375l0 3.875l-1.203125 0l0 -4.140625q0 -1.078125 -0.546875 -1.65625q-0.53125 -0.578125 -1.4375 -0.578125q-0.96875 0 -1.546875 0.640625q-0.578125 0.625 -0.578125 1.859375l0 3.875l-1.21875 0l0 -7.3125l1.21875 0l0 1.65625q0.265625 -0.859375 0.953125 -1.3125q0.6875 -0.46875 1.578125 -0.46875q0.9375 0 1.625 0.484375q0.6875 0.46875 0.96875 1.375q0.3125 -0.890625 1.03125 -1.375q0.71875 -0.484375 1.625 -0.484375zm13.714569 0q1.28125 0 2.0625 0.828125q0.78125 0.8125 0.78125 2.359375l0 4.25l-1.21875 0l0 -4.140625q0 -1.078125 -0.53125 -1.65625q-0.515625 -0.578125 -1.4375 -0.578125q-0.96875 0 -1.546875 0.640625q-0.578125 0.625 -0.578125 1.859375l0 3.875l-1.203125 0l0 -4.140625q0 -1.078125 -0.546875 -1.65625q-0.53125 -0.578125 -1.4375 -0.578125q-0.96875 0 -1.546875 0.640625q-0.578125 0.625 -0.578125 1.859375l0 3.875l-1.21875 0l0 -7.3125l1.21875 0l0 1.65625q0.265625 -0.859375 0.953125 -1.3125q0.6875 -0.46875 1.578125 -0.46875q0.9375 0 1.625 0.484375q0.6875 0.46875 0.96875 1.375q0.3125 -0.890625 1.03125 -1.375q0.71875 -0.484375 1.625 -0.484375zm7.714569 0.03125q1.0625 0 1.796875 0.53125q0.75 0.53125 1.046875 1.421875l0 -1.859375l1.21875 0l0 7.3125l-1.21875 0l0 -1.859375q-0.296875 0.890625 -1.046875 1.421875q-0.734375 0.53125 -1.796875 0.53125q-0.96875 0 -1.734375 -0.453125q-0.75 -0.453125 -1.1875 -1.296875q-0.4375 -0.84375 -0.4375 -2.0q0 -1.140625 0.4375 -1.984375q0.4375 -0.859375 1.1875 -1.3125q0.765625 -0.453125 1.734375 -0.453125zm0.34375 1.078125q-1.109375 0 -1.78125 0.71875q-0.671875 0.703125 -0.671875 1.953125q0 1.25 0.671875 1.96875q0.671875 0.71875 1.78125 0.71875q0.71875 0 1.28125 -0.328125q0.578125 -0.34375 0.890625 -0.953125q0.328125 -0.609375 0.328125 -1.40625q0 -0.796875 -0.328125 -1.40625q-0.3125 -0.609375 -0.890625 -0.9375q-0.5625 -0.328125 -1.28125 -0.328125zm9.498749 -1.109375q1.28125 0 2.0625 0.828125q0.78125 0.8125 0.78125 2.359375l0 4.25l-1.203125 0l0 -4.140625q0 -1.09375 -0.5625 -1.671875q-0.5625 -0.59375 -1.515625 -0.59375q-1.0 0 -1.609375 0.640625q-0.59375 0.640625 -0.59375 1.890625l0 3.875l-1.21875 0l0 -7.3125l1.21875 0l0 1.734375q0.28125 -0.90625 0.984375 -1.375q0.71875 -0.484375 1.65625 -0.484375zm7.7105713 0.03125q1.0625 0 1.796875 0.53125q0.75 0.53125 1.046875 1.421875l0 -4.40625l1.21875 0l0 9.859375l-1.21875 0l0 -1.859375q-0.296875 0.890625 -1.046875 1.421875q-0.734375 0.53125 -1.796875 0.53125q-0.96875 0 -1.734375 -0.453125q-0.75 -0.453125 -1.1875 -1.296875q-0.4375 -0.84375 -0.4375 -2.0q0 -1.140625 0.4375 -1.984375q0.4375 -0.859375 1.1875 -1.3125q0.765625 -0.453125 1.734375 -0.453125zm0.34375 1.078125q-1.109375 0 -1.78125 0.71875q-0.671875 0.703125 -0.671875 1.953125q0 1.25 0.671875 1.96875q0.671875 0.71875 1.78125 0.71875q0.71875 0 1.28125 -0.328125q0.578125 -0.34375 0.890625 -0.953125q0.328125 -0.609375 0.328125 -1.40625q0 -0.796875 -0.328125 -1.40625q-0.3125 -0.609375 -0.890625 -0.9375q-0.5625 -0.328125 -1.28125 -0.328125z" fill-rule="nonzero"/><path fill="#000000" fill-opacity="0.0" d="m595.8493 215.69254l112.06299 0l0 26.393707l-112.06299 0z" fill-rule="evenodd"/><path stroke="#666666" stroke-width="1.0" stroke-linejoin="round" stroke-linecap="butt" stroke-dasharray="4.0,3.0" d="m595.8493 215.69254l112.06299 0l0 26.393707l-112.06299 0z" fill-rule="evenodd"/><path fill="#000000" fill-opacity="0.0" d="m601.30865 273.59512l0 5.1416016l-27.658875 0.16519165l0.70306396 -99.70555l26.95581 -0.1622467l0 4.7256927l-5.4489136 0.1415863l0.083740234 26.78482l5.4572754 -0.10914612l0 4.7256775l-5.369385 0.10914612l0.087890625 26.65207l5.189392 -0.082595825l0 4.7256927l-5.189392 0.14749146l0 26.71991z" fill-rule="evenodd"/><path stroke="#666666" stroke-width="1.0" stroke-linejoin="round" stroke-linecap="butt" stroke-dasharray="4.0,3.0" d="m601.30865 273.59512l0 5.1416016l-27.658875 0.16519165l0.70306396 -99.70555l26.95581 -0.1622467l0 4.7256927l-5.4489136 0.1415863l0.083740234 26.78482l5.4572754 -0.10914612l0 4.7256775l-5.369385 0.10914612l0.087890625 26.65207l5.189392 -0.082595825l0 4.7256927l-5.189392 0.14749146l0 26.71991z" fill-rule="evenodd"/><path fill="#000000" fill-opacity="0.0" d="m574.17706 278.43503l0 -99.08661l20.75592 0l0 99.08661z" fill-rule="evenodd"/><path fill="#000000" d="m585.04254 225.49583l0 2.8125l2.828125 0l0 1.1875l-2.828125 0l0 2.796875l-1.109375 0l0 -2.796875l-2.859375 0l0 -1.1875l2.859375 0l0 -2.8125l1.109375 0z" fill-rule="nonzero"/><path fill="#000000" fill-opacity="0.0" d="m595.8493 247.29216l112.06299 0l0 26.393692l-112.06299 0z" fill-rule="evenodd"/><path stroke="#666666" stroke-width="1.0" stroke-linejoin="round" stroke-linecap="butt" stroke-dasharray="4.0,3.0" d="m595.8493 247.29216l112.06299 0l0 26.393692l-112.06299 0z" fill-rule="evenodd"/><path fill="#000000" fill-opacity="0.0" d="m620.4503 184.09555l112.06299 0l0 26.393692l-112.06299 0z" fill-rule="evenodd"/><path stroke="#666666" stroke-width="1.0" stroke-linejoin="round" stroke-linecap="butt" stroke-dasharray="4.0,3.0" d="m620.4503 184.09555l112.06299 0l0 26.393692l-112.06299 0z" fill-rule="evenodd"/><path fill="#000000" d="m679.8777 197.77989l-2.8125 0l0 2.828125l-1.1875 0l0 -2.828125l-2.796875 0l0 -1.109375l2.796875 0l0 -2.859375l1.1875 0l0 2.859375l2.8125 0l0 1.109375z" fill-rule="nonzero"/><path fill="#000000" fill-opacity="0.0" d="m436.59256 247.29082l112.06302 0l0 26.393723l-112.06302 0z" fill-rule="evenodd"/><path stroke="#666666" stroke-width="1.0" stroke-linejoin="round" stroke-linecap="butt" d="m436.59256 247.29082l112.06302 0l0 26.393723l-112.06302 0z" fill-rule="evenodd"/><path fill="#000000" d="m461.4368 257.8814q1.390625 0 2.3125 0.75q0.921875 0.734375 1.125 1.984375l-1.265625 0q-0.140625 -0.78125 -0.734375 -1.21875q-0.59375 -0.453125 -1.46875 -0.453125q-0.640625 0 -1.171875 0.296875q-0.515625 0.296875 -0.84375 0.90625q-0.3125 0.59375 -0.3125 1.484375q0 0.890625 0.3125 1.5q0.328125 0.609375 0.84375 0.90625q0.53125 0.296875 1.171875 0.296875q0.875 0 1.46875 -0.453125q0.59375 -0.453125 0.734375 -1.25l1.265625 0q-0.203125 1.265625 -1.125 2.015625q-0.921875 0.734375 -2.3125 0.734375q-1.0625 0 -1.875 -0.453125q-0.8125 -0.453125 -1.28125 -1.296875q-0.453125 -0.84375 -0.453125 -2.0q0 -1.140625 0.453125 -1.984375q0.46875 -0.859375 1.28125 -1.3125q0.8125 -0.453125 1.875 -0.453125zm8.354858 0q1.046875 0 1.875 0.453125q0.84375 0.453125 1.3125 1.3125q0.46875 0.84375 0.46875 1.984375q0 1.15625 -0.46875 2.0q-0.46875 0.84375 -1.3125 1.296875q-0.828125 0.453125 -1.875 0.453125q-1.0625 0 -1.890625 -0.453125q-0.828125 -0.453125 -1.3125 -1.296875q-0.484375 -0.84375 -0.484375 -2.0q0 -1.140625 0.484375 -1.984375q0.484375 -0.859375 1.3125 -1.3125q0.828125 -0.453125 1.890625 -0.453125zm0 1.0625q-0.65625 0 -1.21875 0.296875q-0.546875 0.296875 -0.890625 0.90625q-0.328125 0.59375 -0.328125 1.484375q0 0.890625 0.328125 1.5q0.34375 0.59375 0.890625 0.890625q0.5625 0.296875 1.21875 0.296875q0.640625 0 1.1875 -0.296875q0.5625 -0.296875 0.90625 -0.890625q0.34375 -0.609375 0.34375 -1.5q0 -0.890625 -0.34375 -1.484375q-0.34375 -0.609375 -0.90625 -0.90625q-0.546875 -0.296875 -1.1875 -0.296875zm14.241821 -1.09375q1.28125 0 2.0625 0.828125q0.78125 0.8125 0.78125 2.359375l0 4.25l-1.21875 0l0 -4.140625q0 -1.078125 -0.53125 -1.65625q-0.515625 -0.578125 -1.4375 -0.578125q-0.96875 0 -1.546875 0.640625q-0.578125 0.625 -0.578125 1.859375l0 3.875l-1.203125 0l0 -4.140625q0 -1.078125 -0.546875 -1.65625q-0.53125 -0.578125 -1.4375 -0.578125q-0.96875 0 -1.546875 0.640625q-0.578125 0.625 -0.578125 1.859375l0 3.875l-1.21875 0l0 -7.3125l1.21875 0l0 1.65625q0.265625 -0.859375 0.953125 -1.3125q0.6875 -0.46875 1.578125 -0.46875q0.9375 0 1.625 0.484375q0.6875 0.46875 0.96875 1.375q0.3125 -0.890625 1.03125 -1.375q0.71875 -0.484375 1.625 -0.484375zm13.714569 0q1.28125 0 2.0625 0.828125q0.78125 0.8125 0.78125 2.359375l0 4.25l-1.21875 0l0 -4.140625q0 -1.078125 -0.53125 -1.65625q-0.515625 -0.578125 -1.4375 -0.578125q-0.96875 0 -1.546875 0.640625q-0.578125 0.625 -0.578125 1.859375l0 3.875l-1.203125 0l0 -4.140625q0 -1.078125 -0.546875 -1.65625q-0.53125 -0.578125 -1.4375 -0.578125q-0.96875 0 -1.546875 0.640625q-0.578125 0.625 -0.578125 1.859375l0 3.875l-1.21875 0l0 -7.3125l1.21875 0l0 1.65625q0.265625 -0.859375 0.953125 -1.3125q0.6875 -0.46875 1.578125 -0.46875q0.9375 0 1.625 0.484375q0.6875 0.46875 0.96875 1.375q0.3125 -0.890625 1.03125 -1.375q0.71875 -0.484375 1.625 -0.484375zm7.714569 0.03125q1.0625 0 1.796875 0.53125q0.75 0.53125 1.046875 1.421875l0 -1.859375l1.21875 0l0 7.3125l-1.21875 0l0 -1.859375q-0.296875 0.890625 -1.046875 1.421875q-0.734375 0.53125 -1.796875 0.53125q-0.96875 0 -1.734375 -0.453125q-0.75 -0.453125 -1.1875 -1.296875q-0.4375 -0.84375 -0.4375 -2.0q0 -1.140625 0.4375 -1.984375q0.4375 -0.859375 1.1875 -1.3125q0.765625 -0.453125 1.734375 -0.453125zm0.34375 1.078125q-1.109375 0 -1.78125 0.71875q-0.671875 0.703125 -0.671875 1.953125q0 1.25 0.671875 1.96875q0.671875 0.71875 1.78125 0.71875q0.71875 0 1.28125 -0.328125q0.578125 -0.34375 0.890625 -0.953125q0.328125 -0.609375 0.328125 -1.40625q0 -0.796875 -0.328125 -1.40625q-0.3125 -0.609375 -0.890625 -0.9375q-0.5625 -0.328125 -1.28125 -0.328125zm9.498749 -1.109375q1.28125 0 2.0625 0.828125q0.78125 0.8125 0.78125 2.359375l0 4.25l-1.203125 0l0 -4.140625q0 -1.09375 -0.5625 -1.671875q-0.5625 -0.59375 -1.515625 -0.59375q-1.0 0 -1.609375 0.640625q-0.59375 0.640625 -0.59375 1.890625l0 3.875l-1.21875 0l0 -7.3125l1.21875 0l0 1.734375q0.28125 -0.90625 0.984375 -1.375q0.71875 -0.484375 1.65625 -0.484375zm7.7105713 0.03125q1.0625 0 1.796875 0.53125q0.75 0.53125 1.046875 1.421875l0 -4.4062347l1.21875 0l0 9.85936l-1.21875 0l0 -1.859375q-0.296875 0.890625 -1.046875 1.421875q-0.734375 0.53125 -1.796875 0.53125q-0.96875 0 -1.734375 -0.453125q-0.75 -0.453125 -1.1875 -1.296875q-0.4375 -0.84375 -0.4375 -2.0q0 -1.140625 0.4375 -1.984375q0.4375 -0.859375 1.1875 -1.3125q0.765625 -0.453125 1.734375 -0.453125zm0.34375 1.078125q-1.109375 0 -1.78125 0.71875q-0.671875 0.703125 -0.671875 1.953125q0 1.25 0.671875 1.96875q0.671875 0.71875 1.78125 0.71875q0.71875 0 1.28125 -0.328125q0.578125 -0.34375 0.890625 -0.953125q0.328125 -0.609375 0.328125 -1.40625q0 -0.796875 -0.328125 -1.40625q-0.3125 -0.609375 -0.890625 -0.9375q-0.5625 -0.328125 -1.28125 -0.328125z" fill-rule="nonzero"/><path fill="#000000" fill-opacity="0.0" d="m436.59256 215.77113l112.06302 0l0 26.393707l-112.06302 0z" fill-rule="evenodd"/><path stroke="#666666" stroke-width="1.0" stroke-linejoin="round" stroke-linecap="butt" d="m436.59256 215.77113l112.06302 0l0 26.393707l-112.06302 0z" fill-rule="evenodd"/><path fill="#000000" d="m461.4368 226.36174q1.390625 0 2.3125 0.75q0.921875 0.734375 1.125 1.984375l-1.265625 0q-0.140625 -0.78125 -0.734375 -1.21875q-0.59375 -0.453125 -1.46875 -0.453125q-0.640625 0 -1.171875 0.296875q-0.515625 0.296875 -0.84375 0.90625q-0.3125 0.59375 -0.3125 1.484375q0 0.890625 0.3125 1.5q0.328125 0.609375 0.84375 0.90625q0.53125 0.296875 1.171875 0.296875q0.875 0 1.46875 -0.453125q0.59375 -0.453125 0.734375 -1.25l1.265625 0q-0.203125 1.265625 -1.125 2.015625q-0.921875 0.734375 -2.3125 0.734375q-1.0625 0 -1.875 -0.453125q-0.8125 -0.453125 -1.28125 -1.296875q-0.453125 -0.84375 -0.453125 -2.0q0 -1.140625 0.453125 -1.984375q0.46875 -0.859375 1.28125 -1.3125q0.8125 -0.453125 1.875 -0.453125zm8.354858 0q1.046875 0 1.875 0.453125q0.84375 0.453125 1.3125 1.3125q0.46875 0.84375 0.46875 1.984375q0 1.15625 -0.46875 2.0q-0.46875 0.84375 -1.3125 1.296875q-0.828125 0.453125 -1.875 0.453125q-1.0625 0 -1.890625 -0.453125q-0.828125 -0.453125 -1.3125 -1.296875q-0.484375 -0.84375 -0.484375 -2.0q0 -1.140625 0.484375 -1.984375q0.484375 -0.859375 1.3125 -1.3125q0.828125 -0.453125 1.890625 -0.453125zm0 1.0625q-0.65625 0 -1.21875 0.296875q-0.546875 0.296875 -0.890625 0.90625q-0.328125 0.59375 -0.328125 1.484375q0 0.890625 0.328125 1.5q0.34375 0.59375 0.890625 0.890625q0.5625 0.296875 1.21875 0.296875q0.640625 0 1.1875 -0.296875q0.5625 -0.296875 0.90625 -0.890625q0.34375 -0.609375 0.34375 -1.5q0 -0.890625 -0.34375 -1.484375q-0.34375 -0.609375 -0.90625 -0.90625q-0.546875 -0.296875 -1.1875 -0.296875zm14.241821 -1.09375q1.28125 0 2.0625 0.828125q0.78125 0.8125 0.78125 2.359375l0 4.25l-1.21875 0l0 -4.140625q0 -1.078125 -0.53125 -1.65625q-0.515625 -0.578125 -1.4375 -0.578125q-0.96875 0 -1.546875 0.640625q-0.578125 0.625 -0.578125 1.859375l0 3.875l-1.203125 0l0 -4.140625q0 -1.078125 -0.546875 -1.65625q-0.53125 -0.578125 -1.4375 -0.578125q-0.96875 0 -1.546875 0.640625q-0.578125 0.625 -0.578125 1.859375l0 3.875l-1.21875 0l0 -7.3125l1.21875 0l0 1.65625q0.265625 -0.859375 0.953125 -1.3125q0.6875 -0.46875 1.578125 -0.46875q0.9375 0 1.625 0.484375q0.6875 0.46875 0.96875 1.375q0.3125 -0.890625 1.03125 -1.375q0.71875 -0.484375 1.625 -0.484375zm13.714569 0q1.28125 0 2.0625 0.828125q0.78125 0.8125 0.78125 2.359375l0 4.25l-1.21875 0l0 -4.140625q0 -1.078125 -0.53125 -1.65625q-0.515625 -0.578125 -1.4375 -0.578125q-0.96875 0 -1.546875 0.640625q-0.578125 0.625 -0.578125 1.859375l0 3.875l-1.203125 0l0 -4.140625q0 -1.078125 -0.546875 -1.65625q-0.53125 -0.578125 -1.4375 -0.578125q-0.96875 0 -1.546875 0.640625q-0.578125 0.625 -0.578125 1.859375l0 3.875l-1.21875 0l0 -7.3125l1.21875 0l0 1.65625q0.265625 -0.859375 0.953125 -1.3125q0.6875 -0.46875 1.578125 -0.46875q0.9375 0 1.625 0.484375q0.6875 0.46875 0.96875 1.375q0.3125 -0.890625 1.03125 -1.375q0.71875 -0.484375 1.625 -0.484375zm7.714569 0.03125q1.0625 0 1.796875 0.53125q0.75 0.53125 1.046875 1.421875l0 -1.859375l1.21875 0l0 7.3125l-1.21875 0l0 -1.859375q-0.296875 0.890625 -1.046875 1.421875q-0.734375 0.53125 -1.796875 0.53125q-0.96875 0 -1.734375 -0.453125q-0.75 -0.453125 -1.1875 -1.296875q-0.4375 -0.84375 -0.4375 -2.0q0 -1.140625 0.4375 -1.984375q0.4375 -0.859375 1.1875 -1.3125q0.765625 -0.453125 1.734375 -0.453125zm0.34375 1.078125q-1.109375 0 -1.78125 0.71875q-0.671875 0.703125 -0.671875 1.953125q0 1.25 0.671875 1.96875q0.671875 0.71875 1.78125 0.71875q0.71875 0 1.28125 -0.328125q0.578125 -0.34375 0.890625 -0.953125q0.328125 -0.609375 0.328125 -1.40625q0 -0.796875 -0.328125 -1.40625q-0.3125 -0.609375 -0.890625 -0.9375q-0.5625 -0.328125 -1.28125 -0.328125zm9.498749 -1.109375q1.28125 0 2.0625 0.828125q0.78125 0.8125 0.78125 2.359375l0 4.25l-1.203125 0l0 -4.140625q0 -1.09375 -0.5625 -1.671875q-0.5625 -0.59375 -1.515625 -0.59375q-1.0 0 -1.609375 0.640625q-0.59375 0.640625 -0.59375 1.890625l0 3.875l-1.21875 0l0 -7.3125l1.21875 0l0 1.734375q0.28125 -0.90625 0.984375 -1.375q0.71875 -0.484375 1.65625 -0.484375zm7.7105713 0.03125q1.0625 0 1.796875 0.53125q0.75 0.53125 1.046875 1.421875l0 -4.40625l1.21875 0l0 9.859375l-1.21875 0l0 -1.859375q-0.296875 0.890625 -1.046875 1.421875q-0.734375 0.53125 -1.796875 0.53125q-0.96875 0 -1.734375 -0.453125q-0.75 -0.453125 -1.1875 -1.296875q-0.4375 -0.84375 -0.4375 -2.0q0 -1.140625 0.4375 -1.984375q0.4375 -0.859375 1.1875 -1.3125q0.765625 -0.453125 1.734375 -0.453125zm0.34375 1.078125q-1.109375 0 -1.78125 0.71875q-0.671875 0.703125 -0.671875 1.953125q0 1.25 0.671875 1.96875q0.671875 0.71875 1.78125 0.71875q0.71875 0 1.28125 -0.328125q0.578125 -0.34375 0.890625 -0.953125q0.328125 -0.609375 0.328125 -1.40625q0 -0.796875 -0.328125 -1.40625q-0.3125 -0.609375 -0.890625 -0.9375q-0.5625 -0.328125 -1.28125 -0.328125z" fill-rule="nonzero"/><path fill="#000000" fill-opacity="0.0" d="m436.59256 184.25145l112.06302 0l0 26.393707l-112.06302 0z" fill-rule="evenodd"/><path stroke="#666666" stroke-width="1.0" stroke-linejoin="round" stroke-linecap="butt" d="m436.59256 184.25145l112.06302 0l0 26.393707l-112.06302 0z" fill-rule="evenodd"/><path fill="#000000" d="m461.4368 194.84206q1.390625 0 2.3125 0.75q0.921875 0.734375 1.125 1.984375l-1.265625 0q-0.140625 -0.78125 -0.734375 -1.21875q-0.59375 -0.453125 -1.46875 -0.453125q-0.640625 0 -1.171875 0.296875q-0.515625 0.296875 -0.84375 0.90625q-0.3125 0.59375 -0.3125 1.484375q0 0.890625 0.3125 1.5q0.328125 0.609375 0.84375 0.90625q0.53125 0.296875 1.171875 0.296875q0.875 0 1.46875 -0.453125q0.59375 -0.453125 0.734375 -1.25l1.265625 0q-0.203125 1.265625 -1.125 2.015625q-0.921875 0.734375 -2.3125 0.734375q-1.0625 0 -1.875 -0.453125q-0.8125 -0.453125 -1.28125 -1.296875q-0.453125 -0.84375 -0.453125 -2.0q0 -1.140625 0.453125 -1.984375q0.46875 -0.859375 1.28125 -1.3125q0.8125 -0.453125 1.875 -0.453125zm8.354858 0q1.046875 0 1.875 0.453125q0.84375 0.453125 1.3125 1.3125q0.46875 0.84375 0.46875 1.984375q0 1.15625 -0.46875 2.0q-0.46875 0.84375 -1.3125 1.296875q-0.828125 0.453125 -1.875 0.453125q-1.0625 0 -1.890625 -0.453125q-0.828125 -0.453125 -1.3125 -1.296875q-0.484375 -0.84375 -0.484375 -2.0q0 -1.140625 0.484375 -1.984375q0.484375 -0.859375 1.3125 -1.3125q0.828125 -0.453125 1.890625 -0.453125zm0 1.0625q-0.65625 0 -1.21875 0.296875q-0.546875 0.296875 -0.890625 0.90625q-0.328125 0.59375 -0.328125 1.484375q0 0.890625 0.328125 1.5q0.34375 0.59375 0.890625 0.890625q0.5625 0.296875 1.21875 0.296875q0.640625 0 1.1875 -0.296875q0.5625 -0.296875 0.90625 -0.890625q0.34375 -0.609375 0.34375 -1.5q0 -0.890625 -0.34375 -1.484375q-0.34375 -0.609375 -0.90625 -0.90625q-0.546875 -0.296875 -1.1875 -0.296875zm14.241821 -1.09375q1.28125 0 2.0625 0.828125q0.78125 0.8125 0.78125 2.359375l0 4.25l-1.21875 0l0 -4.140625q0 -1.078125 -0.53125 -1.65625q-0.515625 -0.578125 -1.4375 -0.578125q-0.96875 0 -1.546875 0.640625q-0.578125 0.625 -0.578125 1.859375l0 3.875l-1.203125 0l0 -4.140625q0 -1.078125 -0.546875 -1.65625q-0.53125 -0.578125 -1.4375 -0.578125q-0.96875 0 -1.546875 0.640625q-0.578125 0.625 -0.578125 1.859375l0 3.875l-1.21875 0l0 -7.3125l1.21875 0l0 1.65625q0.265625 -0.859375 0.953125 -1.3125q0.6875 -0.46875 1.578125 -0.46875q0.9375 0 1.625 0.484375q0.6875 0.46875 0.96875 1.375q0.3125 -0.890625 1.03125 -1.375q0.71875 -0.484375 1.625 -0.484375zm13.714569 0q1.28125 0 2.0625 0.828125q0.78125 0.8125 0.78125 2.359375l0 4.25l-1.21875 0l0 -4.140625q0 -1.078125 -0.53125 -1.65625q-0.515625 -0.578125 -1.4375 -0.578125q-0.96875 0 -1.546875 0.640625q-0.578125 0.625 -0.578125 1.859375l0 3.875l-1.203125 0l0 -4.140625q0 -1.078125 -0.546875 -1.65625q-0.53125 -0.578125 -1.4375 -0.578125q-0.96875 0 -1.546875 0.640625q-0.578125 0.625 -0.578125 1.859375l0 3.875l-1.21875 0l0 -7.3125l1.21875 0l0 1.65625q0.265625 -0.859375 0.953125 -1.3125q0.6875 -0.46875 1.578125 -0.46875q0.9375 0 1.625 0.484375q0.6875 0.46875 0.96875 1.375q0.3125 -0.890625 1.03125 -1.375q0.71875 -0.484375 1.625 -0.484375zm7.714569 0.03125q1.0625 0 1.796875 0.53125q0.75 0.53125 1.046875 1.421875l0 -1.859375l1.21875 0l0 7.3125l-1.21875 0l0 -1.859375q-0.296875 0.890625 -1.046875 1.421875q-0.734375 0.53125 -1.796875 0.53125q-0.96875 0 -1.734375 -0.453125q-0.75 -0.453125 -1.1875 -1.296875q-0.4375 -0.84375 -0.4375 -2.0q0 -1.140625 0.4375 -1.984375q0.4375 -0.859375 1.1875 -1.3125q0.765625 -0.453125 1.734375 -0.453125zm0.34375 1.078125q-1.109375 0 -1.78125 0.71875q-0.671875 0.703125 -0.671875 1.953125q0 1.25 0.671875 1.96875q0.671875 0.71875 1.78125 0.71875q0.71875 0 1.28125 -0.328125q0.578125 -0.34375 0.890625 -0.953125q0.328125 -0.609375 0.328125 -1.40625q0 -0.796875 -0.328125 -1.40625q-0.3125 -0.609375 -0.890625 -0.9375q-0.5625 -0.328125 -1.28125 -0.328125zm9.498749 -1.109375q1.28125 0 2.0625 0.828125q0.78125 0.8125 0.78125 2.359375l0 4.25l-1.203125 0l0 -4.140625q0 -1.09375 -0.5625 -1.671875q-0.5625 -0.59375 -1.515625 -0.59375q-1.0 0 -1.609375 0.640625q-0.59375 0.640625 -0.59375 1.890625l0 3.875l-1.21875 0l0 -7.3125l1.21875 0l0 1.734375q0.28125 -0.90625 0.984375 -1.375q0.71875 -0.484375 1.65625 -0.484375zm7.7105713 0.03125q1.0625 0 1.796875 0.53125q0.75 0.53125 1.046875 1.421875l0 -4.40625l1.21875 0l0 9.859375l-1.21875 0l0 -1.859375q-0.296875 0.890625 -1.046875 1.421875q-0.734375 0.53125 -1.796875 0.53125q-0.96875 0 -1.734375 -0.453125q-0.75 -0.453125 -1.1875 -1.296875q-0.4375 -0.84375 -0.4375 -2.0q0 -1.140625 0.4375 -1.984375q0.4375 -0.859375 1.1875 -1.3125q0.765625 -0.453125 1.734375 -0.453125zm0.34375 1.078125q-1.109375 0 -1.78125 0.71875q-0.671875 0.703125 -0.671875 1.953125q0 1.25 0.671875 1.96875q0.671875 0.71875 1.78125 0.71875q0.71875 0 1.28125 -0.328125q0.578125 -0.34375 0.890625 -0.953125q0.328125 -0.609375 0.328125 -1.40625q0 -0.796875 -0.328125 -1.40625q-0.3125 -0.609375 -0.890625 -0.9375q-0.5625 -0.328125 -1.28125 -0.328125z" fill-rule="nonzero"/><path fill="#000000" fill-opacity="0.0" d="m436.59256 152.73177l112.06302 0l0 26.393707l-112.06302 0z" fill-rule="evenodd"/><path stroke="#666666" stroke-width="1.0" stroke-linejoin="round" stroke-linecap="butt" d="m436.59256 152.73177l112.06302 0l0 26.393707l-112.06302 0z" fill-rule="evenodd"/><path fill="#000000" d="m461.4368 163.32237q1.390625 0 2.3125 0.75q0.921875 0.734375 1.125 1.984375l-1.265625 0q-0.140625 -0.78125 -0.734375 -1.21875q-0.59375 -0.453125 -1.46875 -0.453125q-0.640625 0 -1.171875 0.296875q-0.515625 0.296875 -0.84375 0.90625q-0.3125 0.59375 -0.3125 1.484375q0 0.890625 0.3125 1.5q0.328125 0.609375 0.84375 0.90625q0.53125 0.296875 1.171875 0.296875q0.875 0 1.46875 -0.453125q0.59375 -0.453125 0.734375 -1.25l1.265625 0q-0.203125 1.265625 -1.125 2.015625q-0.921875 0.734375 -2.3125 0.734375q-1.0625 0 -1.875 -0.453125q-0.8125 -0.453125 -1.28125 -1.296875q-0.453125 -0.84375 -0.453125 -2.0q0 -1.140625 0.453125 -1.984375q0.46875 -0.859375 1.28125 -1.3125q0.8125 -0.453125 1.875 -0.453125zm8.354858 0q1.046875 0 1.875 0.453125q0.84375 0.453125 1.3125 1.3125q0.46875 0.84375 0.46875 1.984375q0 1.15625 -0.46875 2.0q-0.46875 0.84375 -1.3125 1.296875q-0.828125 0.453125 -1.875 0.453125q-1.0625 0 -1.890625 -0.453125q-0.828125 -0.453125 -1.3125 -1.296875q-0.484375 -0.84375 -0.484375 -2.0q0 -1.140625 0.484375 -1.984375q0.484375 -0.859375 1.3125 -1.3125q0.828125 -0.453125 1.890625 -0.453125zm0 1.0625q-0.65625 0 -1.21875 0.296875q-0.546875 0.296875 -0.890625 0.90625q-0.328125 0.59375 -0.328125 1.484375q0 0.890625 0.328125 1.5q0.34375 0.59375 0.890625 0.890625q0.5625 0.296875 1.21875 0.296875q0.640625 0 1.1875 -0.296875q0.5625 -0.296875 0.90625 -0.890625q0.34375 -0.609375 0.34375 -1.5q0 -0.890625 -0.34375 -1.484375q-0.34375 -0.609375 -0.90625 -0.90625q-0.546875 -0.296875 -1.1875 -0.296875zm14.241821 -1.09375q1.28125 0 2.0625 0.828125q0.78125 0.8125 0.78125 2.359375l0 4.25l-1.21875 0l0 -4.140625q0 -1.078125 -0.53125 -1.65625q-0.515625 -0.578125 -1.4375 -0.578125q-0.96875 0 -1.546875 0.640625q-0.578125 0.625 -0.578125 1.859375l0 3.875l-1.203125 0l0 -4.140625q0 -1.078125 -0.546875 -1.65625q-0.53125 -0.578125 -1.4375 -0.578125q-0.96875 0 -1.546875 0.640625q-0.578125 0.625 -0.578125 1.859375l0 3.875l-1.21875 0l0 -7.3125l1.21875 0l0 1.65625q0.265625 -0.859375 0.953125 -1.3125q0.6875 -0.46875 1.578125 -0.46875q0.9375 0 1.625 0.484375q0.6875 0.46875 0.96875 1.375q0.3125 -0.890625 1.03125 -1.375q0.71875 -0.484375 1.625 -0.484375zm13.714569 0q1.28125 0 2.0625 0.828125q0.78125 0.8125 0.78125 2.359375l0 4.25l-1.21875 0l0 -4.140625q0 -1.078125 -0.53125 -1.65625q-0.515625 -0.578125 -1.4375 -0.578125q-0.96875 0 -1.546875 0.640625q-0.578125 0.625 -0.578125 1.859375l0 3.875l-1.203125 0l0 -4.140625q0 -1.078125 -0.546875 -1.65625q-0.53125 -0.578125 -1.4375 -0.578125q-0.96875 0 -1.546875 0.640625q-0.578125 0.625 -0.578125 1.859375l0 3.875l-1.21875 0l0 -7.3125l1.21875 0l0 1.65625q0.265625 -0.859375 0.953125 -1.3125q0.6875 -0.46875 1.578125 -0.46875q0.9375 0 1.625 0.484375q0.6875 0.46875 0.96875 1.375q0.3125 -0.890625 1.03125 -1.375q0.71875 -0.484375 1.625 -0.484375zm7.714569 0.03125q1.0625 0 1.796875 0.53125q0.75 0.53125 1.046875 1.421875l0 -1.859375l1.21875 0l0 7.3125l-1.21875 0l0 -1.859375q-0.296875 0.890625 -1.046875 1.421875q-0.734375 0.53125 -1.796875 0.53125q-0.96875 0 -1.734375 -0.453125q-0.75 -0.453125 -1.1875 -1.296875q-0.4375 -0.84375 -0.4375 -2.0q0 -1.140625 0.4375 -1.984375q0.4375 -0.859375 1.1875 -1.3125q0.765625 -0.453125 1.734375 -0.453125zm0.34375 1.078125q-1.109375 0 -1.78125 0.71875q-0.671875 0.703125 -0.671875 1.953125q0 1.25 0.671875 1.96875q0.671875 0.71875 1.78125 0.71875q0.71875 0 1.28125 -0.328125q0.578125 -0.34375 0.890625 -0.953125q0.328125 -0.609375 0.328125 -1.40625q0 -0.796875 -0.328125 -1.40625q-0.3125 -0.609375 -0.890625 -0.9375q-0.5625 -0.328125 -1.28125 -0.328125zm9.498749 -1.109375q1.28125 0 2.0625 0.828125q0.78125 0.8125 0.78125 2.359375l0 4.25l-1.203125 0l0 -4.140625q0 -1.09375 -0.5625 -1.671875q-0.5625 -0.59375 -1.515625 -0.59375q-1.0 0 -1.609375 0.640625q-0.59375 0.640625 -0.59375 1.890625l0 3.875l-1.21875 0l0 -7.3125l1.21875 0l0 1.734375q0.28125 -0.90625 0.984375 -1.375q0.71875 -0.484375 1.65625 -0.484375zm7.7105713 0.03125q1.0625 0 1.796875 0.53125q0.75 0.53125 1.046875 1.421875l0 -4.40625l1.21875 0l0 9.859375l-1.21875 0l0 -1.859375q-0.296875 0.890625 -1.046875 1.421875q-0.734375 0.53125 -1.796875 0.53125q-0.96875 0 -1.734375 -0.453125q-0.75 -0.453125 -1.1875 -1.296875q-0.4375 -0.84375 -0.4375 -2.0q0 -1.140625 0.4375 -1.984375q0.4375 -0.859375 1.1875 -1.3125q0.765625 -0.453125 1.734375 -0.453125zm0.34375 1.078125q-1.109375 0 -1.78125 0.71875q-0.671875 0.703125 -0.671875 1.953125q0 1.25 0.671875 1.96875q0.671875 0.71875 1.78125 0.71875q0.71875 0 1.28125 -0.328125q0.578125 -0.34375 0.890625 -0.953125q0.328125 -0.609375 0.328125 -1.40625q0 -0.796875 -0.328125 -1.40625q-0.3125 -0.609375 -0.890625 -0.9375q-0.5625 -0.328125 -1.28125 -0.328125z" fill-rule="nonzero"/><path fill="#000000" fill-opacity="0.0" d="m732.3936 85.18649l25.0 0l0 369.6378l-24.937012 0" fill-rule="evenodd"/><path stroke="#595959" stroke-width="1.0" stroke-linejoin="round" stroke-linecap="butt" d="m732.3936 85.18649l25.0 0l0 369.6378l-21.509949 0" fill-rule="evenodd"/><path fill="#595959" stroke="#595959" stroke-width="1.0" stroke-linecap="butt" d="m735.88367 454.82428l1.1246338 -1.1246033l-3.0897827 1.1246033l3.0897827 1.1245728z" fill-rule="evenodd"/></g></svg>